<?xml version="1.0" standalone="no"?>
<!DOCTYPE svg PUBLIC "-//W3C//DTD SVG 1.1//EN" "http://www.w3.org/Graphics/SVG/1.1/DTD/svg11.dtd" >
<svg xmlns="http://www.w3.org/2000/svg">
<metadata></metadata>
<defs>
<font id="eb_garamondregular" horiz-adv-x="0" >
<font-face units-per-em="1000" ascent="800" descent="-200" />
<missing-glyph horiz-adv-x="200" />
<glyph unicode="&#xd;" horiz-adv-x="333" />
<glyph unicode=" "  horiz-adv-x="200" />
<glyph unicode="&#x09;" horiz-adv-x="200" />
<glyph unicode="&#xa0;" horiz-adv-x="200" />
<glyph unicode="!" horiz-adv-x="270" d="M145 106q25 0 42.5 -17.5t17.5 -42.5t-17.5 -42.5t-42.5 -17.5t-42.5 17.5t-17.5 42.5t17.5 42.5t42.5 17.5zM97.5 494q-4.5 51 -4.5 81t13.5 52t38.5 22t38.5 -22t13.5 -52.5t-4 -75.5t-8 -75.5t-12.5 -95.5t-11.5 -84q-5 -39 -18.5 -39t-17 33t-13.5 119t-14.5 137z " />
<glyph unicode="&#x22;" horiz-adv-x="309" d="M197 524l-3 90l-1 6q0 18 19 35q26 21 43 21q14 0 14 -32q0 -69 -47 -175q-10 -25 -19 -25q-7 0 -6.5 22t0.5 58zM66 524l-4 90v6q0 18 19 35q26 21 43 21q14 0 14 -32q0 -69 -47 -175q-10 -25 -19 -25q-7 0 -6.5 22t0.5 58z" />
<glyph unicode="#" horiz-adv-x="468" d="M395 649l-43 -177l59 3q13 0 13 -11.5t-8.5 -29.5t-22.5 -19l-56 -3l-34 -138l61 3q13 0 13 -12t-8.5 -29.5t-22.5 -18.5l-58 -3l-43 -176q-3 -15 -30 -15q-10 0 -10 12v3l43 174l-114 -6l-44 -179q-3 -15 -30 -15q-10 0 -10 12v3l44 177l-63 -3q-14 0 -14 12q0 47 24 48 l67 3l34 138l-64 -3q-14 0 -14 12q0 47 24 48l69 3l42 171q4 17 33 17q8 0 8 -12l-42 -174l113 6l43 174q4 17 33 17q8 0 8 -12zM149 266l114 6l33 138l-113 -6z" />
<glyph unicode="$" horiz-adv-x="458" d="M264 270l-30 -244v-3q0 -7 8 -7q58 4 84 33.5t26 98.5q0 33 -29 72q-34 44 -57 56zM279 386l-1 -7q0 -5 5 -7l9 -5q2 -2 20.5 -14.5t25 -17.5t24 -19t25.5 -23t20.5 -24.5t18.5 -28.5q16 -36 16 -69q0 -71 -52 -130.5t-154 -59.5q-8 0 -9 -6l-9 -76q-1 -15 -25 -15 q-6 0 -11 4.5t-5 9.5v1l10 79q0 7 -6 7q-21 4 -49.5 13t-33.5 10t-8 2.5t-4 2.5q-9 18 -20.5 68t-12.5 77q0 6 6 11t14 5q2 0 15.5 -29t39 -66t57.5 -53l4 -1q4 0 4 3l33 269q0 8 -12 17q-62 43 -96.5 85.5t-34.5 96t47 106t131 57.5q10 2 10 6l4 26q3 17 29 17q5 0 9 -5 t4 -10v-2l-4 -26q0 -6 10 -7t75 -14q14 -3 18 -22q14 -79 14 -96q0 -36 -10 -36q-5 0 -14 7.5t-12 17.5q-21 78 -82 103h-1q-4 0 -4 -5zM259 627q-42 -4 -70.5 -37t-28.5 -73q0 -52 71 -106q4 -2 6.5 -2t2.5 4l26 206q0 8 -7 8z" />
<glyph unicode="%" horiz-adv-x="735" d="M596.5 270.5q-18.5 50.5 -46 50.5t-46 -45t-18.5 -100.5t18.5 -110.5t49 -55t46.5 47t16 103v5q-1 55 -19.5 105.5zM456 292q40 56 102 56t95 -51t33 -124t-38 -130t-102 -57t-97 52.5t-33 125t40 128.5zM229.5 552.5q-18.5 50.5 -46 50.5t-46 -45t-18.5 -100.5 t18.5 -110.5t49 -55t46.5 47t16 103v5q-1 55 -19.5 105.5zM89 574q40 56 102 56t95 -51t33 -124t-38 -130t-102 -57t-97 52.5t-33 125t40 128.5zM136 -11l412 649q11 17 39 17q5 0 9.5 -4t4.5 -8t-1 -5l-412 -649q-9 -15 -36 -15q-6 0 -11.5 4t-5.5 7t1 4z" />
<glyph unicode="&#x26;" horiz-adv-x="788" d="M557 402l71 -5q16 0 50.5 7.5t41.5 7.5t11.5 -3t4.5 -7.5t-9 -10.5t-16 -7q-41 -3 -73 -31l-179 -188l17 -24q23 -33 31.5 -44t27.5 -30.5t39 -26t36 -6.5t20.5 0.5t8 1t8 2t6.5 2t7 3.5q6 5 13 9q15 10 25 10t10 -22q0 -5 -18.5 -18t-48.5 -25t-55 -12q-52 0 -81.5 24.5 t-72.5 91.5l-13 21q-12 -12 -31.5 -34t-26.5 -28.5t-24 -23t-27.5 -22t-27.5 -14.5q-28 -15 -70 -15q-71 0 -123 37.5t-52 100.5q0 142 168 219l20 9l-15 16q-63 63 -63 117.5t41 84.5t93 30t89 -28.5t37 -75t-25.5 -82t-71.5 -52.5l-14 -5l9 -10q12 -14 59.5 -62.5 t70.5 -82.5l12 -18l18 19q36 39 73 89t37 59t-8 18.5t-15.5 11t-12 5.5t-4.5 6q0 11 22 11zM240 334l-21 -8q-67 -26 -87 -76q-15 -40 -15 -89t34 -80t83 -31t87 19.5t77 61.5l9 9l-12 19q-26 40 -77.5 93.5t-65.5 68.5zM279 376l13 6q55 25 55 111q0 29 -20 53.5t-49 24.5 t-50 -16.5t-21 -41.5q0 -49 57 -120z" />
<glyph unicode="'" horiz-adv-x="178" d="M66 524l-4 90v6q0 18 19 35q26 21 43 21q14 0 14 -32q0 -69 -47 -175q-10 -25 -19 -25q-7 0 -6.5 22t0.5 58z" />
<glyph unicode="(" horiz-adv-x="315" d="M264 -192q0 -10 -8 -16t-18.5 -6t-17.5 7q-59 59 -119.5 208t-60.5 267t56.5 240.5t119.5 185.5q11 11 22 11t19 -5t8 -11t-13 -19q-61 -61 -106.5 -166t-45.5 -226t46.5 -258.5t101.5 -192.5q16 -16 16 -19z" />
<glyph unicode=")" horiz-adv-x="316" d="M210.5 513.5q55.5 -116.5 55.5 -234t-62 -272.5t-121 -214q-6 -6 -17 -6t-20.5 5.5t-9.5 11t10 15.5q57 57 108.5 192t51.5 254.5t-49 236.5t-109 177q-8 8 -8 12q0 13 20.5 13t30.5 -10q64 -64 119.5 -180.5z" />
<glyph unicode="*" horiz-adv-x="340" d="M46 559q-12 5 -12 18.5t17 13.5q5 0 15 -5q40 -17 80 -31q-5 43 -6 93q0 21 16 22h1q15 0 17 -18l13 -92q27 19 79 50q4 4 11 4q18 0 18 -14q0 -8 -9 -17l-73 -58q47 -22 82 -42q12 -5 12 -18.5t-17 -13.5q-5 0 -16 5q-39 17 -79 31q5 -43 6 -93q0 -21 -16 -22h-1 q-15 0 -17 18l-13 92q-27 -19 -79 -50q-4 -4 -11 -4q-18 0 -18 14q0 8 9 17l73 58q-47 22 -82 42z" />
<glyph unicode="+" horiz-adv-x="590" d="M330 278q0 -6 2 -6h205q13 0 13 -10q0 -14 -9 -27t-22 -13h-185q-4 0 -4 -4v-202q0 -13 -17 -18.5t-26 -5.5t-13 4.5t-4 9.5v211q0 5 -4 5h-202q-5 0 -9.5 3.5t-4.5 11.5t6 21.5t18 13.5h189q7 0 7 8v171q0 14 18 22.5t25.5 8.5t12 -4t4.5 -9v-191z" />
<glyph unicode="," horiz-adv-x="228" d="M36 -147q-18 0 -18 11q0 9 14 12q39 8 67.5 34.5t28.5 74.5q0 13 -12 28t-30.5 16.5t-31 13t-12.5 30t16.5 31.5t45.5 13t52.5 -27.5t23.5 -69.5q0 -69 -49.5 -118t-94.5 -49z" />
<glyph unicode="-" horiz-adv-x="274" d="M39 170h-4q-6 0 -6 6q5 53 16 54q128 18 192 25q8 0 8 -6q-4 -52 -21 -54q-117 -18 -185 -25z" />
<glyph unicode="." horiz-adv-x="230" d="M115 96q23 0 39 -16t16 -39t-16 -39t-39 -16t-39 16t-16 39t16 39t39 16z" />
<glyph unicode="/" horiz-adv-x="399" d="M30 -47l297 695q8 17 39 17q5 0 9.5 -4t4.5 -9v-2l-298 -697q-6 -15 -29.5 -15t-23.5 12l1 1v2z" />
<glyph unicode="0" horiz-adv-x="507" d="M354 321q-35 51 -95.5 51t-100.5 -47.5t-40 -118.5t35.5 -125.5t97 -54.5t100 43.5t38.5 122t-35 129.5zM102.5 352q62.5 61 150.5 61t151 -61.5t63 -150t-62.5 -152.5t-151 -64t-151 64.5t-62.5 153t62.5 149.5z" />
<glyph unicode="1" horiz-adv-x="289" d="M146 2l-110 -5q-11 0 -11 12.5t11 12.5q53 4 66 22q7 10 7 24v265q0 26 -13 36q-10 8 -18 9l-10 2q-18 4 -22 4q-7 0 -7 11t7 11l100 -3l97 3q8 0 8 -10t-8 -12q-3 -1 -13.5 -2.5t-15 -3t-12 -5t-10.5 -7.5q-10 -13 -10.5 -42t-0.5 -129t0.5 -123t11.5 -32.5t20.5 -11.5 t39.5 -6q12 -2 12 -13.5t-12 -11.5z" />
<glyph unicode="2" horiz-adv-x="422" d="M363 -4l-65 2q-66 2 -100 2q-85 0 -141 -2l-28 -1q-7 0 -7 8q0 5 7 12q40 40 61 57q136 111 136 193q0 35 -18 56.5t-47 21.5q-73 0 -116 -48q-7 -7 -13.5 -7t-6.5 9t5.5 20t19 27t31.5 31q43 36 109 36q46 0 75 -36.5t29 -86t-41 -99.5q-20 -24 -65.5 -67.5t-54 -49.5 t3.5 -8l4 -1h155q28 0 53.5 17t39.5 46q6 10 19 10q4 0 4 -5t-17 -52.5t-17 -61t-6 -18.5t-9 -5z" />
<glyph unicode="3" horiz-adv-x="372" d="M83 373q47 40 97 40t79.5 -28.5t29.5 -68.5q0 -95 -94 -149q-5 -4 1 -6q63 -1 93 -34.5t30 -73.5q0 -141 -164 -222q-42 -21 -69 -21t-27 14q0 9 9 19.5t18 10.5q48 0 67 10q45 24 67.5 55.5t22.5 97.5q0 21 -5.5 40t-26 37t-54.5 18q-25 0 -43 -10t-19 -10q-17 0 -17 9 q0 6 10.5 17t34.5 25.5t60 46.5t36 102q0 29 -17.5 47.5t-47.5 18.5t-50.5 -12t-35.5 -29t-25 -17q-7 0 -7 12q0 21 47 61z" />
<glyph unicode="4" horiz-adv-x="492" d="M266 104q12 0 12 8v169q0 2 -4 2.5t-6 -1.5q-54 -55 -152 -169q-6 -9 0 -9h150zM263 50l-229 -7q-13 0 -13 4.5t15.5 22.5t274.5 307l15 18q20 26 24 26h1q3 0 3 -12l-4 -300q0 -6 10 -6.5t30 -0.5t64 2q11 0 11 -7q0 -12 -8 -28t-13 -16l-49 1q-44 0 -44 -8v-179 q0 -16 -24.5 -32t-33.5 -16q-15 0 -15 13v209q0 4 -6.5 6.5t-8.5 2.5z" />
<glyph unicode="5" horiz-adv-x="375" d="M102 -189q-34 0 -34 11.5t33 17.5q144 25 144 160q0 98 -137 167q-50 25 -50 55q0 59 31 125q11 23 36 33q59 23 146 35h1q11 0 11 -17t-16 -43t-35 -30q-55 -11 -122 -13q-10 0 -18 -30q-1 -2 -1 -6q0 -13 20 -24q108 -60 152 -102q24 -23 43 -60t19 -73 q0 -91 -70.5 -148.5t-152.5 -57.5z" />
<glyph unicode="6" horiz-adv-x="489" d="M385 45.5q-54 -59.5 -151 -59.5t-145 56.5t-48 150.5q0 149 115 284q42 48 114 94t157 68h5q9 0 9 -3.5t-2 -7t-6 -5.5q-9 -5 -18 -9q-131 -57 -202 -158q-89 -128 -89 -266q0 -69 34 -111q16 -20 45 -38.5t63.5 -18.5t60.5 21q43 33 43 99q0 47 -27.5 82.5t-72.5 35.5 t-74 -15q-9 -4 -11 1q-4 8 31 34q14 11 43.5 22t54.5 11q52 0 88.5 -35t36.5 -88q0 -85 -54 -144.5z" />
<glyph unicode="7" horiz-adv-x="460" d="M50 406l63 -4q29 -1 157 -1t156 6q7 0 7 -10.5t-7 -22.5q-7 -15 -31 -51l-280 -489q-15 -27 -19 -27q-11 0 -19.5 7.5t-8.5 15t21 44.5l255 439q6 8 -10 10q-117 3 -206 3h-13q-42 0 -60 -22.5t-26 -22.5q-5 0 -5 5t8 40t8 69q0 11 10 11z" />
<glyph unicode="8" horiz-adv-x="452" d="M265 340q54 44 54 132q0 36 -24 64.5t-59.5 28.5t-64.5 -23t-29 -50t4 -42.5t17.5 -31.5t21 -23.5t33 -27t33.5 -25.5t14 -2zM286 315q61 -40 89 -73t28 -85q0 -71 -55 -120.5t-123 -49.5t-116 41.5t-48 103.5q0 59 44 97q36 31 78 53q6 5 5 6.5t-22 18.5t-40.5 37 t-36.5 53t-17 70q0 54 52 88t114 34t106.5 -35t44.5 -87t-48 -93q-16 -14 -39 -31t-23.5 -20t7.5 -8zM223 259q-11 8 -14.5 8t-20 -13t-27.5 -24q-30 -32 -30 -82t29.5 -87t73.5 -37t71.5 27t27.5 67q0 66 -110 141z" />
<glyph unicode="9" horiz-adv-x="466" d="M109 351.5q56 62.5 135.5 62.5t130.5 -58t51 -146q0 -133 -126 -257q-44 -43 -120 -87.5t-125 -51.5h-5q-9 0 -9 5q0 9 14 13q42 13 112 69t103 99q76 101 76 227q0 63 -37 107t-86.5 44t-75 -34.5t-25.5 -79t29.5 -83.5t68.5 -39q28 0 40 5.5t23.5 12t16 8t7 -3 t0.5 -7.5q-10 -18 -33 -35q-45 -33 -95 -33t-88 36.5t-38 89.5q0 74 56 136.5z" />
<glyph unicode=":" horiz-adv-x="248" d="M125 96q23 0 39 -16t16 -39t-16 -39t-39 -16t-39 16t-16 39t16 39t39 16zM125 373q23 0 39 -16.5t16 -38.5t-16 -38.5t-39 -16.5t-39 16.5t-16 38.5t16 38.5t39 16.5z" />
<glyph unicode=";" horiz-adv-x="228" d="M36 -147q-18 0 -18 11q0 9 14 12q39 8 67.5 34.5t28.5 74.5q0 13 -12 28t-30.5 16.5t-31 13t-12.5 30t16.5 31.5t45.5 13t52.5 -27.5t23.5 -69.5q0 -69 -49.5 -118t-94.5 -49zM106 373q22 0 38.5 -16.5t16.5 -38.5t-16.5 -38.5t-38.5 -16.5t-38.5 16.5t-16.5 38.5 t16.5 38.5t38.5 16.5z" />
<glyph unicode="&#x3c;" horiz-adv-x="590" d="M133 229l380 -174q12 -6 18 -21.5t6 -23t-3.5 -12t-7.5 -4.5h-1q-1 0 -2 1l-429 200q-41 19 -41 27.5t10 24t23 21.5l437 200h1l2 1q10 0 10 -10.5t-8.5 -27.5t-22.5 -23l-373 -174q-3 -2 1 -5z" />
<glyph unicode="=" horiz-adv-x="590" d="M540 179q-12 -36 -31 -36h-445q-5 0 -9.5 3.5t-4.5 11.5t6 21.5t18 13.5h453q5 0 9.5 -3.5t4.5 -7.5l-1 -1v-2zM74 364h453q5 0 9.5 -3.5t4.5 -6t-2.5 -9.5t-4.5 -13q-9 -18 -25 -18h-445q-5 0 -9.5 4t-4.5 11.5t6 21t18 13.5z" />
<glyph unicode="&#x3e;" horiz-adv-x="590" d="M457 234l-380 174q-12 6 -18 21.5t-6 23t3.5 12t7.5 4.5l1 -1h2l429 -200q41 -19 41 -27.5t-10 -24t-23 -21.5l-437 -200q-1 0 -3 -1q-10 0 -10 10.5t8.5 27.5t22.5 23l373 174q3 2 -1 5z" />
<glyph unicode="?" horiz-adv-x="355" d="M148 106q25 0 42.5 -17.5t17.5 -42.5t-17.5 -42.5t-42.5 -17.5t-42.5 17.5t-17.5 42.5t17.5 42.5t42.5 17.5zM157 573l-47 -4q-16 0 -29 18t-13 35t13.5 28t26.5 11q58 0 103.5 -45.5t71.5 -101.5t26 -96q0 -61 -45.5 -86t-79 -46.5t-35.5 -81.5q0 -23 -15 -23 q-5 0 -12 8.5t-16.5 42.5t-9.5 61.5t24 47t62 39.5q76 38 76 78q0 51 -26 82.5t-75 32.5z" />
<glyph unicode="@" horiz-adv-x="749" d="M503 140l-3 -27q0 -29 18 -29q55 0 94.5 38t39.5 98q0 103 -76.5 175t-190.5 72t-201 -76.5t-87 -197t87.5 -202.5t208.5 -82q48 0 108.5 22.5t98.5 54.5q12 10 18 10q14 0 14 -13t-39 -40t-100 -50.5t-111 -23.5q-137 0 -234.5 88.5t-97.5 223.5q0 153 106 239.5 t258 86.5q113 0 199 -80.5t86 -191.5q0 -84 -61.5 -136t-145.5 -52q-28 0 -46 28q-5 9 -8 9t-19 -9q-50 -28 -99 -28t-82.5 29t-33.5 80q0 88 62.5 143.5t148.5 55.5q41 0 62 -7t26 -7t12.5 9.5t12.5 9.5q14 -2 18 -8q-14 -37 -22 -80zM445.5 309.5q-19.5 15.5 -59 15.5 t-75.5 -40.5t-36 -99.5t24.5 -81.5t56 -22.5t57 17.5t32.5 53.5l19 103q1 4 1 12q0 27 -19.5 42.5z" />
<glyph unicode="A" horiz-adv-x="684" d="M147 1l-120 -6q-29 0 -29 12.5t33 23.5q60 18 86 77q96 220 187 470q13 33 13 45.5t1 12.5q36 12 42 19.5t8 11.5q4 9 7 9q5 0 10 -14q74 -233 178 -534q19 -55 42 -74.5t57.5 -25.5t34.5 -23q0 -10 -29 -10l-139 6l-105 -1q-29 0 -29 12q0 14 33 19q61 10 61 45 q0 30 -38 157q-3 11 -27 11h-191q-11 0 -17 -18q-40 -116 -40 -138t16.5 -37t45.5 -22.5t29 -18.5t-29 -11zM333 542l-90 -240q-2 -6 -2 -8q0 -7 21 -7h155q14 0 14 5q0 2 -2 10l-79 239q-6 18 -8.5 18t-8.5 -17z" />
<glyph unicode="B" horiz-adv-x="578" d="M254 371q63 0 111 29q16 9 30.5 33t14.5 70t-30 85t-106 39q-39 0 -52.5 -10.5t-13.5 -34.5v-174q0 -37 46 -37zM273 -4l-95 4l-130 -5q-29 0 -29 11.5t36.5 18t55.5 23.5t19 51v450q0 36 -15.5 53t-50 20t-34.5 20q0 11 29 11l104 -1l111 5q113 0 167.5 -34.5 t54.5 -114.5q0 -62 -34 -96q-30 -28 -67 -43q-4 -2 -4 -5t4 -5q103 -31 129 -94q13 -30 13 -70t-9.5 -69t-28 -48t-31.5 -28q-78 -54 -195 -54zM287 37q60 0 108 44.5t48 107.5q0 88 -74 129q-45 25 -104 25q-29 0 -43 -11.5t-14 -24.5v-199q0 -40 19 -55.5t60 -15.5z" />
<glyph unicode="C" horiz-adv-x="640" d="M620 138q-9 -75 -34 -112q-4 -7 -58.5 -24t-158.5 -17q-135 0 -229 100t-94 240.5t108 239t256 98.5q70 0 106 -12t76 -18q11 -1 15.5 -42.5t5.5 -73t-1.5 -39.5t-9.5 -7q-20 2 -26 37q-6 46 -35 73q-51 51 -152.5 51t-172 -85.5t-70.5 -199.5q0 -83 30 -158t89.5 -124 t134.5 -49q124 0 186 121q4 7 14 12.5t11 6.5t2 1q7 0 7 -19z" />
<glyph unicode="D" horiz-adv-x="754" d="M169 651l171 8q193 0 286 -88t93 -230.5t-102.5 -245t-245.5 -102.5q-3 0 -82 3.5t-126 3.5l-105 -5q-29 0 -29 11.5t35.5 18t50 22.5t14.5 52v450q0 35 -14.5 50.5t-50 22t-35.5 20.5q0 11 29 11l104 -2h7zM209 121q0 -59 47 -77q42 -16 103 -16q117 0 191 83t74 217 t-84.5 217t-194.5 83q-95 0 -114 -14q-22 -15 -22 -47v-446z" />
<glyph unicode="E" horiz-adv-x="535" d="M413 337l2 -68q0 -17 -9 -17q-16 0 -23 23q-15 45 -46 45h-93q-19 0 -26.5 -5t-7.5 -21v-192q0 -37 15.5 -52t50.5 -15h104q53 0 74 16.5t44 64.5q6 11 16.5 9.5t10.5 -10.5q0 -40 -17 -103q-4 -17 -14 -17l-327 6l-115 -6q-29 0 -29 11.5t36 18t53.5 23t17.5 51.5v450 q0 35 -14.5 50.5t-50 22t-35.5 20.5q0 11 29 11l177 -3l222 3q17 0 18 -9q15 -81 15 -99.5t-14 -18.5q-8 0 -11 10q-15 47 -22 55q-24 27 -67 27h-131q-10 0 -23 -9.5t-13 -22.5v-212q0 -9 5.5 -15.5t12.5 -6.5h96q44 0 61 39q2 4 8.5 10.5t10 6.5t8 -4.5t4.5 -11.5z" />
<glyph unicode="F" horiz-adv-x="512" d="M237 650l171 2h39l15 1q17 0 18 -9q5 -29 5 -100q0 -21 -9 -21q-12 0 -15 12q-12 36 -23 49q-24 27 -67 27h-127q-15 0 -22.5 -8t-9 -17t-2.5 -29.5t-1 -89.5t0.5 -92t10.5 -23l116 3q44 0 61 39q2 4 8.5 10.5t10 6.5t8.5 -5t3 -25.5t-2 -42.5t3 -66q0 -17 -9 -17 q-16 0 -23 23q-13 39 -47 39l-50 1q-23 0 -65 -2q-24 -2 -24 -25q0 -124 3 -190q2 -34 16 -52.5t48.5 -24.5t34.5 -17.5t-29 -11.5t-55 3.5t-43 3.5l-126 -7q-29 0 -29 11.5t35.5 18t50 23t14.5 52.5v422q0 48 -12.5 71t-47 29t-34.5 20q0 11 29 11z" />
<glyph unicode="G" horiz-adv-x="729" d="M583 286l89 4q21 0 21 -16q0 -6 -8 -11.5t-21 -8.5q-28 -8 -33.5 -45.5t-5.5 -76.5v-27q0 -11 9.5 -20.5t9.5 -12.5q0 -17 -14 -19q-4 -1 -39 -18t-89 -33t-110 -16q-141 0 -244 94t-103 236t108.5 244.5t259.5 102.5q42 0 124.5 -14.5t83.5 -24.5q11 -77 11 -98 q0 -34 -14.5 -34t-24.5 28.5t-27 49t-58.5 38t-103.5 17.5q-113 0 -186.5 -89.5t-73.5 -218.5t78 -211.5t184 -82.5q85 0 118.5 33.5t33.5 80.5l2 58q0 24 -5 30q-11 15 -44 23t-46 8t-20.5 5t-7.5 12t7.5 12t12.5 5z" />
<glyph unicode="H" horiz-adv-x="810" d="M648 650l91 3q29 0 29 -11q0 -14 -33.5 -20t-43 -21.5t-9.5 -48.5v-452q0 -39 9.5 -54.5t44 -21.5t34.5 -17.5t-29 -11.5l-104 5l-107 -5q-29 0 -29 11.5t33 17.5q68 13 68 73v190q0 15 -5 15h-382q-5 0 -5 -11v-185q0 -31 22 -53.5t56 -28.5t34 -17.5t-29 -11.5l-117 5 l-110 -5q-29 0 -29 11.5t34.5 18t46.5 22t12 52.5v452q0 37 -9 51t-43 20t-34 20q0 11 29 11l103 -3l106 3q29 0 29 -11q0 -14 -33 -20q-68 -12 -68 -71v-192q0 -9 14 -9h371q7 0 7 12v190q0 58 -66 70q-33 6 -33 20q0 11 29 11z" />
<glyph unicode="I" horiz-adv-x="340" d="M176 0l-128 -5q-29 0 -29 11.5t36.5 18t55.5 23t19 50.5v452q0 35 -14.5 50t-50 21.5t-35.5 20.5q0 11 29 11l117 -3l109 3q29 0 29 -11q0 -14 -36 -20.5t-52 -22t-16 -49.5v-452q0 -34 19.5 -50.5t56 -23t36.5 -18t-29 -11.5z" />
<glyph unicode="J" horiz-adv-x="300" d="M177 650l94 3q29 0 29 -11q0 -14 -34.5 -20.5t-45 -20.5t-10.5 -50v-409q0 -152 -17 -204q-10 -30 -15.5 -40t-20.5 -32q-46 -66 -123 -66q-46 0 -74.5 12.5t-28.5 31t11.5 36t24.5 17.5q33 0 51 -27.5t46 -27.5q66 0 66 158v551q0 34 -14.5 49t-49.5 21.5t-35 20.5 q0 11 29 11z" />
<glyph unicode="K" horiz-adv-x="681" d="M172 651l97 2q29 0 29 -11q0 -14 -34 -20t-43.5 -22t-9.5 -49v-187q0 -19 5 -19q11 0 27 18l200 204q15 15 15 31.5t-19 21.5q-31 8 -31 19.5t29 11.5h54q112 0 155 4h7q22 0 22 -11q0 -14 -33 -20q-94 -17 -152 -66q-96 -81 -192 -187q-6 -7 5 -18l242 -258 q35 -39 52 -50.5t54 -19.5t37 -19t-29 -11l-139 5l-81 -1q-29 0 -29 11t27.5 17.5t27.5 19.5q0 8 -15 25l-212 234q-17 17 -23 17q-4 0 -4 -40t5 -173q3 -75 64 -86q33 -6 33 -17.5t-29 -11.5t-55 3.5t-43 3.5l-126 -7q-29 0 -29 11.5t35.5 18t50 23t14.5 53.5v450 q0 34 -14.5 49t-50 21.5t-35.5 20.5q0 11 29 11z" />
<glyph unicode="L" horiz-adv-x="574" d="M177 650l126 3q29 0 29 -11q0 -14 -28.5 -19t-40.5 -8t-27 -9q-26 -11 -26 -39v-471q0 -33 15 -47t62 -14h146q6 0 25 8q52 22 83 89q11 30 22.5 30t11.5 -18q-1 -1 -1 -3v-2q-23 -86 -27 -127q-2 -17 -14 -17l-343 5l-135 -5q-28 0 -28 11.5t22 17.5q41 8 61 24t20 48 v464q0 35 -11 45t-47 16.5t-36 20.5q0 11 29 11z" />
<glyph unicode="M" horiz-adv-x="901" d="M65 655l166 -8q13 0 27 -59q6 -26 9 -34l158 -401q6 -15 11.5 -15t11.5 12l197 410q6 13 10 36q9 52 18 52h36q24 0 64 4t47 4h3q21 0 21 -10q0 -14 -26 -22.5t-38.5 -12.5t-28.5 -16t-16 -27q0 -135 10 -283.5t11.5 -184.5t19.5 -52.5t53.5 -23t35.5 -18t-29 -11.5 l-117 5l-105 -5q-29 0 -29 11q0 14 31 18t42 20t11 52q0 98 -12 368q0 16 -5 16q-3 0 -11 -16l-222 -450q-11 -24 -16.5 -24t-14.5 26q-56 168 -179 455q-10 23 -13 0q-32 -237 -32 -369q0 -24 16 -48t49 -30t33 -17.5t-29 -11.5l-94 5l-91 -5q-29 0 -29 11.5t33 17.5 q51 9 62 78q41 307 41 436l-1 23q0 14 -10.5 26.5t-18 17.5t-18 8.5t-17.5 5.5t-19 4.5t-15 3.5q-14 5 -14 16.5t23 11.5z" />
<glyph unicode="N" horiz-adv-x="770" d="M25 658l154 -5q11 0 24 -17.5t187.5 -237t192.5 -241t26.5 -21.5t9.5 21q2 64 2 320v87q-1 18 -20.5 35t-45 21.5t-25.5 18.5q0 11 29 11h57l115 3q29 0 29 -11q0 -14 -35 -20.5t-47.5 -17.5t-14 -47.5t-1.5 -548.5q0 -25 -21 -25q-11 0 -35 16.5t-48.5 50t-353.5 434.5 q-13 16 -21.5 16t-8.5 -21q-5 -248 -5 -375q0 -68 64 -80q33 -6 33 -17.5t-29 -11.5l-94 5l-91 -5q-29 0 -29 11.5t28.5 16.5t44 34.5t18.5 49.5q18 150 18 400q0 49 -24.5 73t-65 37t-40.5 27t23 14z" />
<glyph unicode="O" horiz-adv-x="763" d="M557 538q-64 87 -176 87t-175.5 -82t-63.5 -203.5t72.5 -218t181.5 -96.5t167 74.5t58 213t-64 225.5zM45 320q0 93 38.5 169.5t118.5 125.5t188 49q134 0 231 -92.5t97 -236.5q0 -141 -86 -242q-41 -49 -106 -78t-144 -29q-135 0 -236 97t-101 237z" />
<glyph unicode="P" horiz-adv-x="552" d="M163 652l111 6q113 0 185 -48t72 -128q0 -98 -59 -163t-169 -65q-20 0 -32.5 6t-12.5 13q0 4 5.5 7.5t10.5 3.5l15 -2q15 -2 31 -3q121 0 121 179q0 88 -45 130t-122 42q-64 0 -64 -42v-477q0 -75 67 -87q33 -6 33 -17.5t-29 -11.5t-55 3.5t-43 3.5l-130 -7 q-29 0 -29 11.5t36 18t53 23t17 52.5v422q0 48 -12.5 71t-47 29t-34.5 20q0 11 29 11z" />
<glyph unicode="Q" horiz-adv-x="806" d="M584 534.5q-82 91.5 -195 91.5t-181.5 -81.5t-68.5 -190.5q0 -134 85 -238t206 -104q72 0 127.5 49.5t82 119.5t26.5 143q0 119 -82 210.5zM374 -54q-15 12 -59 36.5t-65 30t-56.5 29.5t-69.5 61t-56.5 91t-22.5 113q0 150 101.5 252.5t255.5 102.5q90 0 170.5 -34.5 t134.5 -107.5t54 -170q0 -68 -18.5 -126t-46 -96t-64.5 -67q-63 -49 -135 -69q-14 -4 -14 -9t4 -9q47 -50 108.5 -94.5t104.5 -58t92.5 -13.5t63.5 5.5t23 5.5t9 -11.5t-18 -22.5q-57 -33 -121 -33t-114 18.5t-112.5 63t-148.5 112.5z" />
<glyph unicode="R" horiz-adv-x="689" d="M371.5 373q41.5 44 41.5 109t-28.5 105t-106.5 40q-38 0 -50.5 -14t-13.5 -40q-4 -97 -4 -209q0 -23 12 -29t41 -6q67 0 108.5 44zM163 652l115 5q225 0 225 -164q0 -108 -118 -168q-7 -3 0 -13q45 -68 62.5 -93.5t57 -73t83.5 -87.5q24 -21 49 -27t66 -6q15 0 15 -11 q0 -19 -26.5 -27t-54.5 -8q-94 0 -138 54q-76 91 -104 133.5t-45 71.5q-34 53 -125 64q-15 2 -15 -20v-172q0 -74 67 -86q33 -6 33 -17.5t-29 -11.5t-55 3.5t-43 3.5l-130 -7q-29 0 -29 11.5t36 18t53 23t17 52.5v422q0 48 -12.5 71t-47 29t-34.5 20q0 11 29 11z" />
<glyph unicode="S" horiz-adv-x="465" d="M92 103q28 -86 135 -86q51 0 81 31t30 84q0 84 -152 186q-61 41 -94 82.5t-33 103t57 111t144 49.5q50 0 83 -10t36 -10q14 0 20 -38q6 -41 6 -67.5t-7 -26.5q-29 0 -35 28q-7 43 -38 67t-76.5 24t-79 -29.5t-33.5 -78.5q0 -46 50 -87q42 -35 83 -61q153 -99 153 -215 q0 -69 -52 -122.5t-156 -53.5q-83 0 -134 24q-17 8 -21 17q-18 38 -18 115q0 8 6.5 18.5t15 10.5t29.5 -66z" />
<glyph unicode="T" horiz-adv-x="670" d="M671 669l-1 -9q-16 -66 -16 -99v-12q0 -10 -4.5 -21t-11.5 -11q-11 0 -19 41q-8 46 -99.5 46t-127.5 -4q-16 -2 -16 -43v-455q0 -64 79 -78q33 -6 33 -17.5t-29 -11.5l-117 5l-128 -5q-29 0 -29 11.5t36 17.5q75 14 75 78v455q0 40 -18 43q-19 4 -74 4h-47q-26 0 -49 -10 t-31 -25.5t-20.5 -28.5t-22.5 -13q-7 0 -7 11.5t5 21.5q22 46 31 111q3 23 17 23q8 0 25 -32q11 -20 70 -20h381q38 0 58 14q7 5 17.5 15t18 15.5t14.5 5.5t7 -23z" />
<glyph unicode="U" horiz-adv-x="738" d="M618 650l81 3q29 0 29 -11q0 -13 -33 -20q-47 -9 -50 -75q-1 -11 -10 -297q-4 -116 -75.5 -190t-179.5 -74q-142 0 -209.5 73.5t-67.5 221.5v266q0 60 -46 73q-33 9 -33 22q0 11 29 11l96 -3l80 2q29 0 29 -11q0 -9 -33 -20q-14 -4 -28 -24.5t-14 -47.5v-296 q0 -90 64.5 -153.5t156.5 -63.5t140 69.5t48 190.5q0 61 -4 215q-2 98 -41 109q-33 9 -33 20t29 11z" />
<glyph unicode="V" horiz-adv-x="672" d="M436 651l99 -1l114 3q29 0 29 -11q0 -13 -33.5 -20.5t-59 -32t-38.5 -54.5l-188 -456q-1 -2 -5 -14.5t-8.5 -24.5t-9.5 -26q-11 -29 -20 -29q-5 0 -30 71l-183 491q-22 59 -70 73q-33 10 -33 21.5t29 11.5l122 -3l102 2q29 0 29 -11q0 -14 -28.5 -19.5t-48 -17t-19.5 -28 t9 -43.5l127 -336q10 -28 18 -28q6 0 18 28l141 350q8 16 8 32q0 21 -67 41q-33 9 -33 20t29 11z" />
<glyph unicode="W" horiz-adv-x="916" d="M118 650l93 2q29 0 29 -11t-33 -20q-20 -5 -20 -33q0 -19 8 -43q77 -197 164 -393q9 -19 15 -1l78 193q6 15 6 23t-8 29l-57 142q-12 30 -39 52t-58 31t-31 20.5t29 11.5l94 -3l77 2q29 0 29 -11q0 -8 -20.5 -19t-20.5 -23q0 -2 11 -35.5t26.5 -66t18.5 -32.5t16 29 t23.5 64.5t10.5 39.5q0 13 -18.5 24t-18.5 19q0 11 29 11l52 -2l59 3q29 0 29 -11q0 -13 -31.5 -20t-43.5 -16t-29 -38t-37 -82t-20 -62t1 -11l103 -265q4 -10 11 6q38 101 122 387q6 18 6 36q0 35 -31.5 43.5t-31.5 19.5t29 11l72 -1l90 3q29 0 29 -11q0 -13 -33 -20 q-53 -12 -82 -88l-161 -476q-25 -70 -32 -70q-9 0 -17 19q-31 70 -72 177t-51 132q-4 10 -9 0q-1 -2 -2 -6q-56 -131 -114 -295q-11 -31 -22 -31q-3 0 -14 28l-216 542q-24 52 -72 66q-33 10 -33 21.5t29 11.5z" />
<glyph unicode="X" horiz-adv-x="707" d="M472 651l81 -1l114 6q29 0 29 -11t-33 -20q-42 -11 -130 -115l-115 -136q-18 -21 -18 -26.5t4 -13.5l155 -223q47 -69 107 -85q33 -9 33 -20t-29 -11l-143 6l-103 -1q-29 0 -29 11t25 18t38.5 19.5t13.5 29.5t-12 33l-104 151q-12 17 -22 5l-135 -174q-9 -12 -9 -23 q0 -30 45 -40q33 -9 33 -20t-29 -11l-89 2l-126 -6q-29 0 -29 11.5t32 21t74 35.5t70 61l125 156q18 25 18 34t-2 11l-145 204q-45 62 -81 80q-14 7 -41 15t-27 19.5t29 11.5l143 -5l99 2q29 0 29 -10.5t-24.5 -18t-31 -9.5t-14.5 -6q-14 -6 -14 -20t33 -60l91 -128 q10 -15 15.5 -15t14.5 12l107 141q26 32 26 51q0 23 -45 31q-33 7 -33 20q0 11 29 11z" />
<glyph unicode="Y" horiz-adv-x="578" d="M310 0l-128 -5q-29 0 -29 11.5t33 17.5q78 14 78 84v148q0 29 -25 74l-117 192q-55 88 -88.5 98t-33.5 21.5t29 11.5l117 -3l80 2q29 0 29 -11q0 -13 -32.5 -20.5t-32.5 -24.5q0 -13 13 -36l92 -165q22 -38 28 -38q17 0 117 177q18 30 18 51q0 29 -41 35q-11 2 -22 8 t-11 12q0 11 29 11l75 -1l104 3q29 0 29 -10.5t-53 -25.5q-24 -7 -40 -25q-41 -44 -159 -246q-18 -31 -21.5 -45t-3.5 -45v-148q0 -34 20.5 -55.5t56 -28t35.5 -18t-29 -11.5z" />
<glyph unicode="Z" horiz-adv-x="603" d="M533 -5l-302 3l-119 -1h-77q-7 0 -7 11v3q0 15 58 93q235 321 342 484q4 6 4 8q0 7 -19 8q-72 2 -147.5 2t-102 -2t-52.5 -18.5t-38.5 -49.5t-27.5 -33q-9 0 -9 9.5t15 53.5t19 86q1 17 15 17q7 0 25 -14q11 -8 68 -8.5t163.5 -0.5t217.5 3q5 0 9.5 -7t1.5 -11l-61 -81 q-216 -291 -338 -480q-3 -5 -3 -16t11 -13q48 -5 112 -5t145 6t121 100q8 21 22 21q9 0 9 -11t-14.5 -67t-23 -73t-17.5 -17z" />
<glyph unicode="[" horiz-adv-x="373" d="M150 702l165 -1q18 0 18 -13t-26 -15l-108 -6q-12 0 -25.5 -14.5t-13.5 -28.5v-729q0 -20 10.5 -33.5t24.5 -15.5l112 -13q26 -4 26 -18.5t-26 -14.5h-164q-19 0 -25 4t-6 21v843q0 24 6 29t32 5z" />
<glyph unicode="\" horiz-adv-x="399" d="M378 -47v-1l1 -2q0 -12 -23.5 -12t-29.5 15l-297 695l-1 2v2q0 5 4.5 9t9.5 4q31 0 39 -17z" />
<glyph unicode="]" horiz-adv-x="373" d="M219 702q25 0 31.5 -5t6.5 -29v-843q0 -17 -6 -21t-25 -4h-164q-26 0 -26 14.5t26 18.5l112 13q14 2 24.5 15.5t10.5 33.5v729q0 14 -13.5 28.5t-25.5 14.5l-108 6q-26 2 -26 15t18 13z" />
<glyph unicode="^" horiz-adv-x="500" d="M250 603q202 -287 202 -308q0 -11 -9 -11h-2q-27 7 -38 19.5t-34 43.5t-41 57q-54 80 -74 110q-6 7 -10 0q-134 -196 -147 -210t-38 -20h-2q-9 0 -9 11q0 12 87 140.5t115 167.5z" />
<glyph unicode="_" horiz-adv-x="500" d="M24 -132h463q5 0 9.5 -3.5t4.5 -6t-2.5 -9.5t-4.5 -13q-9 -18 -25 -18h-455q-5 0 -9.5 4t-4.5 11.5t6 21t18 13.5z" />
<glyph unicode="`" horiz-adv-x="279" d="M56 612q-16 16 -16 25.5t11 18t24 8.5q33 0 50 -27q22 -36 57.5 -100.5t35.5 -76t-12 -11.5t-28 22q-50 69 -122 141z" />
<glyph unicode="a" horiz-adv-x="399" d="M115 87q0 -26 16 -40.5t39 -14.5t54 27q11 9 12 40l2 49q1 21 -9 21q-7 0 -14 -3q-100 -34 -100 -79zM116 314l1 -14q0 -9 -28.5 -22t-38.5 -13t-10 9q0 34 34.5 64.5t76.5 53t77.5 22.5t59.5 -26t23 -63l-5 -216v-6q0 -71 36 -71q25 0 40 14q4 4 10 0.5t6 -9.5v-1 q-6 -13 -31 -31.5t-49.5 -18.5t-41 13t-23.5 26t-9 13q-4 0 -18 -13t-41.5 -26t-61 -13t-61 25t-27.5 54q0 60 73 90l102 42q19 8 23 14t5 26l2 62v2q0 26 -16.5 45t-38 19t-40.5 -10.5t-24 -19.5t-5 -21z" />
<glyph unicode="b" horiz-adv-x="515" d="M148 698l-3 -105v-205q0 -32 9 -33q35 29 76 44t70 15q77 0 128.5 -57.5t51.5 -146.5t-57 -156.5t-164 -67.5q-37 0 -91 14.5t-58 14.5t-14 -9t-14 -9t-9 3.5t-5 8.5v5q0 6 2 14.5t3 19.5q2 24 2 57v461q0 63 -47 73q-8 2 -8 12.5t7 12.5q35 8 70 22.5t43 17.5h1l1 1 q6 0 6 -7zM186 49q41 -32 96.5 -32t89 50.5t33.5 122t-37 127.5t-103 56q-24 0 -54 -9t-45 -26q-21 -22 -21 -85v-121q0 -51 41 -83z" />
<glyph unicode="c" horiz-adv-x="377" d="M356.5 330q-14.5 -11 -26.5 -11t-22 10q-27 29 -43 38t-51 9q-52 0 -81 -45t-29 -112.5t44.5 -124t114.5 -56.5q30 0 48.5 11.5t39.5 38.5q5 5 9 5t8 -4.5t4 -9.5q0 -30 -52.5 -61.5t-120 -31.5t-116 57.5t-48.5 144.5t60.5 156t146 69t124.5 -48q5 -7 5 -15.5 t-14.5 -19.5z" />
<glyph unicode="d" horiz-adv-x="506" d="M346 -15l5 66v6q-18 -28 -52 -49.5t-79 -21.5q-82 0 -133.5 62t-51.5 147.5t62 152t163 66.5q20 0 46.5 -7.5t32.5 -15t9.5 -7.5t3.5 24v158q0 38 -11.5 52.5t-39.5 20.5q-8 2 -8 13t7 12q39 9 78 24.5t44.5 15.5t6 -4.5t-0.5 -19.5q-6 -57 -6 -118v-452q0 -65 21 -65 q31 0 46 3t15 -12t-14 -15q-52 -7 -90.5 -23.5t-46 -16.5t-7.5 4zM229 379q-36 0 -74 -32q-20 -17 -33 -52t-13 -85t16.5 -88.5t41.5 -56.5q47 -34 89 -34t69 26t27 63v135q0 46 -34 85t-89 39z" />
<glyph unicode="e" horiz-adv-x="388" d="M229 414q60 0 94.5 -25t34.5 -68t-21.5 -53.5t-55.5 -10.5h-164q-14 0 -19.5 -6.5t-5.5 -30.5q0 -70 43 -122t105.5 -52t96.5 44q7 7 11 7q11 0 4 -26t-49.5 -55.5t-108.5 -29.5t-115 60t-49 151.5t57.5 154t141.5 62.5zM270 366q-25 17 -60.5 17t-67 -28.5t-31.5 -51.5 q0 -15 19 -15h82q47 0 73 5q10 1 10 28.5t-25 44.5z" />
<glyph unicode="f" horiz-adv-x="305" d="M127 2l-83 -5q-20 0 -20 9.5t23 17.5q43 13 43 44v282q-31 0 -52 2q-3 1 -8.5 7t-5.5 9.5t7 7.5q15 4 59 26q0 82 21.5 144t56.5 95q67 65 142 65q110 0 110 -60q0 -16 -10 -28t-21 -12t-22 9t-21 20.5t-31 20.5t-47 9q-49 0 -77.5 -46.5t-28.5 -143.5v-53q0 -22 25 -22 h118q4 0 4 -11.5t-4 -24t-9 -12.5h-94q-25 0 -32.5 -4t-7.5 -13v-267q1 -31 43 -44q23 -8 23 -17.5t-20 -9.5z" />
<glyph unicode="g" horiz-adv-x="435" d="M82 -134q0 -51 34.5 -83.5t93.5 -32.5t103 40t44 101q0 25 -24.5 42t-58.5 23.5t-95 9.5h-23q-12 -8 -50 -46q-24 -28 -24 -54zM268 349q-27 37 -67 37t-64 -37.5t-24 -82.5t26.5 -85t65.5 -40t64.5 37t25.5 85.5t-27 85.5zM373 385l32 1q12 0 21 -1t9 -18.5t-9 -17.5 q-37 0 -42 -2t-8 -3.5t-7 -2.5q-4 -11 -4 -46q0 -75 -48 -132t-120 -57q-32 0 -54 12q-44 -34 -44 -49q0 -32 96 -41q130 -12 152.5 -22t40.5 -21q30 -19 30 -62q0 -80 -72.5 -146.5t-149 -66.5t-131 27t-54.5 87q0 31 15.5 53.5t52 45.5t51.5 46q-34 7 -62 25.5t-28 49.5 q0 19 23 37q6 4 19 12q27 16 40 34q-14 3 -38 26q-49 46 -49 111t54 108.5t124 43.5q25 0 59 -11q63 -20 101 -20z" />
<glyph unicode="h" horiz-adv-x="515" d="M120 2l-81 -5q-20 0 -20 9.5t18 15.5t25 10q23 10 23 33v501q0 64 -45 73q-8 2 -8 12.5t7 12.5q25 6 116 40l2 1q2 0 7 -7q0 -2 -2 -14q-7 -44 -7 -122v-174q0 -27 8 -37q85 63 151 63q49 0 81.5 -39t32.5 -97v-210q0 -32 41 -44q23 -8 23 -17.5t-20 -9.5l-78 5l-78 -5 q-20 0 -20 9.5t23 17.5q39 12 39 44v204q0 36 -29.5 63t-63.5 27q-55 0 -83 -22q-16 -13 -21.5 -27.5t-5.5 -44.5v-203q1 -30 38 -41q23 -8 23 -17.5t-20 -9.5z" />
<glyph unicode="i" horiz-adv-x="245" d="M82 528q-14 14 -14 36t14 36t36 14t36 -14t15 -37q-1 -21 -15 -35t-36 -15q-22 1 -36 15zM125 2l-81 -5q-20 0 -20 9.5t28 18.5t33 18.5t5 18.5v217q0 63 -47 73q-8 2 -8 12.5t7 12.5q49 12 102 47q16 10 18 10q7 0 7 -5q-9 -92 -9 -135v-232q0 -20 12 -26 q13 -6 33.5 -13t20.5 -16.5t-20 -9.5z" />
<glyph unicode="j" horiz-adv-x="213" d="M51 563q1 23 15 37t36 14t36 -14t14 -36t-14 -36t-37 -15q-21 1 -35 15t-15 35zM144 275v-184q0 -160 -30 -243q-19 -51 -58.5 -93t-65 -42t-25.5 10.5t11 16.5q41 10 68 67t27 262v210q0 64 -46 73q-8 2 -8 12.5t7 12.5q49 12 102 47q16 10 18 10q7 0 7 -5 q-7 -72 -7 -154z" />
<glyph unicode="k" horiz-adv-x="469" d="M459 -5l-182 5q-23 0 -23 9q0 11 22 19t22 18q0 5 -7 14l-126 145q-2 3 -6 1.5t-4.5 -14t-0.5 -58.5t1 -69q0 -31 35 -41q23 -8 23 -17.5t-23 -9.5l-70 5l-78 -5q-23 0 -23 9.5t18 15.5t25 10q23 10 23 33v501q0 35 -10.5 51.5t-35.5 21.5q-8 2 -8 12.5t7 12.5 q30 7 118 40h1l1 1q6 0 6 -6.5t-2 -22.5q-7 -56 -7 -114v-331q0 -9 6 -7q14 3 35 21q90 79 114 113q1 1 1 3q0 11 -26 17q-12 4 -12 8q0 14 22 14h49q21 0 57 6t39 6q8 0 8 -6.5t-6.5 -13t-13.5 -8.5q-29 -6 -61 -25.5t-137 -111.5q-11 -9 -3 -17q36 -43 82.5 -93.5 t64.5 -66.5q36 -34 82 -48q23 -8 23 -17.5t-20 -9.5z" />
<glyph unicode="l" horiz-adv-x="241" d="M120 2l-81 -5q-20 0 -20 9.5t28 18.5t33 18.5t5 18.5v504q0 63 -46 73q-8 2 -8 12.5t7 12.5q25 6 116 40h1l1 1q6 0 6 -7q0 -3 -2 -18q-5 -39 -5 -118v-500q0 -20 12 -26q13 -6 33.5 -13t20.5 -16.5t-20 -9.5z" />
<glyph unicode="m" horiz-adv-x="778" d="M168 423l-5 -64q0 -10 2 -12q72 67 158 67q70 0 93 -60q5 -11 10.5 -11t21.5 18.5t56 35.5t85.5 17t72.5 -41.5t27 -97.5v-213q0 -20 12 -26q13 -6 33.5 -13t20.5 -16.5t-20 -9.5l-79 5l-83 -5q-20 0 -20 9.5t23 17.5q1 0 4 1q33 10 38 27q1 5 1 10v210q0 37 -24 66 t-56 29q-53 0 -84 -24t-31 -75v-206q0 -11 3 -14.5t4 -6t5 -4.5t5.5 -3.5t7 -3t6.5 -2.5q9 -4 14 -4q23 -8 23 -17.5t-20 -9.5l-82 5l-83 -5q-20 0 -20 9.5t28 18.5t33.5 18.5t5.5 18.5v210q0 37 -24 66t-56 29q-53 0 -83.5 -23.5t-30.5 -75.5v-206q0 -19 11.5 -25.5 t15.5 -7.5q39 -10 39 -23q0 -9 -20 -9l-81 5l-81 -5q-20 0 -20 9.5t16.5 15t19 6t10.5 4.5t10 7q10 11 10 23v215q0 31 -8 49t-31 23q-8 2 -8 12.5t7 12.5q46 11 95 46q12 8 15 9t8 -6z" />
<glyph unicode="n" horiz-adv-x="527" d="M405 2l-82 -5q-20 0 -20 9.5t23 17.5q1 0 4 1q33 10 38 27q1 5 1 10v210q0 43 -25 68t-73.5 25t-79.5 -21t-31 -76v-206q0 -20 12 -26q13 -6 33.5 -13t20.5 -16.5t-20 -9.5l-81 5l-81 -5q-20 0 -20 9.5t16.5 15t19 6t10.5 4.5t10 7q10 11 10 23v215q0 64 -41 72 q-8 2 -8 13t7 12q52 12 110 55q1 1 3.5 1t5.5 -9l-7 -65q0 -7 1 -8q28 23 75.5 44.5t92.5 21.5t77.5 -40t32.5 -99v-213q0 -20 12 -26q13 -6 33.5 -13t20.5 -16.5t-20 -9.5z" />
<glyph unicode="o" horiz-adv-x="495" d="M237 383q-120 0 -120 -173q0 -77 40 -135.5t98 -58.5q75 0 103 55q20 39 20 116t-40 136.5t-101 59.5zM99.5 343.5q64.5 70.5 152.5 70.5t148 -59.5t60 -147.5t-59.5 -154.5t-166.5 -66.5q-85 0 -142 57t-57 143.5t64.5 157z" />
<glyph unicode="p" horiz-adv-x="519" d="M120 -280l-80 -5q-21 0 -21 9.5t28 18.5t33 18.5t5 18.5v507q0 17 -12 42.5t-34 30.5q-8 2 -8 12.5t7 12.5q42 10 116 40l1 1h1q6 0 6 -9l-5 -60q0 -8 1 -9q19 19 69.5 42.5t92.5 23.5q74 0 119 -57t45 -132q0 -92 -66.5 -165.5t-158.5 -73.5q-22 0 -54 9.5t-46 22.5 q-4 0 -4 -51v-187q0 -15 11.5 -21.5t17 -8.5t16.5 -4q36 -9 36 -22q0 -9 -22 -9zM156 269l-1 -64q0 -48 2.5 -95.5t26.5 -70t90 -22.5q38 0 80 37q21 19 35.5 55.5t14.5 87t-14.5 88.5t-37.5 55q-43 29 -87.5 29t-82.5 -29q-23 -17 -26 -71z" />
<glyph unicode="q" horiz-adv-x="522" d="M412 -280l-81 -5q-20 0 -20 9.5t23 17.5q1 0 4 1q33 10 38 27q1 5 1 10v215q0 30 -5 30t-10 -5q-39 -34 -124.5 -34t-144 51.5t-58.5 149t68.5 162.5t178.5 65q62 0 110 -16l18 -6q10 0 15 5.5t11 19.5q4 4 8 4t9.5 -3t5.5 -7l-1 -7q-11 -47 -11 -109v-515q0 -19 19 -27 l10 -5q16 -6 23 -6q23 -8 23 -17.5t-20 -9.5zM340.5 351q-34.5 31 -88 31t-94.5 -47.5t-41 -133.5t49.5 -131.5t105.5 -45.5t86 23q20 14 20 108.5t-1 119.5q-2 45 -36.5 76z" />
<glyph unicode="r" horiz-adv-x="334" d="M130 2l-81 -5q-20 0 -20 9.5t18 15.5t24 8.5t12.5 10.5t6.5 21v215q0 63 -41 72q-8 2 -8 12.5t7 12.5q38 8 56 20q34 22 45 28.5t11 7t2.5 0.5t4.5 -7q0 -27 -1.5 -52t0 -25t5.5 5q14 17 18 20q48 43 92 43q21 0 34.5 -9t13.5 -24t-12.5 -33t-23.5 -18t-32 9t-31 9 q-29 0 -49.5 -19t-20.5 -65v-197q1 -27 54 -43q23 -8 23 -17.5t-20 -9.5z" />
<glyph unicode="s" horiz-adv-x="323" d="M219 370q-19 18 -45.5 18t-43.5 -18t-17 -42t17 -44t29.5 -28.5t38 -24.5t40.5 -27t35 -39.5t20 -58.5q0 -120 -144 -120q-37 0 -69 12.5t-37 23.5q-11 23 -13 61q0 9 15.5 9t16.5 -7q5 -26 34 -49t61.5 -23t50 19t17.5 47t-18 47.5t-60.5 49.5t-68 58.5t-25.5 69.5 t33 75.5t93 34.5t83 -23q17 -21 17 -78q0 -4 -7 -4t-20 7.5t-13 13.5q-1 22 -20 40z" />
<glyph unicode="t" horiz-adv-x="314" d="M189 -14q-49 0 -76.5 29.5t-27.5 89.5v232q0 9 -7.5 12t-30.5 3q-3 0 -7.5 7.5t-4.5 12t5 7.5q23 7 47 29t39 41t18 19q14 0 14 -10l-2 -44q0 -14 24 -14h114q10 0 10 -24t-10 -24h-99q-27 0 -33.5 -4t-6.5 -24v-189q0 -51 19 -72.5t47 -21.5q50 0 75 19q4 3 7 -1.5 t3 -11t-16 -21t-44.5 -27.5t-56.5 -13z" />
<glyph unicode="u" horiz-adv-x="527" d="M359 -15l5 66v6q-72 -71 -165 -71q-51 0 -82.5 31t-31.5 88v203q0 40 -43 57q-13 4 -13 16.5t15 15.5q35 1 103 17q7 1 11 -3t3 -11q-6 -46 -6 -77v-195q0 -36 26 -63.5t58 -27.5q58 0 84 20q45 33 45 75v183q0 27 -21 38t-44 11.5t-23 17.5q0 8 8.5 11.5t26.5 4t36 2 t31 3.5t18 3q6 0 32 9h2q7 0 11.5 -6t-1.5 -16t-6 -67v-212q0 -69 18 -69q31 0 46 3t15 -12t-14 -15q-52 -7 -90.5 -23.5t-46 -16.5t-7.5 4z" />
<glyph unicode="v" horiz-adv-x="438" d="M98 400l75 5q20 0 20 -9.5t-23 -17.5q-20 -6 -20 -41q0 -16 4 -27l74 -199q4 -11 6 -11t6 10l72 185q7 18 7 36q0 40 -25 47q-23 8 -23 17.5t20 9.5l73 -5q20 0 36 2.5t29.5 2.5t13.5 -9.5t-19.5 -16t-37.5 -25.5t-28 -43l-78 -188l-37 -100q-22 -45 -27 -45q-7 0 -20 39 l-122 312q-17 40 -46 49q-23 8 -23 17.5t20 9.5z" />
<glyph unicode="w" horiz-adv-x="685" d="M612 400l58 5q20 0 20 -9.5t-23 -17.5q-28 -8 -53 -66l-137 -328q-3 -7 -8 -7t-9 7l-104 258q-6 15 -13 -1l-109 -257q-4 -7 -8.5 -7t-6.5 7l-139 345q-15 38 -52 49q-23 8 -23 17.5t20 9.5l73 -5q76 5 89.5 5t13.5 -9.5t-23 -17.5q-21 -6 -21 -40q0 -13 5 -26l76 -196 q7 -19 15 1l66 161q6 16 6 36t-16 39.5t-36.5 25t-20.5 17.5q0 9 20 9l75 -5l84 5q20 0 20 -9.5t-23 -17.5q-34 -11 -34 -36q0 -13 7 -30l75 -193q8 -19 16 -1l76 177q7 15 7 33t-11 32t-29 20t-18 15.5t20 9.5z" />
<glyph unicode="x" horiz-adv-x="430" d="M316 0l-73 -1q-23 0 -23 9q0 12 28 21t28 23q0 8 -6 18l-54 92q-5 8 -8 3l-67 -98q-5 -8 -5 -22.5t14 -18.5q23 -8 23 -17.5t-23 -9.5l-53 2l-67 -5q-20 0 -20 9q0 12 24.5 19t65.5 56l85 106q9 11 2 23l-81 126q-21 35 -45 41.5t-24 18.5q0 9 23 9l79 -4l51 2 q23 0 23 -8.5t-19.5 -15t-19.5 -17t13 -31.5l40 -62q5 -9 8 -5l49 75q8 11 8 22.5t-18 17.5t-18 15.5t23 9.5l50 -3q21 0 39 2.5t31 2.5t13 -9.5t-23 -17.5q-48 -14 -71 -47l-65 -92q-4 -6 1 -13l97 -161q21 -35 45 -41.5t24 -18.5q0 -9 -20 -9z" />
<glyph unicode="y" horiz-adv-x="438" d="M364 400l59 5q20 0 20 -9.5t-19 -16t-36 -25.5t-27 -43l-136 -324q-1 -3 -16.5 -40t-38.5 -93t-41 -97.5t-65 -41.5q-19 0 -35 10t-16 26q0 30 27 30l40 -6q12 0 19 11q46 79 91 198q3 9 3 25t-4 27l-116 293q-17 41 -45 49q-23 8 -23 17.5t20 9.5l73 -5l76 5 q20 0 20 -11q0 -14 -29 -22q-20 -6 -20 -32q0 -9 8 -28l79 -196q8 -19 15 1l67 178q8 18 8 42.5t-24.5 35t-24.5 21.5t20 11z" />
<glyph unicode="z" horiz-adv-x="377" d="M127 401l38 1q95 0 186 3q4 0 6.5 -4.5t0.5 -7.5q-20 -24 -38 -50l-193 -293q-3 -5 2 -10t10 -5h117q20 0 39.5 19t46.5 58q12 24 22 24q8 0 8 -18.5t-14.5 -65.5t-19 -52t-8.5 -5t-75 2.5t-136 2.5l-80 -5q-4 0 -9 6.5t-5 12.5t37 56q74 106 186 284q7 10 -9 10h-117 q-14 0 -30 -22q-4 -6 -11 -15.5t-9.5 -13t-6.5 -9t-7 -8.5q-10 -10 -15.5 -10t-7 8t1.5 14q17 40 17 90q0 7 5.5 12.5t9.5 5.5t13 -7.5t45 -7.5z" />
<glyph unicode="{" horiz-adv-x="373" d="M25 282q0 5 6 5q3 0 5 1q95 35 95 116q0 30 -6.5 86t-6.5 92q0 65 61 99t141 34q18 0 18 -15q0 -12 -26 -12q-54 0 -91.5 -25t-37.5 -76q0 -35 6.5 -90t6.5 -83q0 -45 -34.5 -80t-73.5 -51q-4 -2 2 -4q31 -8 68.5 -48t37.5 -84q0 -28 -6.5 -83t-6.5 -90q0 -51 37.5 -76 t91.5 -25q26 0 26 -12q0 -15 -18 -15q-80 0 -141 34t-61 99q0 36 6.5 92t6.5 86q0 81 -95 116q-11 4 -11 9z" />
<glyph unicode="|" horiz-adv-x="260" d="M100 676q0 14 18 22.5t25.5 8.5t12 -4t4.5 -9v-959q0 -13 -17 -18.5t-26 -5.5t-13 4.5t-4 9.5v951z" />
<glyph unicode="}" horiz-adv-x="373" d="M342 287q6 0 6 -5t-11 -9q-95 -35 -95 -116q0 -30 6.5 -86t6.5 -92q0 -65 -61 -99t-141 -34q-18 0 -18 15q0 12 26 12q54 0 91.5 25t37.5 76q0 35 -6.5 90t-6.5 83q0 44 37.5 84t68.5 48q5 2 2 4q-39 16 -73.5 51t-34.5 80q0 28 6.5 83t6.5 90q0 51 -37.5 76t-91.5 25 q-26 0 -26 12q0 15 18 15q80 0 141 -34t61 -99q0 -36 -6.5 -92t-6.5 -86q0 -81 95 -116q2 -1 5 -1z" />
<glyph unicode="~" horiz-adv-x="500" d="M422.5 370q16.5 12 18.5 12t5.5 -7.5t3.5 -12.5q0 -15 -46.5 -58.5t-74 -43.5t-85.5 24t-82 24t-46 -12t-36 -23.5t-17.5 -11.5t-8 6t-4.5 12q0 12 48 57t73 45t78 -24t80.5 -24t52 12.5t41 24.5z" />
<glyph unicode="&#xa1;" horiz-adv-x="282" d="M152 374q-25 0 -42.5 17.5t-17.5 42.5t17.5 42.5t42.5 17.5t42.5 -17.5t17.5 -42.5t-17.5 -42.5t-42.5 -17.5zM188.5 -159q-12.5 -21 -37 -21t-37.5 21t-13 57t23 307q2 23 9.5 40.5t18.5 17.5q7 0 13.5 -17t8.5 -35q27 -261 27 -305t-12.5 -65z" />
<glyph unicode="&#xa2;" horiz-adv-x="412" d="M194 -12q-65 11 -112 69t-47 137.5t57.5 144.5t145.5 73l5 50q2 17 22 17q6 0 10 -5.5t3 -11.5l-5 -49q71 -4 107 -48q4 -5 4 -15t-24 -27q-8 -4 -18.5 -4t-15.5 10q-23 41 -57 50l-34 -333q5 -1 15 -1q87 0 115 43q3 5 8.5 5t9.5 -3.5t4 -7.5t-1 -5q-53 -88 -158 -91 l-5 -51q-2 -15 -19 -15q-7 0 -12 4t-4 11zM200 53l35 331h-2q-57 0 -94 -50.5t-37 -113t26.5 -106.5t71.5 -61z" />
<glyph unicode="&#xa3;" horiz-adv-x="490" d="M421 146q0 12 9 12q21 -2 34 -17t13 -36q0 -57 -46 -99t-99.5 -42t-86 14t-77 45.5t-68.5 31.5q-5 0 -19.5 -15.5t-25 -34.5t-29.5 -19t-27.5 9t-8.5 24t30 40t66 32q5 1 11 12q27 48 32 196l-84 -6q-5 0 -9.5 3.5t-4.5 9.5t7.5 15t16.5 10l75 5v5q0 158 96 243 q51 45 121 45q101 0 101 -82q0 -19 -15.5 -37.5t-27 -18.5t-11.5 14l1 22q-1 25 -22.5 49t-46.5 24q-49 0 -78 -68.5t-30 -189.5l133 9q5 0 9 -4t4 -9t-10.5 -15t-20.5 -10l-117 -8q-7 -61 -33.5 -123t-47.5 -80q-3 -2 -2 -5.5t6 -3.5q63 0 127.5 -30.5t110.5 -30.5 q23 0 40 16.5t17 32.5t-6.5 31.5t-6.5 23.5v10z" />
<glyph unicode="&#xa4;" horiz-adv-x="483" d="M41 434q-3 3 -3 10t10.5 17.5t18 10.5t10.5 -3l45 -45q54 41 120.5 41t116.5 -41l46 46q3 3 10 3t17.5 -10t10.5 -18t-4 -12l-45 -45q39 -51 39 -118t-39 -118l47 -47q3 -3 3 -10t-10.5 -17.5t-18 -10.5t-10.5 3l-46 46q-50 -41 -118 -41t-118 41l-47 -46q-3 -3 -10.5 -3 t-17.5 10t-10 17.5t3 10.5l47 47q-39 51 -39 118t39 117zM241 415q-59 0 -100.5 -42.5t-41.5 -102.5t41.5 -102.5t100.5 -42.5t100.5 42.5t41.5 102.5t-41.5 102.5t-100.5 42.5z" />
<glyph unicode="&#xa5;" horiz-adv-x="619" d="M315 0l-128 -5q-29 0 -29 11.5t33 17.5q78 14 78 84l1 89h-126q-5 0 -9.5 3.5t-4.5 9.5t7.5 14t16.5 8h116v24q0 10 -2 24h-124q-5 0 -9.5 4t-4.5 9.5t7.5 13.5t16.5 8h106q-7 13 -9 15l-124 192q-58 89 -90 98.5t-32 21t29 11.5l117 -3l80 2q29 0 29 -11q0 -9 -33 -20 q-28 -10 -28 -33q0 -14 9 -28l93 -165q23 -39 30.5 -39t30.5 39q56 82 83 139q7 15 7 34q0 44 -31.5 52.5t-31.5 19.5t29 11l75 -1l96 3q29 0 29 -11q0 -13 -36.5 -20.5t-96.5 -95.5l-112 -180q-15 -22 -18 -31h122q13 0 13 -11q0 -8 -10 -16t-21 -8h-109v-48h126 q13 0 13 -11q0 -8 -10 -16t-21 -8h-108v-89q0 -70 78 -84q33 -6 33 -17.5t-29 -11.5z" />
<glyph unicode="&#xa6;" horiz-adv-x="260" d="M140.5 283q-19.5 -7 -26 -7t-10.5 7.5t-4 15.5v375q0 14 18 22.5t25.5 8.5t12 -4t4.5 -9v-395q0 -7 -19.5 -14zM119.5 171q19.5 8 25.5 8t10.5 -7t4.5 -15v-423q0 -13 -17 -18.5t-26 -5.5t-13 4.5t-4 9.5v432q0 7 19.5 15z" />
<glyph unicode="&#xa7;" horiz-adv-x="400" d="M95 454q-3 8 -6.5 7.5t-4.5 -3.5q-11 -42 -11 -82q0 -78 89 -170t112 -130q8 -14 11 -21.5t6.5 -7t4.5 3.5q11 42 11 83q0 77 -89 169q-106 110 -123 151zM141 601q38 39 87.5 39t70.5 -19q12 -10 12 -17.5t-12.5 -27.5t-22.5 -20t-16 6q-38 34 -64 34t-42.5 -18.5 t-16.5 -44.5q0 -55 104 -148q60 -54 82.5 -105t22.5 -111.5t-11 -95.5t-39 -84q-48 -83 -119 -126q-18 -11 -49 -11t-49 9t-18 23q0 31 28 52q8 5 22 -6q27 -24 69 -24q52 0 52 82q0 22 -11 40t-17 27t-20 24.5t-20 22.5q-20 21 -46 47q-94 96 -94 180q0 62 16.5 103.5 t49.5 80.5q13 49 51 88z" />
<glyph unicode="&#xa8;" horiz-adv-x="317" d="M247 574q19 0 34.5 -15.5t15.5 -34.5t-15.5 -34.5t-34.5 -15.5t-34.5 15.5t-15.5 34.5t15.5 34.5t34.5 15.5zM70 574q19 0 34.5 -15.5t15.5 -34.5t-15.5 -34.5t-34.5 -15.5t-34.5 15.5t-15.5 34.5t15.5 34.5t34.5 15.5z" />
<glyph unicode="&#xa9;" horiz-adv-x="665" d="M346 590q-109 0 -186 -77t-77 -186.5t76.5 -189t186 -79.5t186.5 79t77 189t-77 187t-186 77zM346 630q125 0 214 -89t89 -214t-89.5 -214t-214.5 -89t-213.5 89t-88.5 214t89 214t214 89zM462 225q8 15 17 15q5 0 5 -11t-7 -29t-13 -24q-22 -22 -98.5 -22t-127 53 t-50.5 123t57.5 117t134.5 47q26 0 41.5 -4t30.5 -7.5t21 -5.5t6 -31t-0.5 -34.5t-4 -10t-6.5 -3.5q-6 0 -13 18.5t-29 33t-55 14.5q-50 0 -81.5 -38.5t-31.5 -96t31.5 -101.5t92 -44t80.5 41z" />
<glyph unicode="&#xaa;" horiz-adv-x="270" d="M49 196h206q5 0 9.5 -3.5t4.5 -6t-1 -4.5q-11 -21 -31 -21h-198q-5 0 -9.5 3.5t-4.5 9.5t7.5 14t16.5 8zM80 342q0 -16 10.5 -25t24 -9t37.5 19q8 6 8 23v29q0 15 -15 11q-65 -18 -65 -48zM234 308q10 0 25 10q3 0 6 -5t3 -9.5t-7 -11.5q-22 -24 -40 -24t-30.5 8 t-19 15.5t-8.5 7.5t-11 -7q-28 -24 -68 -24q-20 0 -39.5 20.5t-19.5 39.5t7.5 31.5t30.5 20.5l79 28q13 4 15.5 8t2.5 16v23q0 16 -10 26t-36 10t-35 -14q-1 -2 -1 -24q0 -5 -20 -12t-25 -7t-5 6t7.5 19.5t21.5 25.5t44 25.5t53 13.5t42 -16t19 -37v-124q0 -39 19 -39z" />
<glyph unicode="&#xab;" horiz-adv-x="676" d="M535 37q-94 94 -205 145q-7 4 -12.5 13t-5.5 15t3 8q146 87 226 164q18 18 29 18q6 0 6 -9q0 -21 -49.5 -75t-107.5 -99q-6 -4 -6 -7t6 -7q54 -42 104.5 -98t50.5 -71t-9 -15q-12 0 -30 18zM323 37q-94 94 -205 145q-7 4 -12.5 13t-5.5 15t3 8q146 87 226 164 q18 18 29 18q6 0 6 -9q0 -21 -49.5 -75t-107.5 -99q-6 -4 -6 -7t6 -7q54 -42 104.5 -98t50.5 -71t-9 -15q-12 0 -30 18z" />
<glyph unicode="&#xac;" horiz-adv-x="600" d="M64 322q-5 0 -9.5 4t-4.5 8.5t1 11t3 15.5q5 21 20 21h463q5 0 9 -4.5t4 -9.5v-301q0 -13 -17 -18.5t-26 -5.5t-13 4.5t-4 9.5v247q0 18 -14 18h-412z" />
<glyph unicode="&#xad;" horiz-adv-x="274" d="M39 170h-4q-6 0 -6 6q5 53 16 54q128 18 192 25q8 0 8 -6q-4 -52 -21 -54q-117 -18 -185 -25z" />
<glyph unicode="&#xae;" horiz-adv-x="337" d="M160 630q-36 0 -61.5 -25.5t-25.5 -61.5t25.5 -61.5t61.5 -25.5t61.5 25.5t25.5 61.5t-25.5 61.5t-61.5 25.5zM160 650q44 0 75.5 -31.5t31.5 -75.5t-31.5 -75.5t-75.5 -31.5t-75.5 31.5t-31.5 75.5t31.5 75.5t75.5 31.5zM169.5 555.5q6.5 4.5 6.5 12t-5 14.5t-12 7 q-11 0 -11 -9v-23q0 -6 7.5 -6t14 4.5zM107 488q-1 0 -1 4.5t1 4.5q16 6 16 12v62q0 9 -12 13q-4 0 -3 6.5t3 6.5q25 6 46 6t32.5 -8.5t11.5 -25.5t-19 -22q-1 0 -1 -3t9.5 -20.5t17.5 -23.5q11 -11 11 -13t-12 -2q-29 0 -43 43q-2 6 -9 6t-7 -3v-22q0 -8 15 -11 q1 -1 1 -5.5t-1 -4.5h-56z" />
<glyph unicode="&#xaf;" horiz-adv-x="250" d="M74 58h-215q-5 0 -9.5 4t-4.5 11.5t6 21t18 13.5h223q13 0 13 -10t-9.5 -25t-21.5 -15z" />
<glyph unicode="&#xb0;" horiz-adv-x="290" d="M145 645q48 0 84 -34.5t36 -82.5t-36.5 -87t-83.5 -39t-83.5 39t-36.5 87t36 82.5t84 34.5zM93.5 575.5q-21.5 -21.5 -21.5 -52t21.5 -52.5t51.5 -22t51.5 22t21.5 52.5t-21.5 52t-51.5 21.5t-51.5 -21.5z" />
<glyph unicode="&#xb1;" horiz-adv-x="590" d="M64 38q-5 0 -9.5 4t-4.5 11.5t6 21t18 13.5h453q5 0 9.5 -3.5t4.5 -6t-2.5 -9.5t-4.5 -13q-9 -18 -25 -18h-445zM540 387q-12 -36 -31 -36h-185q-4 0 -4 -4v-202q0 -12 -13.5 -18t-21 -6t-11.5 4.5t-4 9.5v211q0 5 -4 5h-202q-5 0 -9.5 3.5t-4.5 11.5t6 21.5t18 13.5h189 q7 0 7 8v171q0 12 14.5 21.5t20.5 9.5t10.5 -4t4.5 -9v-191q0 -5 0.5 -5.5t3.5 -0.5h203q5 0 9.5 -3.5t4.5 -7.5l-1 -1v-2z" />
<glyph unicode="&#xb2;" horiz-adv-x="300" d="M275 545l-1 -4q-20 -56 -24.5 -80t-11.5 -24h-3q-51 3 -103.5 3t-79 -1.5t-28 0.5t-1.5 6t5 9l39 40q1 1 13.5 12.5t23 21.5t25 27t24.5 32q25 37 25 65t-17 46t-42 18t-40.5 -7.5t-36.5 -30.5q-2 -5 -6 -5.5t-7 2.5t-3 8q0 21 35.5 54t77.5 33t68.5 -27.5t26.5 -65.5 q0 -26 -9 -40.5t-11 -17.5t-7 -11t-11 -16.5t-28.5 -31t-43.5 -41.5t-23.5 -21.5t2.5 -4t10 -1.5h69q22 0 42.5 13.5t31.5 36.5q4 10 11.5 9t7.5 -6z" />
<glyph unicode="&#xb3;" horiz-adv-x="300" d="M112 434q-66 0 -66 33q0 7 6 17.5t13 10.5t12 -5q33 -22 65 -22q27 0 43 21t16 46.5t-19 41.5t-39 16t-34.5 -4t-19 -2.5t-6.5 5t2.5 8t13 9t19 8t27.5 12.5t29.5 21.5t12.5 31.5t-16 30t-31 11q-42 0 -72 -30q-6 -6 -8.5 -6t-5.5 4t-2 7q37 72 103 72q88 0 88 -71 q0 -37 -59 -66q-3 -1 -3 -4.5t3 -3.5q29 0 49 -22t20 -53q0 -55 -46.5 -85.5t-94.5 -30.5z" />
<glyph unicode="&#xb4;" horiz-adv-x="382" d="M231 632q11 18 48 18t37 -19q0 -8 -15 -23q-68 -68 -118 -137q-16 -22 -28 -22t-12 11.5t34 75t54 96.5z" />
<glyph unicode="&#xb5;" horiz-adv-x="510" d="M38 92l-7 240q0 36 12.5 61t39.5 25q39 0 39 -75q0 -21 -15.5 -106t-15.5 -106.5t24 -51t54 -29.5q72 0 110 72q24 46 31 88.5t7 102.5v19q0 33 12.5 58t36.5 25q39 0 39 -63q0 -16 -24 -89t-24 -104t16.5 -63t46.5 -32q45 0 65 40q5 9 12 4.5t7 -8.5v-6q0 -34 -15 -55 q-21 -34 -38.5 -44t-43 -10t-39.5 13t-29 50q-9 28 -13 66q-19 -48 -66 -97q-28 -30 -50.5 -30t-42 7t-32 15.5t-27 20t-20.5 18.5q-13 14 -18 14q-10 0 -10 -35t9 -87t25 -92t29.5 -67.5t13.5 -34.5q0 -31 -28 -31q-43 0 -63 51q-6 17 -10.5 93.5t-4.5 140.5z" />
<glyph unicode="&#xb6;" horiz-adv-x="586" d="M523 600l-72 7q-7 0 -12.5 -5.5t-5.5 -12.5v-755q0 -39 -32 -80t-74.5 -41t-68.5 23t-26 54.5t20.5 50.5t45.5 19t41.5 -12.5t16.5 -30.5t-11 -31t-23 -13t-29 9.5t-21 9.5t-4 -14.5t14 -27t41 -12.5t49 23.5t22 58.5v274q0 25 -13 25q-84 0 -158.5 27t-125 85t-50.5 129 t32 125t85 89q108 71 251 71q63 0 111 -2q15 0 15 -21q0 -7 -6 -14.5t-12 -7.5z" />
<glyph unicode="&#xb7;" horiz-adv-x="200" d="M100 260q22 0 38.5 -16t16.5 -39t-16.5 -39t-38.5 -16t-38.5 16t-16.5 39t16.5 39t38.5 16z" />
<glyph unicode="&#xb8;" horiz-adv-x="252" d="M409 -123l-26 -6q-6 0 -12 4.5t-6 9t5 11.5l88 112h31l-39 -51q-4 -4 -4 -8q0 -9 18.5 -16t36 -27.5t17.5 -44.5q0 -54 -45.5 -94.5t-79.5 -40.5q-30 0 -30 41q0 9 4.5 14t8.5 5l16 -6q16 -6 37 -5q39 0 39 45q0 27 -16 42t-43 15z" />
<glyph unicode="&#xb9;" horiz-adv-x="300" d="M183 716l-1 -127q0 -55 1 -81.5t8.5 -32.5t41.5 -11q12 -2 12 -13.5t-12 -11.5q-32 0 -50.5 2.5t-31.5 2.5t-32.5 -2.5t-49.5 -2.5q-11 0 -11 12.5t14 13t23.5 3t18.5 13t9 29.5v153q0 28 -54 47q-11 4 -11 14.5t10 12.5q39 4 92 37q17 10 18 10q11 0 8 -20t-3 -48z" />
<glyph unicode="&#xba;" horiz-adv-x="309" d="M49 196h222q5 0 9.5 -3.5t4.5 -6t-1 -4.5q-11 -21 -31 -21h-214q-5 0 -9.5 3.5t-4.5 9.5t7.5 14t16.5 8zM202.5 460.5q-20.5 30.5 -53 30.5t-48 -25.5t-15.5 -65.5t21 -70.5t52.5 -30.5t47.5 25.5t16 65.5t-20.5 70.5zM65 484q40 40 92 40t89.5 -36t37.5 -88t-36 -92 t-93.5 -40t-93.5 33.5t-36 88t40 94.5z" />
<glyph unicode="&#xbb;" horiz-adv-x="676" d="M141 37q-18 -18 -30 -18q-9 0 -9 15t50.5 71t104.5 98q6 4 6 7t-6 7q-58 45 -107.5 99t-49.5 75q0 9 6 9q11 0 29 -18q80 -77 226 -164q3 -2 3 -8t-5.5 -15t-12.5 -13q-111 -51 -205 -145zM353 37q-18 -18 -30 -18q-9 0 -9 15t50.5 71t104.5 98q6 4 6 7t-6 7 q-58 45 -107.5 99t-49.5 75q0 9 6 9q11 0 29 -18q80 -77 226 -164q3 -2 3 -8t-5.5 -15t-12.5 -13q-111 -51 -205 -145z" />
<glyph unicode="&#xbc;" horiz-adv-x="641" d="M121 -11l412 649q11 17 39 17q6 0 11 -6t2 -11l-412 -649q-9 -15 -36 -15q-7 0 -13.5 5t-2.5 10zM502 148q8 0 8 5v111q0 2 -2 2t-4 -1q-39 -43 -93 -112q-3 -5 0 -5h91zM618 107l-34 1q-22 0 -22 -5v-84q0 -10 -18.5 -19.5t-24.5 -9.5q-9 0 -9 8v102q0 5 -9 5l-146 -4 q-3 0 -5.5 3t-0.5 5q30 41 87 110q104 128 117 131q3 1 5 -2t2 -6q0 -117 2 -191q0 -4 3 -4h18q25 0 36.5 0.5t11.5 -4.5q0 -10 -5 -23t-8 -13zM165 433l1 -79q1 -28 8.5 -34.5t41.5 -11.5q12 -2 12 -13.5t-12 -11.5q-32 0 -50.5 2.5t-31.5 2.5t-32.5 -2.5t-49.5 -2.5 q-11 0 -11 12.5t14 13t23.5 3t18.5 13t9 29.5v153q0 28 -54 47q-11 4 -11 14.5t10 12.5q35 4 56.5 16.5t32.5 20.5q17 10 21 10q11 0 9 -14q-4 -28 -4 -70z" />
<glyph unicode="&#xbd;" horiz-adv-x="699" d="M676 99l-1 -4q-20 -56 -24 -76.5t-6 -24t-5 -3.5h-4q-51 3 -103.5 3t-103.5 -2q-3 -1 -4 4q-1 6 4 12l39 40q1 1 13.5 12.5t23 21.5t25 27t24.5 32q25 37 25 65t-17 46t-42 18t-40.5 -7.5t-36.5 -30.5q-2 -5 -6 -5.5t-7 2.5t-3 8q0 21 35.5 54t77.5 33t68.5 -27.5 t26.5 -65.5q0 -26 -9 -40.5t-11 -17.5t-7 -11t-11 -16.5t-28.5 -31t-43.5 -41.5t-23.5 -21.5t2.5 -4t10 -1.5h69q22 0 42.5 13.5t31.5 36.5q4 10 11.5 9t7.5 -6zM121 -11l412 649q11 17 39 17q5 0 9.5 -4t4.5 -8t-1 -5l-412 -649q-9 -15 -36 -15q-7 0 -13.5 5t-2.5 10z M165 433l1 -79q1 -28 8.5 -34.5t41.5 -11.5q12 -2 12 -13.5t-12 -11.5q-32 0 -50.5 2.5t-31.5 2.5t-32.5 -2.5t-49.5 -2.5q-11 0 -11 12.5t14 13t23.5 3t18.5 13t9 29.5v153q0 28 -54 47q-11 4 -11 14.5t10 12.5q35 4 56.5 16.5t32.5 20.5q17 10 21 10q11 0 9 -14 q-4 -28 -4 -70z" />
<glyph unicode="&#xbe;" horiz-adv-x="641" d="M121 274q-68 0 -68 33q0 7 6 17.5t13 10.5t12 -5q33 -22 67 -22q17 0 38 17.5t21 51.5t-19.5 57t-47.5 23q-11 0 -25.5 -4t-19 -2.5t-6.5 5t3.5 9t23.5 12t22.5 9.5t14 9t13.5 9t10.5 8.5t8.5 9.5q8 14 8 27.5t-16 24.5t-31 11q-36 0 -72 -30q-7 -7 -10 -6q-9 5 -6 11 q37 72 103 72q88 -2 88 -71q0 -37 -59 -67q-3 -2 -3 -3.5t3 -1.5q32 -1 50.5 -27t18.5 -61q0 -56 -47 -91.5t-94 -35.5zM121 -11l412 649q11 17 39 17q6 0 11 -6t2 -11l-412 -649q-9 -15 -36 -15q-6 0 -11.5 4t-5.5 7t1 4zM502 148q8 0 8 5v111q0 2 -2 2t-4 -1 q-39 -43 -93 -112q-3 -5 0 -5h91zM618 107l-34 1q-22 0 -22 -5v-84q0 -10 -18.5 -19.5t-24.5 -9.5q-9 0 -9 8v102q0 5 -9 5l-146 -4q-7 0 -7 7l1 1q30 41 87 110q104 128 117 131h1q6 0 6 -8q0 -117 2 -191q0 -4 3 -4h18q25 0 36.5 0.5t11.5 -4.5q0 -10 -5 -23t-8 -13z" />
<glyph unicode="&#xbf;" horiz-adv-x="355" d="M233 374q-25 0 -42.5 17.5t-17.5 42.5t17.5 42.5t42.5 17.5t42.5 -17.5t17.5 -42.5t-17.5 -42.5t-42.5 -17.5zM224 -93l47 4q16 0 29 -18t13 -35t-13.5 -28t-26.5 -11q-58 0 -103.5 45.5t-73.5 103.5t-28 94.5t13.5 62.5t30.5 35q107 58 114 78q5 11 5.5 36t15.5 25 q5 0 12 -8.5t16.5 -42.5t9.5 -61.5t-24 -47t-63 -39.5q-75 -38 -75 -78q0 -51 26 -82.5t75 -32.5z" />
<glyph unicode="&#xc0;" horiz-adv-x="684" d="M395 697q-6 0 -18 9q-85 64 -130 102q-13 12 -13 20t22 15t38 7t25 -13q82 -119 82 -134q0 -6 -6 -6zM147 1l-120 -6q-29 0 -29 12.5t33 23.5q60 18 86 77q96 220 187 470q13 33 13 45.5t1 12.5q36 12 42 19.5t8 11.5q4 9 7 9q5 0 10 -14q74 -233 178 -534 q19 -55 42 -74.5t57.5 -25.5t34.5 -23q0 -10 -29 -10l-139 6l-105 -1q-29 0 -29 12q0 14 33 19q61 10 61 45q0 30 -38 157q-3 11 -27 11h-191q-11 0 -17 -18q-40 -116 -40 -138t16.5 -37t45.5 -22.5t29 -18.5t-29 -11zM333 542l-90 -240q-2 -6 -2 -8q0 -7 21 -7h155 q14 0 14 5q0 2 -2 10l-79 239q-6 18 -8.5 18t-8.5 -17z" />
<glyph unicode="&#xc1;" horiz-adv-x="684" d="M331 697q-6 0 -6 7q0 14 82 133q9 13 25 13t38 -7t22 -15t-13 -20q-45 -38 -130 -102q-12 -9 -18 -9zM147 1l-120 -6q-29 0 -29 12.5t33 23.5q60 18 86 77q96 220 187 470q13 33 13 45.5t1 12.5q36 12 42 19.5t8 11.5q4 9 7 9q5 0 10 -14q74 -233 178 -534 q19 -55 42 -74.5t57.5 -25.5t34.5 -23q0 -10 -29 -10l-139 6l-105 -1q-29 0 -29 12q0 14 33 19q61 10 61 45q0 30 -38 157q-3 11 -27 11h-191q-11 0 -17 -18q-40 -116 -40 -138t16.5 -37t45.5 -22.5t29 -18.5t-29 -11zM333 542l-90 -240q-2 -6 -2 -8q0 -7 21 -7h155 q14 0 14 5q0 2 -2 10l-79 239q-6 18 -8.5 18t-8.5 -17z" />
<glyph unicode="&#xc2;" horiz-adv-x="684" d="M285.5 722q-44.5 -21 -56.5 -21t-12 10q0 6 7 12l98 88q25 22 41 22t41 -22l98 -88q6 -5 6 -12q0 -11 -11.5 -11t-55.5 21t-61 31t-27 4q-23 -13 -67.5 -34zM147 1l-120 -6q-29 0 -29 12.5t33 23.5q60 18 86 77q96 220 187 470q13 33 13 45.5t1 12.5q36 12 42 19.5 t8 11.5q4 9 7 9q5 0 10 -14q74 -233 178 -534q19 -55 42 -74.5t57.5 -25.5t34.5 -23q0 -10 -29 -10l-139 6l-105 -1q-29 0 -29 12q0 14 33 19q61 10 61 45q0 30 -38 157q-3 11 -27 11h-191q-11 0 -17 -18q-40 -116 -40 -138t16.5 -37t45.5 -22.5t29 -18.5t-29 -11zM333 542 l-90 -240q-2 -6 -2 -8q0 -7 21 -7h155q14 0 14 5q0 2 -2 10l-79 239q-6 18 -8.5 18t-8.5 -17z" />
<glyph unicode="&#xc3;" horiz-adv-x="684" d="M312 801l116 -11q20 0 38.5 19.5t21.5 19.5q17 0 17 -20.5t-28 -51t-55 -30.5l-121 9q-20 0 -37.5 -20.5t-19.5 -20.5q-7 0 -13 5t-6 12q0 26 30 57.5t57 31.5zM147 1l-120 -6q-29 0 -29 12.5t33 23.5q60 18 86 77q96 220 187 470q13 33 13 45.5t1 12.5q36 12 42 19.5 t8 11.5q4 9 7 9q5 0 10 -14q74 -233 178 -534q19 -55 42 -74.5t57.5 -25.5t34.5 -23q0 -10 -29 -10l-139 6l-105 -1q-29 0 -29 12q0 14 33 19q61 10 61 45q0 30 -38 157q-3 11 -27 11h-191q-11 0 -17 -18q-40 -116 -40 -138t16.5 -37t45.5 -22.5t29 -18.5t-29 -11zM333 542 l-90 -240q-2 -6 -2 -8q0 -7 21 -7h155q14 0 14 5q0 2 -2 10l-79 239q-6 18 -8.5 18t-8.5 -17z" />
<glyph unicode="&#xc4;" horiz-adv-x="684" d="M460 801q21 0 35.5 -14.5t14.5 -35.5t-14.5 -35.5t-35.5 -14.5t-35.5 14.5t-14.5 35.5t14.5 35.5t35.5 14.5zM265 801q21 0 35.5 -14.5t14.5 -35.5t-14.5 -35.5t-35.5 -14.5t-35.5 14.5t-14.5 35.5t14.5 35.5t35.5 14.5zM147 1l-120 -6q-29 0 -29 12.5t33 23.5 q60 18 86 77q96 220 187 470q13 33 13 45.5t1 12.5q36 12 42 19.5t8 11.5q4 9 7 9q5 0 10 -14q74 -233 178 -534q19 -55 42 -74.5t57.5 -25.5t34.5 -23q0 -10 -29 -10l-139 6l-105 -1q-29 0 -29 12q0 14 33 19q61 10 61 45q0 30 -38 157q-3 11 -27 11h-191q-11 0 -17 -18 q-40 -116 -40 -138t16.5 -37t45.5 -22.5t29 -18.5t-29 -11zM333 542l-90 -240q-2 -6 -2 -8q0 -7 21 -7h155q14 0 14 5q0 2 -2 10l-79 239q-6 18 -8.5 18t-8.5 -17z" />
<glyph unicode="&#xc5;" horiz-adv-x="684" d="M301.5 839.5q27.5 24.5 65 24.5t61.5 -21t24 -57t-27.5 -61t-64 -25t-61.5 21.5t-25 57.5t27.5 60.5zM325.5 823q-13.5 -18 -13.5 -41.5t16 -41.5t38.5 -18t35 18.5t12.5 42t-15.5 41t-37.5 17.5t-35.5 -18zM147 1l-120 -6q-29 0 -29 12.5t33 23.5q60 18 86 77 q96 220 187 470q13 33 13 45.5t1 12.5q36 12 42 19.5t8 11.5q4 9 7 9q5 0 10 -14q74 -233 178 -534q19 -55 42 -74.5t57.5 -25.5t34.5 -23q0 -10 -29 -10l-139 6l-105 -1q-29 0 -29 12q0 14 33 19q61 10 61 45q0 30 -38 157q-3 11 -27 11h-191q-11 0 -17 -18 q-40 -116 -40 -138t16.5 -37t45.5 -22.5t29 -18.5t-29 -11zM333 542l-90 -240q-2 -6 -2 -8q0 -7 21 -7h155q14 0 14 5q0 2 -2 10l-79 239q-6 18 -8.5 18t-8.5 -17z" />
<glyph unicode="&#xc6;" horiz-adv-x="866" d="M475 648l301 5h8q17 0 18 -9q11 -58 12 -103q0 -9 -11 -9t-14 10q-12 36 -23 49q-24 27 -67 27h-131q-11 0 -23 -7t-12 -19v-238q0 -9 5 -15.5t12 -6.5q48 0 88 2t51.5 12.5t15.5 19.5t10.5 15.5t10 6.5t8.5 -5t3 -25.5t-2 -47t3 -70.5q0 -17 -9 -17q-16 0 -23 23 q-12 37 -50.5 39t-99.5 2q-23 0 -23 -23v-153q0 -31 16.5 -53.5t48.5 -22.5h104q8 0 38 6t38 12q19 15 42 63q6 11 16.5 9.5t10.5 -10.5q0 -37 -17 -103q-4 -17 -14 -17l-304 6h-20l-115 -6q-29 0 -29 11.5t35.5 18t53 22.5t17.5 49v171q0 9 -4 13.5t-18 4.5h-141 q-18 0 -30 -23q-36 -61 -82 -150q-9 -16 -9 -30q0 -36 65 -52q33 -9 33 -20t-29 -11l-89 2l-126 -6q-29 0 -29 11.5t29 20t58 36t50 63.5l273 468q4 6 -1.5 11t-15.5 6l-88 15q-10 4 -10 14.5t10 10.5zM438 581l-136 -238q-4 -7 -4 -11t16 -4h124q12 0 14 2t2 13v237 q0 18 -3.5 18t-12.5 -17z" />
<glyph unicode="&#xc7;" horiz-adv-x="640" d="M378 -129l-26 -3q-12 0 -19 6t-7 12t6 14l80 108h31l-41 -62q-7 -9 14.5 -18t41.5 -32t20 -55q0 -47 -45 -81.5t-87 -34.5t-42 32q0 34 16 34q2 0 8 -3q16 -10 44 -10q53 0 53 39q0 21 -11.5 37.5t-35.5 16.5zM620 138q-9 -75 -34 -112q-4 -7 -58.5 -24t-158.5 -17 q-135 0 -229 100t-94 240.5t108 239t256 98.5q70 0 106 -12t76 -18q11 -1 15.5 -42.5t5.5 -73t-1.5 -39.5t-9.5 -7q-20 2 -26 37q-6 46 -35 73q-51 51 -152.5 51t-172 -85.5t-70.5 -199.5q0 -83 30 -158t89.5 -124t134.5 -49q124 0 186 121q4 7 14 12.5t11 6.5t2 1 q7 0 7 -19z" />
<glyph unicode="&#xc8;" horiz-adv-x="535" d="M319 698q-6 0 -18 9q-85 64 -130 102q-13 12 -13 20t22 15t38 7t25 -13q82 -119 82 -134q0 -6 -6 -6zM413 337l2 -68q0 -17 -9 -17q-16 0 -23 23q-15 45 -46 45h-93q-19 0 -26.5 -5t-7.5 -21v-192q0 -37 15.5 -52t50.5 -15h104q53 0 74 16.5t44 64.5q6 11 16.5 9.5 t10.5 -10.5q0 -40 -17 -103q-4 -17 -14 -17l-327 6l-115 -6q-29 0 -29 11.5t36 18t53.5 23t17.5 51.5v450q0 35 -14.5 50.5t-50 22t-35.5 20.5q0 11 29 11l177 -3l222 3q17 0 18 -9q15 -81 15 -99.5t-14 -18.5q-8 0 -11 10q-15 47 -22 55q-24 27 -67 27h-131q-10 0 -23 -9.5 t-13 -22.5v-212q0 -9 5.5 -15.5t12.5 -6.5h96q44 0 61 39q2 4 8.5 10.5t10 6.5t8 -4.5t4.5 -11.5z" />
<glyph unicode="&#xc9;" horiz-adv-x="535" d="M255 698q-6 0 -6 7q0 14 82 133q9 13 25 13t38 -7t22 -15t-13 -20q-45 -38 -130 -102q-12 -9 -18 -9zM413 337l2 -68q0 -17 -9 -17q-16 0 -23 23q-15 45 -46 45h-93q-19 0 -26.5 -5t-7.5 -21v-192q0 -37 15.5 -52t50.5 -15h104q53 0 74 16.5t44 64.5q6 11 16.5 9.5 t10.5 -10.5q0 -40 -17 -103q-4 -17 -14 -17l-327 6l-115 -6q-29 0 -29 11.5t36 18t53.5 23t17.5 51.5v450q0 35 -14.5 50.5t-50 22t-35.5 20.5q0 11 29 11l177 -3l222 3q17 0 18 -9q15 -81 15 -99.5t-14 -18.5q-8 0 -11 10q-15 47 -22 55q-24 27 -67 27h-131q-10 0 -23 -9.5 t-13 -22.5v-212q0 -9 5.5 -15.5t12.5 -6.5h96q44 0 61 39q2 4 8.5 10.5t10 6.5t8 -4.5t4.5 -11.5z" />
<glyph unicode="&#xca;" horiz-adv-x="535" d="M209.5 723q-44.5 -21 -56.5 -21t-12 10q0 6 7 12l98 88q25 22 41 22t41 -22l98 -88q6 -5 6 -12q0 -11 -11.5 -11t-55.5 21t-61 31t-27 4q-23 -13 -67.5 -34zM413 337l2 -68q0 -17 -9 -17q-16 0 -23 23q-15 45 -46 45h-93q-19 0 -26.5 -5t-7.5 -21v-192q0 -37 15.5 -52 t50.5 -15h104q53 0 74 16.5t44 64.5q6 11 16.5 9.5t10.5 -10.5q0 -40 -17 -103q-4 -17 -14 -17l-327 6l-115 -6q-29 0 -29 11.5t36 18t53.5 23t17.5 51.5v450q0 35 -14.5 50.5t-50 22t-35.5 20.5q0 11 29 11l177 -3l222 3q17 0 18 -9q15 -81 15 -99.5t-14 -18.5q-8 0 -11 10 q-15 47 -22 55q-24 27 -67 27h-131q-10 0 -23 -9.5t-13 -22.5v-212q0 -9 5.5 -15.5t12.5 -6.5h96q44 0 61 39q2 4 8.5 10.5t10 6.5t8 -4.5t4.5 -11.5z" />
<glyph unicode="&#xcb;" horiz-adv-x="535" d="M384 802q21 0 35.5 -14.5t14.5 -35.5t-14.5 -35.5t-35.5 -14.5t-35.5 14.5t-14.5 35.5t14.5 35.5t35.5 14.5zM189 802q21 0 35.5 -14.5t14.5 -35.5t-14.5 -35.5t-35.5 -14.5t-35.5 14.5t-14.5 35.5t14.5 35.5t35.5 14.5zM413 337l2 -68q0 -17 -9 -17q-16 0 -23 23 q-15 45 -46 45h-93q-19 0 -26.5 -5t-7.5 -21v-192q0 -37 15.5 -52t50.5 -15h104q53 0 74 16.5t44 64.5q6 11 16.5 9.5t10.5 -10.5q0 -40 -17 -103q-4 -17 -14 -17l-327 6l-115 -6q-29 0 -29 11.5t36 18t53.5 23t17.5 51.5v450q0 35 -14.5 50.5t-50 22t-35.5 20.5q0 11 29 11 l177 -3l222 3q17 0 18 -9q15 -81 15 -99.5t-14 -18.5q-8 0 -11 10q-15 47 -22 55q-24 27 -67 27h-131q-10 0 -23 -9.5t-13 -22.5v-212q0 -9 5.5 -15.5t12.5 -6.5h96q44 0 61 39q2 4 8.5 10.5t10 6.5t8 -4.5t4.5 -11.5z" />
<glyph unicode="&#xcc;" horiz-adv-x="340" d="M213 697q-6 0 -18 9q-85 64 -130 102q-13 12 -13 20t22 15t38 7t25 -13q82 -119 82 -134q0 -6 -6 -6zM176 0l-128 -5q-29 0 -29 11.5t36.5 18t55.5 23t19 50.5v452q0 35 -14.5 50t-50 21.5t-35.5 20.5q0 11 29 11l117 -3l109 3q29 0 29 -11q0 -14 -36 -20.5t-52 -22 t-16 -49.5v-452q0 -34 19.5 -50.5t56 -23t36.5 -18t-29 -11.5z" />
<glyph unicode="&#xcd;" horiz-adv-x="340" d="M149 697q-6 0 -6 7q0 14 82 133q9 13 25 13t38 -7t22 -15t-13 -20q-45 -38 -130 -102q-12 -9 -18 -9zM176 0l-128 -5q-29 0 -29 11.5t36.5 18t55.5 23t19 50.5v452q0 35 -14.5 50t-50 21.5t-35.5 20.5q0 11 29 11l117 -3l109 3q29 0 29 -11q0 -14 -36 -20.5t-52 -22 t-16 -49.5v-452q0 -34 19.5 -50.5t56 -23t36.5 -18t-29 -11.5z" />
<glyph unicode="&#xce;" horiz-adv-x="340" d="M103.5 722q-44.5 -21 -56.5 -21t-12 10q0 6 7 12l98 88q25 22 41 22t41 -22l98 -88q6 -5 6 -12q0 -11 -11.5 -11t-55.5 21t-61 31t-27 4q-23 -13 -67.5 -34zM176 0l-128 -5q-29 0 -29 11.5t36.5 18t55.5 23t19 50.5v452q0 35 -14.5 50t-50 21.5t-35.5 20.5q0 11 29 11 l117 -3l109 3q29 0 29 -11q0 -14 -36 -20.5t-52 -22t-16 -49.5v-452q0 -34 19.5 -50.5t56 -23t36.5 -18t-29 -11.5z" />
<glyph unicode="&#xcf;" horiz-adv-x="340" d="M278 801q21 0 35.5 -14.5t14.5 -35.5t-14.5 -35.5t-35.5 -14.5t-35.5 14.5t-14.5 35.5t14.5 35.5t35.5 14.5zM83 801q21 0 35.5 -14.5t14.5 -35.5t-14.5 -35.5t-35.5 -14.5t-35.5 14.5t-14.5 35.5t14.5 35.5t35.5 14.5zM176 0l-128 -5q-29 0 -29 11.5t36.5 18t55.5 23 t19 50.5v452q0 35 -14.5 50t-50 21.5t-35.5 20.5q0 11 29 11l117 -3l109 3q29 0 29 -11q0 -14 -36 -20.5t-52 -22t-16 -49.5v-452q0 -34 19.5 -50.5t56 -23t36.5 -18t-29 -11.5z" />
<glyph unicode="&#xd0;" horiz-adv-x="754" d="M317 28l59 2q73 0 127.5 48t80 118.5t25.5 149.5q0 120 -74 201t-190 81q-94 0 -113 -14q-22 -15 -22 -47v-214h167q5 0 9.5 -3.5t4.5 -7.5l-1 -1v-2q-12 -22 -31 -22h-149v-196q0 -28 8.5 -42.5t32 -32.5t66.5 -18zM169 651l171 8q194 0 279 -84.5t85 -232.5 t-95.5 -248.5t-237.5 -100.5q-3 0 -82 3.5t-126 3.5l-105 -5q-29 0 -29 11.5t35.5 18t50 22.5t14.5 52v218h-69q-6 0 -10 6t-4 12.5t7.5 12t16.5 5.5h59v196q0 35 -14.5 50.5t-50 22t-35.5 20.5q0 11 29 11l104 -2h7z" />
<glyph unicode="&#xd1;" horiz-adv-x="770" d="M360 801l116 -11q20 0 38.5 19.5t21.5 19.5q17 0 17 -20.5t-28 -51t-55 -30.5l-121 9q-20 0 -37.5 -20.5t-19.5 -20.5q-7 0 -13 5t-6 12q0 26 30 57.5t57 31.5zM25 658l154 -5q11 0 24 -17.5t187.5 -237t192.5 -241t26.5 -21.5t9.5 21q2 64 2 320v87q-1 18 -20.5 35 t-45 21.5t-25.5 18.5q0 11 29 11h57l115 3q29 0 29 -11q0 -14 -35 -20.5t-47.5 -17.5t-14 -47.5t-1.5 -548.5q0 -25 -21 -25q-11 0 -35 16.5t-48.5 50t-353.5 434.5q-13 16 -21.5 16t-8.5 -21q-5 -248 -5 -375q0 -68 64 -80q33 -6 33 -17.5t-29 -11.5l-94 5l-91 -5 q-29 0 -29 11.5t28.5 16.5t44 34.5t18.5 49.5q18 150 18 400q0 49 -24.5 73t-65 37t-40.5 27t23 14z" />
<glyph unicode="&#xd2;" horiz-adv-x="763" d="M415 697q-6 0 -18 9q-85 64 -130 102q-13 12 -13 20t22 15t38 7t25 -13q82 -119 82 -134q0 -6 -6 -6zM557 538q-64 87 -176 87t-175.5 -82t-63.5 -203.5t72.5 -218t181.5 -96.5t167 74.5t58 213t-64 225.5zM45 320q0 93 38.5 169.5t118.5 125.5t188 49q134 0 231 -92.5 t97 -236.5q0 -141 -86 -242q-41 -49 -106 -78t-144 -29q-135 0 -236 97t-101 237z" />
<glyph unicode="&#xd3;" horiz-adv-x="763" d="M351 697q-6 0 -6 7q0 14 82 133q9 13 25 13t38 -7t22 -15t-13 -20q-45 -38 -130 -102q-12 -9 -18 -9zM557 538q-64 87 -176 87t-175.5 -82t-63.5 -203.5t72.5 -218t181.5 -96.5t167 74.5t58 213t-64 225.5zM45 320q0 93 38.5 169.5t118.5 125.5t188 49q134 0 231 -92.5 t97 -236.5q0 -141 -86 -242q-41 -49 -106 -78t-144 -29q-135 0 -236 97t-101 237z" />
<glyph unicode="&#xd4;" horiz-adv-x="763" d="M305.5 722q-44.5 -21 -56.5 -21t-12 10q0 6 7 12l98 88q25 22 41 22t41 -22l98 -88q6 -5 6 -12q0 -11 -11.5 -11t-55.5 21t-61 31t-27 4q-23 -13 -67.5 -34zM557 538q-64 87 -176 87t-175.5 -82t-63.5 -203.5t72.5 -218t181.5 -96.5t167 74.5t58 213t-64 225.5zM45 320 q0 93 38.5 169.5t118.5 125.5t188 49q134 0 231 -92.5t97 -236.5q0 -141 -86 -242q-41 -49 -106 -78t-144 -29q-135 0 -236 97t-101 237z" />
<glyph unicode="&#xd5;" horiz-adv-x="763" d="M332 801l116 -11q20 0 38.5 19.5t21.5 19.5q17 0 17 -20.5t-28 -51t-55 -30.5l-121 9q-20 0 -37.5 -20.5t-19.5 -20.5q-7 0 -13 5t-6 12q0 26 30 57.5t57 31.5zM557 538q-64 87 -176 87t-175.5 -82t-63.5 -203.5t72.5 -218t181.5 -96.5t167 74.5t58 213t-64 225.5z M45 320q0 93 38.5 169.5t118.5 125.5t188 49q134 0 231 -92.5t97 -236.5q0 -141 -86 -242q-41 -49 -106 -78t-144 -29q-135 0 -236 97t-101 237z" />
<glyph unicode="&#xd6;" horiz-adv-x="763" d="M480 801q21 0 35.5 -14.5t14.5 -35.5t-14.5 -35.5t-35.5 -14.5t-35.5 14.5t-14.5 35.5t14.5 35.5t35.5 14.5zM285 801q21 0 35.5 -14.5t14.5 -35.5t-14.5 -35.5t-35.5 -14.5t-35.5 14.5t-14.5 35.5t14.5 35.5t35.5 14.5zM557 538q-64 87 -176 87t-175.5 -82t-63.5 -203.5 t72.5 -218t181.5 -96.5t167 74.5t58 213t-64 225.5zM45 320q0 93 38.5 169.5t118.5 125.5t188 49q134 0 231 -92.5t97 -236.5q0 -141 -86 -242q-41 -49 -106 -78t-144 -29q-135 0 -236 97t-101 237z" />
<glyph unicode="&#xd7;" horiz-adv-x="600" d="M290 299q4 -4 7 -1l144 143q5 5 10.5 5t8.5 -5q17 -32 17 -40t-7 -15l-131 -131q-3 -3 0 -5l143 -143q5 -5 5 -15t-10.5 -24.5t-18 -14.5t-11.5 4l-149 150q-4 3 -7 0l-143 -143q-4 -4 -9.5 -4t-8.5 3q-22 22 -22 34t5 17l134 134q5 4 -1 10l-121 121q-5 5 -5 19.5 t16 35.5q10 10 19 0z" />
<glyph unicode="&#xd8;" horiz-adv-x="773" d="M380 625q-106 0 -169.5 -82t-63.5 -192.5t44 -189.5l377 368q-65 96 -188 96zM86 -11q-3 -3 -11.5 -3t-17 6.5t-8.5 15t10 18.5l75 74q-84 94 -84 220q0 93 38.5 169.5t118.5 125.5t188 49q130 0 224 -85l80 79q5 5 13 4q14 -2 14 -18t-7 -23l-72 -72q76 -89 76 -214 q0 -141 -85 -242q-42 -49 -107 -78t-144 -29q-124 0 -221 83zM589 492l-373 -369q75 -98 184.5 -98t167.5 74.5t58 196t-37 196.5z" />
<glyph unicode="&#xd9;" horiz-adv-x="738" d="M422 697q-6 0 -18 9q-85 64 -130 102q-13 12 -13 20t22 15t38 7t25 -13q82 -119 82 -134q0 -6 -6 -6zM618 650l81 3q29 0 29 -11q0 -13 -33 -20q-47 -9 -50 -75q-1 -11 -10 -297q-4 -116 -75.5 -190t-179.5 -74q-142 0 -209.5 73.5t-67.5 221.5v266q0 60 -46 73 q-33 9 -33 22q0 11 29 11l96 -3l80 2q29 0 29 -11q0 -9 -33 -20q-14 -4 -28 -24.5t-14 -47.5v-296q0 -90 64.5 -153.5t156.5 -63.5t140 69.5t48 190.5q0 61 -4 215q-2 98 -41 109q-33 9 -33 20t29 11z" />
<glyph unicode="&#xda;" horiz-adv-x="738" d="M358 697q-6 0 -6 7q0 14 82 133q9 13 25 13t38 -7t22 -15t-13 -20q-45 -38 -130 -102q-12 -9 -18 -9zM618 650l81 3q29 0 29 -11q0 -13 -33 -20q-47 -9 -50 -75q-1 -11 -10 -297q-4 -116 -75.5 -190t-179.5 -74q-142 0 -209.5 73.5t-67.5 221.5v266q0 60 -46 73 q-33 9 -33 22q0 11 29 11l96 -3l80 2q29 0 29 -11q0 -9 -33 -20q-14 -4 -28 -24.5t-14 -47.5v-296q0 -90 64.5 -153.5t156.5 -63.5t140 69.5t48 190.5q0 61 -4 215q-2 98 -41 109q-33 9 -33 20t29 11z" />
<glyph unicode="&#xdb;" horiz-adv-x="738" d="M312.5 722q-44.5 -21 -56.5 -21t-12 10q0 6 7 12l98 88q25 22 41 22t41 -22l98 -88q6 -5 6 -12q0 -11 -11.5 -11t-55.5 21t-61 31t-27 4q-23 -13 -67.5 -34zM618 650l81 3q29 0 29 -11q0 -13 -33 -20q-47 -9 -50 -75q-1 -11 -10 -297q-4 -116 -75.5 -190t-179.5 -74 q-142 0 -209.5 73.5t-67.5 221.5v266q0 60 -46 73q-33 9 -33 22q0 11 29 11l96 -3l80 2q29 0 29 -11q0 -9 -33 -20q-14 -4 -28 -24.5t-14 -47.5v-296q0 -90 64.5 -153.5t156.5 -63.5t140 69.5t48 190.5q0 61 -4 215q-2 98 -41 109q-33 9 -33 20t29 11z" />
<glyph unicode="&#xdc;" horiz-adv-x="738" d="M487 801q21 0 35.5 -14.5t14.5 -35.5t-14.5 -35.5t-35.5 -14.5t-35.5 14.5t-14.5 35.5t14.5 35.5t35.5 14.5zM292 801q21 0 35.5 -14.5t14.5 -35.5t-14.5 -35.5t-35.5 -14.5t-35.5 14.5t-14.5 35.5t14.5 35.5t35.5 14.5zM618 650l81 3q29 0 29 -11q0 -13 -33 -20 q-47 -9 -50 -75q-1 -11 -10 -297q-4 -116 -75.5 -190t-179.5 -74q-142 0 -209.5 73.5t-67.5 221.5v266q0 60 -46 73q-33 9 -33 22q0 11 29 11l96 -3l80 2q29 0 29 -11q0 -9 -33 -20q-14 -4 -28 -24.5t-14 -47.5v-296q0 -90 64.5 -153.5t156.5 -63.5t140 69.5t48 190.5 q0 61 -4 215q-2 98 -41 109q-33 9 -33 20t29 11z" />
<glyph unicode="&#xdd;" horiz-adv-x="578" d="M288 697q-6 0 -6 7q0 14 82 133q9 13 25 13t38 -7t22 -15t-13 -20q-45 -38 -130 -102q-12 -9 -18 -9zM310 0l-128 -5q-29 0 -29 11.5t33 17.5q78 14 78 84v148q0 29 -25 74l-117 192q-55 88 -88.5 98t-33.5 21.5t29 11.5l117 -3l80 2q29 0 29 -11q0 -13 -32.5 -20.5 t-32.5 -24.5q0 -13 13 -36l92 -165q22 -38 28 -38q17 0 117 177q18 30 18 51q0 29 -41 35q-11 2 -22 8t-11 12q0 11 29 11l75 -1l104 3q29 0 29 -10.5t-53 -25.5q-24 -7 -40 -25q-41 -44 -159 -246q-18 -31 -21.5 -45t-3.5 -45v-148q0 -34 20.5 -55.5t56 -28t35.5 -18 t-29 -11.5z" />
<glyph unicode="&#xde;" horiz-adv-x="559" d="M177 650l119 3q29 0 29 -11q0 -14 -36.5 -20.5t-55.5 -22.5t-19 -50v-17q0 -20 6 -20q2 0 12 2l11 3q27 7 72 7q87 0 145 -46t58 -131q0 -36 -23.5 -86.5t-55.5 -75t-85 -38t-98 -13.5l-34 3q-8 0 -8 -9v-32q0 -58 79 -72q33 -6 33 -17.5t-29 -11.5l-117 5l-129 -5 q-29 0 -29 11.5t36.5 18t56 23.5t19.5 51v450q0 33 -11 50t-45 23t-34 20q0 11 29 11zM212 300l1 -117q0 -6 9 -11q14 -9 43 -9q62 0 97 26q64 47 64 146q0 61 -36 108.5t-91 47.5h-10q-22 0 -35 -1t-26 -8t-14 -20q-2 -120 -2 -162z" />
<glyph unicode="&#xdf;" horiz-adv-x="505" d="M126 2l-78 -5q-23 0 -23 9.5t23 17.5q42 13 42 45v281q-31 0 -52 2q-3 1 -7 6.5t-4 10.5t4 7q23 6 59 26q0 82 21.5 144t55.5 95q67 65 135.5 65t110.5 -40t42 -94.5t-46 -98.5l-33 -30q-4 -5 -16 -15.5t-18 -17.5q-17 -18 -17 -43.5t19 -43.5l93 -90q38 -39 38 -88.5 t-34.5 -88.5t-63 -53.5t-77.5 -14.5q-15 0 -36.5 12.5t-21.5 28.5t8.5 35.5t20.5 19.5q3 0 9 -4q46 -36 86 -36q23 0 40 13t17 35.5t-9 39t-19.5 28t-37.5 36.5l-70 68q-41 38 -41 72q0 21 14.5 39t45.5 43t45 40q41 43 41 92t-26 82t-93 33q-50 0 -81.5 -47t-31.5 -143 v-406q0 -32 42 -45q23 -8 23 -17.5t-23 -9.5z" />
<glyph unicode="&#xe0;" horiz-adv-x="399" d="M142 631q81 -141 81 -158t-9.5 -17t-35 27.5t-69 80.5t-43.5 62q0 23 49 23q16 0 27 -18zM115 87q0 -26 16 -40.5t39 -14.5t54 27q11 9 12 40l2 49q1 21 -9 21q-7 0 -14 -3q-100 -34 -100 -79zM116 314l1 -14q0 -9 -28.5 -22t-38.5 -13t-10 9q0 34 34.5 64.5t76.5 53 t77.5 22.5t59.5 -26t23 -63l-5 -216v-6q0 -71 36 -71q25 0 40 14q4 4 10 0.5t6 -9.5v-1q-6 -13 -31 -31.5t-49.5 -18.5t-41 13t-23.5 26t-9 13q-4 0 -18 -13t-41.5 -26t-61 -13t-61 25t-27.5 54q0 60 73 90l102 42q19 8 23 14t5 26l2 62v2q0 26 -16.5 45t-38 19t-40.5 -10.5 t-24 -19.5t-5 -21z" />
<glyph unicode="&#xe1;" horiz-adv-x="399" d="M272.5 564q-43.5 -53 -69 -80.5t-35 -27.5t-9.5 17t81 158q11 18 27 18q49 0 49 -23q0 -9 -43.5 -62zM115 87q0 -26 16 -40.5t39 -14.5t54 27q11 9 12 40l2 49q1 21 -9 21q-7 0 -14 -3q-100 -34 -100 -79zM116 314l1 -14q0 -9 -28.5 -22t-38.5 -13t-10 9q0 34 34.5 64.5 t76.5 53t77.5 22.5t59.5 -26t23 -63l-5 -216v-6q0 -71 36 -71q25 0 40 14q4 4 10 0.5t6 -9.5v-1q-6 -13 -31 -31.5t-49.5 -18.5t-41 13t-23.5 26t-9 13q-4 0 -18 -13t-41.5 -26t-61 -13t-61 25t-27.5 54q0 60 73 90l102 42q19 8 23 14t5 26l2 62v2q0 26 -16.5 45t-38 19 t-40.5 -10.5t-24 -19.5t-5 -21z" />
<glyph unicode="&#xe2;" horiz-adv-x="399" d="M188 553q-30 -36 -66 -84q-17 -22 -30 -22q-9 0 -9 11.5t33.5 74t49 89t25.5 26.5t26 -27t49.5 -89t33.5 -73.5t-12 -11.5t-27 22q-18 24 -66 84q-4 5 -7 0zM115 87q0 -26 16 -40.5t39 -14.5t54 27q11 9 12 40l2 49q1 21 -9 21q-7 0 -14 -3q-100 -34 -100 -79zM116 314 l1 -14q0 -9 -28.5 -22t-38.5 -13t-10 9q0 34 34.5 64.5t76.5 53t77.5 22.5t59.5 -26t23 -63l-5 -216v-6q0 -71 36 -71q25 0 40 14q4 4 10 0.5t6 -9.5v-1q-6 -13 -31 -31.5t-49.5 -18.5t-41 13t-23.5 26t-9 13q-4 0 -18 -13t-41.5 -26t-61 -13t-61 25t-27.5 54q0 60 73 90 l102 42q19 8 23 14t5 26l2 62v2q0 26 -16.5 45t-38 19t-40.5 -10.5t-24 -19.5t-5 -21z" />
<glyph unicode="&#xe3;" horiz-adv-x="399" d="M248 500l-112 7q-15 0 -35 -18.5t-22 -18.5q-14 0 -14 20q0 10 35.5 47t52.5 37l107 -8q21 0 38.5 17t18.5 17q16 0 16 -17q0 -10 -34 -46.5t-51 -36.5zM115 87q0 -26 16 -40.5t39 -14.5t54 27q11 9 12 40l2 49q1 21 -9 21q-7 0 -14 -3q-100 -34 -100 -79zM116 314l1 -14 q0 -9 -28.5 -22t-38.5 -13t-10 9q0 34 34.5 64.5t76.5 53t77.5 22.5t59.5 -26t23 -63l-5 -216v-6q0 -71 36 -71q25 0 40 14q4 4 10 0.5t6 -9.5v-1q-6 -13 -31 -31.5t-49.5 -18.5t-41 13t-23.5 26t-9 13q-4 0 -18 -13t-41.5 -26t-61 -13t-61 25t-27.5 54q0 60 73 90l102 42 q19 8 23 14t5 26l2 62v2q0 26 -16.5 45t-38 19t-40.5 -10.5t-24 -19.5t-5 -21z" />
<glyph unicode="&#xe4;" horiz-adv-x="399" d="M284 593q19 0 34.5 -15.5t15.5 -34.5t-15.5 -34.5t-34.5 -15.5t-34.5 15.5t-15.5 34.5t15.5 34.5t34.5 15.5zM107 593q19 0 34.5 -15.5t15.5 -34.5t-15.5 -34.5t-34.5 -15.5t-34.5 15.5t-15.5 34.5t15.5 34.5t34.5 15.5zM115 87q0 -26 16 -40.5t39 -14.5t54 27 q11 9 12 40l2 49q1 21 -9 21q-7 0 -14 -3q-100 -34 -100 -79zM116 314l1 -14q0 -9 -28.5 -22t-38.5 -13t-10 9q0 34 34.5 64.5t76.5 53t77.5 22.5t59.5 -26t23 -63l-5 -216v-6q0 -71 36 -71q25 0 40 14q4 4 10 0.5t6 -9.5v-1q-6 -13 -31 -31.5t-49.5 -18.5t-41 13t-23.5 26 t-9 13q-4 0 -18 -13t-41.5 -26t-61 -13t-61 25t-27.5 54q0 60 73 90l102 42q19 8 23 14t5 26l2 62v2q0 26 -16.5 45t-38 19t-40.5 -10.5t-24 -19.5t-5 -21z" />
<glyph unicode="&#xe5;" horiz-adv-x="399" d="M195 647q33 0 57 -22.5t24 -58t-26.5 -61t-60 -25.5t-57.5 25t-24 58t27 58.5t60 25.5zM149 568q0 -25 13.5 -43.5t33.5 -18.5q39 0 39 56q0 22 -14.5 40t-34.5 18q-37 0 -37 -52zM115 87q0 -26 16 -40.5t39 -14.5t54 27q11 9 12 40l2 49q1 21 -9 21q-7 0 -14 -3 q-100 -34 -100 -79zM116 314l1 -14q0 -9 -28.5 -22t-38.5 -13t-10 9q0 34 34.5 64.5t76.5 53t77.5 22.5t59.5 -26t23 -63l-5 -216v-6q0 -71 36 -71q25 0 40 14q4 4 10 0.5t6 -9.5v-1q-6 -13 -31 -31.5t-49.5 -18.5t-41 13t-23.5 26t-9 13q-4 0 -18 -13t-41.5 -26t-61 -13 t-61 25t-27.5 54q0 60 73 90l102 42q19 8 23 14t5 26l2 62v2q0 26 -16.5 45t-38 19t-40.5 -10.5t-24 -19.5t-5 -21z" />
<glyph unicode="&#xe6;" horiz-adv-x="544" d="M116 313l1 -14q0 -9 -28.5 -22t-38.5 -13t-10 9q0 34 34.5 64.5t76.5 53.5t78 23q15 0 36 -11t26 -20t13 -3q18 13 50.5 23t66.5 10t70.5 -25t36.5 -70q0 -15 -5.5 -21.5t-15 -11t-46.5 -21t-84.5 -37t-57.5 -25t-10 -17.5v-56q0 -83 88 -83q69 0 111 48q4 4 9 4 q13 0 13 -11q0 -3 -1 -4q-35 -51 -71.5 -74t-94.5 -23t-106 40q-12 12 -14.5 12t-5 -2.5t-12.5 -11t-17.5 -13t-20.5 -11.5q-26 -14 -61.5 -14t-63 25t-27.5 54q0 57 73 90l104 47q20 9 24.5 14t4.5 17v66q0 27 -16.5 46.5t-38.5 19.5t-41 -11t-24 -20t-5 -21zM310 321v-67 q0 -7 5 -9.5t21.5 4t62.5 23.5t53 19.5t7 13.5t-4 23q-20 50 -70 50q-18 0 -46 -17t-29 -40zM142.5 131q-26.5 -21 -27 -45.5t15.5 -39t40 -14.5t55 27q14 12 14 37v52q0 24 -8 24q-11 0 -37 -10t-52.5 -31z" />
<glyph unicode="&#xe7;" horiz-adv-x="377" d="M177 -123l-26 -6q-6 0 -12 4.5t-6 9t5 11.5l71 90h-3q-74 0 -122.5 57.5t-48.5 144.5t60.5 156t146 69t124.5 -48q5 -7 5 -15.5t-14.5 -19.5t-26.5 -11t-22 10q-27 29 -43 38t-51 9q-52 0 -81 -45t-29 -112.5t44.5 -124t114.5 -56.5q30 0 48.5 11.5t39.5 38.5q5 5 9 5 t8 -4.5t4 -9.5q0 -25 -38.5 -53t-90.5 -37l-25 -32q-4 -4 -4 -8q0 -9 18.5 -16t36 -27.5t17.5 -44.5q0 -54 -45.5 -94.5t-79.5 -40.5q-30 0 -30 41q0 9 4.5 14t8.5 5l16 -6q16 -6 37 -5q39 0 39 45q0 27 -16 42t-43 15z" />
<glyph unicode="&#xe8;" horiz-adv-x="388" d="M170 631q81 -141 81 -158t-9.5 -17t-35 27.5t-69 80.5t-43.5 62q0 23 49 23q16 0 27 -18zM229 414q60 0 94.5 -25t34.5 -68t-21.5 -53.5t-55.5 -10.5h-164q-14 0 -19.5 -6.5t-5.5 -30.5q0 -70 43 -122t105.5 -52t96.5 44q7 7 11 7q11 0 4 -26t-49.5 -55.5t-108.5 -29.5 t-115 60t-49 151.5t57.5 154t141.5 62.5zM270 366q-25 17 -60.5 17t-67 -28.5t-31.5 -51.5q0 -15 19 -15h82q47 0 73 5q10 1 10 28.5t-25 44.5z" />
<glyph unicode="&#xe9;" horiz-adv-x="388" d="M300.5 564q-43.5 -53 -69 -80.5t-35 -27.5t-9.5 17t81 158q11 18 27 18q49 0 49 -23q0 -9 -43.5 -62zM229 414q60 0 94.5 -25t34.5 -68t-21.5 -53.5t-55.5 -10.5h-164q-14 0 -19.5 -6.5t-5.5 -30.5q0 -70 43 -122t105.5 -52t96.5 44q7 7 11 7q11 0 4 -26t-49.5 -55.5 t-108.5 -29.5t-115 60t-49 151.5t57.5 154t141.5 62.5zM270 366q-25 17 -60.5 17t-67 -28.5t-31.5 -51.5q0 -15 19 -15h82q47 0 73 5q10 1 10 28.5t-25 44.5z" />
<glyph unicode="&#xea;" horiz-adv-x="388" d="M216 553q-30 -36 -66 -84q-17 -22 -30 -22q-9 0 -9 11.5t33.5 74t49 89t25.5 26.5t26 -27t49.5 -89t33.5 -73.5t-12 -11.5t-27 22q-18 24 -66 84q-4 5 -7 0zM229 414q60 0 94.5 -25t34.5 -68t-21.5 -53.5t-55.5 -10.5h-164q-14 0 -19.5 -6.5t-5.5 -30.5q0 -70 43 -122 t105.5 -52t96.5 44q7 7 11 7q11 0 4 -26t-49.5 -55.5t-108.5 -29.5t-115 60t-49 151.5t57.5 154t141.5 62.5zM270 366q-25 17 -60.5 17t-67 -28.5t-31.5 -51.5q0 -15 19 -15h82q47 0 73 5q10 1 10 28.5t-25 44.5z" />
<glyph unicode="&#xeb;" horiz-adv-x="388" d="M312 593q19 0 34.5 -15.5t15.5 -34.5t-15.5 -34.5t-34.5 -15.5t-34.5 15.5t-15.5 34.5t15.5 34.5t34.5 15.5zM135 593q19 0 34.5 -15.5t15.5 -34.5t-15.5 -34.5t-34.5 -15.5t-34.5 15.5t-15.5 34.5t15.5 34.5t34.5 15.5zM229 414q60 0 94.5 -25t34.5 -68t-21.5 -53.5 t-55.5 -10.5h-164q-14 0 -19.5 -6.5t-5.5 -30.5q0 -70 43 -122t105.5 -52t96.5 44q7 7 11 7q11 0 4 -26t-49.5 -55.5t-108.5 -29.5t-115 60t-49 151.5t57.5 154t141.5 62.5zM270 366q-25 17 -60.5 17t-67 -28.5t-31.5 -51.5q0 -15 19 -15h82q47 0 73 5q10 1 10 28.5 t-25 44.5z" />
<glyph unicode="&#xec;" horiz-adv-x="245" d="M66 631q81 -141 81 -158t-9.5 -17t-35 27.5t-69 80.5t-43.5 62q0 23 49 23q16 0 27 -18zM125 2l-81 -5q-20 0 -20 9.5t28 18.5t33 18.5t5 18.5v217q0 63 -47 73q-8 2 -8 12.5t7 12.5q49 12 102 47q16 10 18 10q7 0 7 -5q-9 -92 -9 -135v-232q0 -20 12 -26q13 -6 33.5 -13 t20.5 -16.5t-20 -9.5z" />
<glyph unicode="&#xed;" horiz-adv-x="245" d="M196.5 564q-43.5 -53 -69 -80.5t-35 -27.5t-9.5 17t81 158q11 18 27 18q49 0 49 -23q0 -9 -43.5 -62zM125 2l-81 -5q-20 0 -20 9.5t28 18.5t33 18.5t5 18.5v217q0 63 -47 73q-8 2 -8 12.5t7 12.5q49 12 102 47q16 10 18 10q7 0 7 -5q-9 -92 -9 -135v-232q0 -20 12 -26 q13 -6 33.5 -13t20.5 -16.5t-20 -9.5z" />
<glyph unicode="&#xee;" horiz-adv-x="245" d="M112 553q-30 -36 -66 -84q-17 -22 -30 -22q-9 0 -9 11.5t33.5 74t49 89t25.5 26.5t26 -27t49.5 -89t33.5 -73.5t-12 -11.5t-27 22q-18 24 -66 84q-4 5 -7 0zM125 2l-81 -5q-20 0 -20 9.5t28 18.5t33 18.5t5 18.5v217q0 63 -47 73q-8 2 -8 12.5t7 12.5q49 12 102 47 q16 10 18 10q7 0 7 -5q-9 -92 -9 -135v-232q0 -20 12 -26q13 -6 33.5 -13t20.5 -16.5t-20 -9.5z" />
<glyph unicode="&#xef;" horiz-adv-x="245" d="M208 593q19 0 34.5 -15.5t15.5 -34.5t-15.5 -34.5t-34.5 -15.5t-34.5 15.5t-15.5 34.5t15.5 34.5t34.5 15.5zM31 593q19 0 34.5 -15.5t15.5 -34.5t-15.5 -34.5t-34.5 -15.5t-34.5 15.5t-15.5 34.5t15.5 34.5t34.5 15.5zM125 2l-81 -5q-20 0 -20 9.5t28 18.5t33 18.5 t5 18.5v217q0 63 -47 73q-8 2 -8 12.5t7 12.5q49 12 102 47q16 10 18 10q7 0 7 -5q-9 -92 -9 -135v-232q0 -20 12 -26q13 -6 33.5 -13t20.5 -16.5t-20 -9.5z" />
<glyph unicode="&#xf0;" horiz-adv-x="487" d="M337.5 337q-40.5 43 -102 43t-94.5 -51t-33 -123t42.5 -131t100 -59t92.5 64.5t35 139t-40.5 117.5zM456 250q0 -62 -24 -120.5t-77 -101t-131.5 -42.5t-138.5 56t-60 146.5t67 158t159 67.5q49 0 92 -23q7 -3 8.5 -1t-0.5 10q-28 104 -68 152l-155 -80q-6 -3 -10 0.5 t-4 7.5q0 31 8 35l132 69q-78 74 -170 94q-20 5 -20 15q0 12 26 12q47 0 106 -25t113 -68l101 53q7 5 15.5 5.5t9.5 -6.5q0 -33 -18 -42l-75 -39q114 -122 114 -333z" />
<glyph unicode="&#xf1;" horiz-adv-x="527" d="M315 500l-112 7q-15 0 -35 -18.5t-22 -18.5q-14 0 -14 20q0 10 35.5 47t52.5 37l107 -8q21 0 38.5 17t18.5 17q16 0 16 -17q0 -10 -34 -46.5t-51 -36.5zM405 2l-82 -5q-20 0 -20 9.5t23 17.5q1 0 4 1q33 10 38 27q1 5 1 10v210q0 43 -25 68t-73.5 25t-79.5 -21t-31 -76 v-206q0 -20 12 -26q13 -6 33.5 -13t20.5 -16.5t-20 -9.5l-81 5l-81 -5q-20 0 -20 9.5t16.5 15t19 6t10.5 4.5t10 7q10 11 10 23v215q0 64 -41 72q-8 2 -8 13t7 12q52 12 110 55q1 1 3.5 1t5.5 -9l-7 -65q0 -7 1 -8q28 23 75.5 44.5t92.5 21.5t77.5 -40t32.5 -99v-213 q0 -20 12 -26q13 -6 33.5 -13t20.5 -16.5t-20 -9.5z" />
<glyph unicode="&#xf2;" horiz-adv-x="495" d="M197 631q81 -141 81 -158t-9.5 -17t-35 27.5t-69 80.5t-43.5 62q0 23 49 23q16 0 27 -18zM237 383q-120 0 -120 -173q0 -77 40 -135.5t98 -58.5q75 0 103 55q20 39 20 116t-40 136.5t-101 59.5zM99.5 343.5q64.5 70.5 152.5 70.5t148 -59.5t60 -147.5t-59.5 -154.5 t-166.5 -66.5q-85 0 -142 57t-57 143.5t64.5 157z" />
<glyph unicode="&#xf3;" horiz-adv-x="495" d="M327.5 564q-43.5 -53 -69 -80.5t-35 -27.5t-9.5 17t81 158q11 18 27 18q49 0 49 -23q0 -9 -43.5 -62zM237 383q-120 0 -120 -173q0 -77 40 -135.5t98 -58.5q75 0 103 55q20 39 20 116t-40 136.5t-101 59.5zM99.5 343.5q64.5 70.5 152.5 70.5t148 -59.5t60 -147.5 t-59.5 -154.5t-166.5 -66.5q-85 0 -142 57t-57 143.5t64.5 157z" />
<glyph unicode="&#xf4;" horiz-adv-x="495" d="M243 553q-30 -36 -66 -84q-17 -22 -30 -22q-9 0 -9 11.5t33.5 74t49 89t25.5 26.5t26 -27t49.5 -89t33.5 -73.5t-12 -11.5t-27 22q-18 24 -66 84q-4 5 -7 0zM237 383q-120 0 -120 -173q0 -77 40 -135.5t98 -58.5q75 0 103 55q20 39 20 116t-40 136.5t-101 59.5z M99.5 343.5q64.5 70.5 152.5 70.5t148 -59.5t60 -147.5t-59.5 -154.5t-166.5 -66.5q-85 0 -142 57t-57 143.5t64.5 157z" />
<glyph unicode="&#xf5;" horiz-adv-x="495" d="M303 500l-112 7q-15 0 -35 -18.5t-22 -18.5q-14 0 -14 20q0 10 35.5 47t52.5 37l107 -8q21 0 38.5 17t18.5 17q16 0 16 -17q0 -10 -34 -46.5t-51 -36.5zM237 383q-120 0 -120 -173q0 -77 40 -135.5t98 -58.5q75 0 103 55q20 39 20 116t-40 136.5t-101 59.5zM99.5 343.5 q64.5 70.5 152.5 70.5t148 -59.5t60 -147.5t-59.5 -154.5t-166.5 -66.5q-85 0 -142 57t-57 143.5t64.5 157z" />
<glyph unicode="&#xf6;" horiz-adv-x="495" d="M339 593q19 0 34.5 -15.5t15.5 -34.5t-15.5 -34.5t-34.5 -15.5t-34.5 15.5t-15.5 34.5t15.5 34.5t34.5 15.5zM162 593q19 0 34.5 -15.5t15.5 -34.5t-15.5 -34.5t-34.5 -15.5t-34.5 15.5t-15.5 34.5t15.5 34.5t34.5 15.5zM237 383q-120 0 -120 -173q0 -77 40 -135.5 t98 -58.5q75 0 103 55q20 39 20 116t-40 136.5t-101 59.5zM99.5 343.5q64.5 70.5 152.5 70.5t148 -59.5t60 -147.5t-59.5 -154.5t-166.5 -66.5q-85 0 -142 57t-57 143.5t64.5 157z" />
<glyph unicode="&#xf7;" horiz-adv-x="590" d="M295 161q19 0 32.5 -13.5t13.5 -32.5t-13.5 -32.5t-32.5 -13.5t-32.5 13.5t-13.5 32.5t13.5 32.5t32.5 13.5zM261.5 431.5q13.5 13.5 33 13.5t32.5 -13.5t13 -32.5t-13.5 -32.5t-32.5 -13.5t-32.5 13.5t-13.5 32.5t13.5 32.5zM64 232q-5 0 -9.5 4t-4.5 11.5t6 21t18 13.5 h453q5 0 9.5 -3.5t4.5 -6t-2.5 -9.5t-4.5 -13q-9 -18 -25 -18h-445z" />
<glyph unicode="&#xf8;" horiz-adv-x="485" d="M338 316q-42 64 -101 64t-91.5 -41t-32.5 -129q0 -51 18 -93zM56 -12q-3 -3 -9.5 -3t-14 6.5t-7.5 16t10 17.5l40 38q-45 58 -45 123q0 94 64 161t148 67t143 -53l52 50q4 4 11 4q14 0 14 -16t-11 -25l-40 -39q44 -57 44 -122q0 -94 -59 -160.5t-166 -66.5q-69 0 -127 48 zM356 281l-206 -202q40 -63 101 -63q74 0 103 56q19 37 19 100.5t-17 108.5z" />
<glyph unicode="&#xf9;" horiz-adv-x="527" d="M202 631q81 -141 81 -158t-9.5 -17t-35 27.5t-69 80.5t-43.5 62q0 23 49 23q16 0 27 -18zM359 -15l5 66v6q-72 -71 -165 -71q-51 0 -82.5 31t-31.5 88v203q0 40 -43 57q-13 4 -13 16.5t15 15.5q35 1 103 17q7 1 11 -3t3 -11q-6 -46 -6 -77v-195q0 -36 26 -63.5t58 -27.5 q58 0 84 20q45 33 45 75v183q0 27 -21 38t-44 11.5t-23 17.5q0 8 8.5 11.5t26.5 4t36 2t31 3.5t18 3q6 0 32 9h2q7 0 11.5 -6t-1.5 -16t-6 -67v-212q0 -69 18 -69q31 0 46 3t15 -12t-14 -15q-52 -7 -90.5 -23.5t-46 -16.5t-7.5 4z" />
<glyph unicode="&#xfa;" horiz-adv-x="527" d="M332.5 564q-43.5 -53 -69 -80.5t-35 -27.5t-9.5 17t81 158q11 18 27 18q49 0 49 -23q0 -9 -43.5 -62zM359 -15l5 66v6q-72 -71 -165 -71q-51 0 -82.5 31t-31.5 88v203q0 40 -43 57q-13 4 -13 16.5t15 15.5q35 1 103 17q7 1 11 -3t3 -11q-6 -46 -6 -77v-195 q0 -36 26 -63.5t58 -27.5q58 0 84 20q45 33 45 75v183q0 27 -21 38t-44 11.5t-23 17.5q0 8 8.5 11.5t26.5 4t36 2t31 3.5t18 3q6 0 32 9h2q7 0 11.5 -6t-1.5 -16t-6 -67v-212q0 -69 18 -69q31 0 46 3t15 -12t-14 -15q-52 -7 -90.5 -23.5t-46 -16.5t-7.5 4z" />
<glyph unicode="&#xfb;" horiz-adv-x="527" d="M248 553q-30 -36 -66 -84q-17 -22 -30 -22q-9 0 -9 11.5t33.5 74t49 89t25.5 26.5t26 -27t49.5 -89t33.5 -73.5t-12 -11.5t-27 22q-18 24 -66 84q-4 5 -7 0zM359 -15l5 66v6q-72 -71 -165 -71q-51 0 -82.5 31t-31.5 88v203q0 40 -43 57q-13 4 -13 16.5t15 15.5 q35 1 103 17q7 1 11 -3t3 -11q-6 -46 -6 -77v-195q0 -36 26 -63.5t58 -27.5q58 0 84 20q45 33 45 75v183q0 27 -21 38t-44 11.5t-23 17.5q0 8 8.5 11.5t26.5 4t36 2t31 3.5t18 3q6 0 32 9h2q7 0 11.5 -6t-1.5 -16t-6 -67v-212q0 -69 18 -69q31 0 46 3t15 -12t-14 -15 q-52 -7 -90.5 -23.5t-46 -16.5t-7.5 4z" />
<glyph unicode="&#xfc;" horiz-adv-x="527" d="M344 593q19 0 34.5 -15.5t15.5 -34.5t-15.5 -34.5t-34.5 -15.5t-34.5 15.5t-15.5 34.5t15.5 34.5t34.5 15.5zM167 593q19 0 34.5 -15.5t15.5 -34.5t-15.5 -34.5t-34.5 -15.5t-34.5 15.5t-15.5 34.5t15.5 34.5t34.5 15.5zM359 -15l5 66v6q-72 -71 -165 -71q-51 0 -82.5 31 t-31.5 88v203q0 40 -43 57q-13 4 -13 16.5t15 15.5q35 1 103 17q7 1 11 -3t3 -11q-6 -46 -6 -77v-195q0 -36 26 -63.5t58 -27.5q58 0 84 20q45 33 45 75v183q0 27 -21 38t-44 11.5t-23 17.5q0 8 8.5 11.5t26.5 4t36 2t31 3.5t18 3q6 0 32 9h2q7 0 11.5 -6t-1.5 -16t-6 -67 v-212q0 -69 18 -69q31 0 46 3t15 -12t-14 -15q-52 -7 -90.5 -23.5t-46 -16.5t-7.5 4z" />
<glyph unicode="&#xfd;" horiz-adv-x="438" d="M315.5 564q-43.5 -53 -69 -80.5t-35 -27.5t-9.5 17t81 158q11 18 27 18q49 0 49 -23q0 -9 -43.5 -62zM364 400l59 5q20 0 20 -9.5t-19 -16t-36 -25.5t-27 -43l-136 -324q-1 -3 -16.5 -40t-38.5 -93t-41 -97.5t-65 -41.5q-19 0 -35 10t-16 26q0 30 27 30l40 -6q12 0 19 11 q46 79 91 198q3 9 3 25t-4 27l-116 293q-17 41 -45 49q-23 8 -23 17.5t20 9.5l73 -5l76 5q20 0 20 -11q0 -14 -29 -22q-20 -6 -20 -32q0 -9 8 -28l79 -196q8 -19 15 1l67 178q8 18 8 42.5t-24.5 35t-24.5 21.5t20 11z" />
<glyph unicode="&#xfe;" horiz-adv-x="505" d="M271 17q38 0 79 37q22 19 36.5 55.5t14.5 87t-14.5 88.5t-38.5 55q-42 29 -86.5 29t-82.5 -29q-23 -17 -26 -71v-64q0 -69 1 -90q3 -53 27 -75.5t90 -22.5zM159 694l-5 -308q0 -37 1 -38q19 19 69.5 42.5t92.5 23.5q74 0 119 -57t45 -132q0 -92 -66.5 -165.5 t-158.5 -73.5q-22 0 -53 9.5t-45 22.5q-2 0 -4 -21.5t-2 -29.5v-186q0 -13 8 -21.5t14 -10.5l21 -7q23 -8 23 -17.5t-20 -9.5h-3l-78 5l-78 -5h-3q-20 0 -20 9.5t19 16t25 8.5t14 10.5t8 21.5q4 272 4 463.5t-3 321.5q-1 18 -13.5 43t-33.5 30q-8 2 -8 12.5t7 12.5 q42 9 114 40l2 1q8 0 8 -11z" />
<glyph unicode="&#xff;" horiz-adv-x="438" d="M327 593q19 0 34.5 -15.5t15.5 -34.5t-15.5 -34.5t-34.5 -15.5t-34.5 15.5t-15.5 34.5t15.5 34.5t34.5 15.5zM150 593q19 0 34.5 -15.5t15.5 -34.5t-15.5 -34.5t-34.5 -15.5t-34.5 15.5t-15.5 34.5t15.5 34.5t34.5 15.5zM364 400l59 5q20 0 20 -9.5t-19 -16t-36 -25.5 t-27 -43l-136 -324q-1 -3 -16.5 -40t-38.5 -93t-41 -97.5t-65 -41.5q-19 0 -35 10t-16 26q0 30 27 30l40 -6q12 0 19 11q46 79 91 198q3 9 3 25t-4 27l-116 293q-17 41 -45 49q-23 8 -23 17.5t20 9.5l73 -5l76 5q20 0 20 -11q0 -14 -29 -22q-20 -6 -20 -32q0 -9 8 -28 l79 -196q8 -19 15 1l67 178q8 18 8 42.5t-24.5 35t-24.5 21.5t20 11z" />
<glyph unicode="&#x100;" horiz-adv-x="684" d="M237 777h263q5 0 9 -4t4 -13.5t-9.5 -23t-21.5 -13.5h-255q-5 0 -9.5 3.5t-4.5 12t6 23.5t18 15zM147 1l-120 -6q-29 0 -29 12.5t33 23.5q60 18 86 77q96 220 187 470q13 33 13 45.5t1 12.5q36 12 42 19.5t8 11.5q4 9 7 9q5 0 10 -14q74 -233 178 -534q19 -55 42 -74.5 t57.5 -25.5t34.5 -23q0 -10 -29 -10l-139 6l-105 -1q-29 0 -29 12q0 14 33 19q61 10 61 45q0 30 -38 157q-3 11 -27 11h-191q-11 0 -17 -18q-40 -116 -40 -138t16.5 -37t45.5 -22.5t29 -18.5t-29 -11zM333 542l-90 -240q-2 -6 -2 -8q0 -7 21 -7h155q14 0 14 5q0 2 -2 10 l-79 239q-6 18 -8.5 18t-8.5 -17z" />
<glyph unicode="&#x101;" horiz-adv-x="399" d="M95 555h203q5 0 9 -4t4 -15t-8 -23.5t-23 -12.5h-195q-5 0 -9.5 4t-4.5 12t6 23.5t18 15.5zM115 87q0 -26 16 -40.5t39 -14.5t54 27q11 9 12 40l2 49q1 21 -9 21q-7 0 -14 -3q-100 -34 -100 -79zM116 314l1 -14q0 -9 -28.5 -22t-38.5 -13t-10 9q0 34 34.5 64.5t76.5 53 t77.5 22.5t59.5 -26t23 -63l-5 -216v-6q0 -71 36 -71q25 0 40 14q4 4 10 0.5t6 -9.5v-1q-6 -13 -31 -31.5t-49.5 -18.5t-41 13t-23.5 26t-9 13q-4 0 -18 -13t-41.5 -26t-61 -13t-61 25t-27.5 54q0 60 73 90l102 42q19 8 23 14t5 26l2 62v2q0 26 -16.5 45t-38 19t-40.5 -10.5 t-24 -19.5t-5 -21z" />
<glyph unicode="&#x102;" horiz-adv-x="684" d="M218 846q10 0 22.5 -22t42 -42t75.5 -20t75.5 20t42 42t22.5 22t10 -24q0 -49 -45.5 -89.5t-105.5 -40.5t-104.5 37.5t-44.5 92.5q0 24 10 24zM147 1l-120 -6q-29 0 -29 12.5t33 23.5q60 18 86 77q96 220 187 470q13 33 13 45.5t1 12.5q36 12 42 19.5t8 11.5q4 9 7 9 q5 0 10 -14q74 -233 178 -534q19 -55 42 -74.5t57.5 -25.5t34.5 -23q0 -10 -29 -10l-139 6l-105 -1q-29 0 -29 12q0 14 33 19q61 10 61 45q0 30 -38 157q-3 11 -27 11h-191q-11 0 -17 -18q-40 -116 -40 -138t16.5 -37t45.5 -22.5t29 -18.5t-29 -11zM333 542l-90 -240 q-2 -6 -2 -8q0 -7 21 -7h155q14 0 14 5q0 2 -2 10l-79 239q-6 18 -8.5 18t-8.5 -17z" />
<glyph unicode="&#x103;" horiz-adv-x="399" d="M114 587q10 -49 77 -49t77 49q4 21 15 21q15 0 15 -24q0 -41 -29 -73.5t-78 -32.5t-78 32.5t-29 73.5q0 24 15 24q11 0 15 -21zM115 87q0 -26 16 -40.5t39 -14.5t54 27q11 9 12 40l2 49q1 21 -9 21q-7 0 -14 -3q-100 -34 -100 -79zM116 314l1 -14q0 -9 -28.5 -22 t-38.5 -13t-10 9q0 34 34.5 64.5t76.5 53t77.5 22.5t59.5 -26t23 -63l-5 -216v-6q0 -71 36 -71q25 0 40 14q4 4 10 0.5t6 -9.5v-1q-6 -13 -31 -31.5t-49.5 -18.5t-41 13t-23.5 26t-9 13q-4 0 -18 -13t-41.5 -26t-61 -13t-61 25t-27.5 54q0 60 73 90l102 42q19 8 23 14t5 26 l2 62v2q0 26 -16.5 45t-38 19t-40.5 -10.5t-24 -19.5t-5 -21z" />
<glyph unicode="&#x104;" horiz-adv-x="684" d="M333 542l-90 -240q-2 -6 -2 -8q0 -7 21 -7h155q14 0 14 5q0 2 -2 10l-79 239q-6 18 -8.5 18t-8.5 -17zM147 1l-120 -6q-29 0 -29 12.5t33 23.5q60 18 86 77q96 220 187 470q13 33 13 45.5t1 12.5q36 12 42 19.5t8 11.5q4 9 7 9q5 0 10 -14q74 -233 178 -534 q19 -55 42 -74.5t57.5 -25.5t34.5 -23q0 -10 -29 -10q-6 0 -101 5q-88 -75 -88 -155q0 -26 19.5 -43.5t39 -17.5t34 5.5t24.5 12.5q26 19 30.5 22t8.5 1.5t4 -7.5q0 -32 -45.5 -68.5t-89 -36.5t-77 33t-33.5 80q0 85 142 175q-12 0 -28 0.5t-48 -0.5t-36 -1q-29 0 -29 12 q0 14 33 19q61 10 61 45q0 30 -38 157q-3 11 -27 11h-191q-11 0 -17 -18q-40 -116 -40 -138t16.5 -37t45.5 -22.5t29 -18.5t-29 -11z" />
<glyph unicode="&#x105;" horiz-adv-x="399" d="M116 314l1 -14q0 -9 -28.5 -22t-38.5 -13t-10 9q0 34 34.5 64.5t76.5 53t77.5 22.5t59.5 -26t23 -63l-5 -216v-6q0 -71 36 -71q25 0 40 14q4 4 10 0.5t6 -9.5v-1q-5 -9 -21 -23t-34 -22q-78 -64 -78 -143q0 -32 17 -50.5t37.5 -18.5t34 5.5t21.5 10.5t9 5q8 0 8 -7 q0 -19 -31.5 -49.5t-73 -30.5t-69 27.5t-27.5 80.5q0 83 108 167q-30 7 -47 40q-6 10 -8 10q-4 0 -18 -13t-41.5 -26t-61 -13t-61 25t-27.5 54q0 60 73 90l102 42q19 8 23 14t5 26l2 62v2q0 26 -16.5 45t-38 19t-40.5 -10.5t-24 -19.5t-5 -21zM115 87q0 -26 16 -40.5 t39 -14.5t54 27q11 9 12 40l2 49q1 21 -9 21q-7 0 -14 -3q-100 -34 -100 -79z" />
<glyph unicode="&#x106;" horiz-adv-x="640" d="M349 697q-6 0 -6 7q0 14 82 133q9 13 25 13t38 -7t22 -15t-13 -20q-45 -38 -130 -102q-12 -9 -18 -9zM620 138q-9 -75 -34 -112q-4 -7 -58.5 -24t-158.5 -17q-135 0 -229 100t-94 240.5t108 239t256 98.5q70 0 106 -12t76 -18q11 -1 15.5 -42.5t5.5 -73t-1.5 -39.5 t-9.5 -7q-20 2 -26 37q-6 46 -35 73q-51 51 -152.5 51t-172 -85.5t-70.5 -199.5q0 -83 30 -158t89.5 -124t134.5 -49q124 0 186 121q4 7 14 12.5t11 6.5t2 1q7 0 7 -19z" />
<glyph unicode="&#x107;" horiz-adv-x="377" d="M311.5 564q-43.5 -53 -69 -80.5t-35 -27.5t-9.5 17t81 158q11 18 27 18q49 0 49 -23q0 -9 -43.5 -62zM356.5 330q-14.5 -11 -26.5 -11t-22 10q-27 29 -43 38t-51 9q-52 0 -81 -45t-29 -112.5t44.5 -124t114.5 -56.5q30 0 48.5 11.5t39.5 38.5q5 5 9 5t8 -4.5t4 -9.5 q0 -30 -52.5 -61.5t-120 -31.5t-116 57.5t-48.5 144.5t60.5 156t146 69t124.5 -48q5 -7 5 -15.5t-14.5 -19.5z" />
<glyph unicode="&#x108;" horiz-adv-x="640" d="M303.5 722q-44.5 -21 -56.5 -21t-12 10q0 6 7 12l98 88q25 22 41 22t41 -22l98 -88q6 -5 6 -12q0 -11 -11.5 -11t-55.5 21t-61 31t-27 4q-23 -13 -67.5 -34zM620 138q-9 -75 -34 -112q-4 -7 -58.5 -24t-158.5 -17q-135 0 -229 100t-94 240.5t108 239t256 98.5 q70 0 106 -12t76 -18q11 -1 15.5 -42.5t5.5 -73t-1.5 -39.5t-9.5 -7q-20 2 -26 37q-6 46 -35 73q-51 51 -152.5 51t-172 -85.5t-70.5 -199.5q0 -83 30 -158t89.5 -124t134.5 -49q124 0 186 121q4 7 14 12.5t11 6.5t2 1q7 0 7 -19z" />
<glyph unicode="&#x109;" horiz-adv-x="377" d="M227 553q-30 -36 -66 -84q-17 -22 -30 -22q-9 0 -9 11.5t33.5 74t49 89t25.5 26.5t26 -27t49.5 -89t33.5 -73.5t-12 -11.5t-27 22q-18 24 -66 84q-4 5 -7 0zM356.5 330q-14.5 -11 -26.5 -11t-22 10q-27 29 -43 38t-51 9q-52 0 -81 -45t-29 -112.5t44.5 -124t114.5 -56.5 q30 0 48.5 11.5t39.5 38.5q5 5 9 5t8 -4.5t4 -9.5q0 -30 -52.5 -61.5t-120 -31.5t-116 57.5t-48.5 144.5t60.5 156t146 69t124.5 -48q5 -7 5 -15.5t-14.5 -19.5z" />
<glyph unicode="&#x10a;" horiz-adv-x="640" d="M381 810q22 0 38.5 -16t16.5 -39t-16.5 -39t-38.5 -16t-38.5 16t-16.5 39t16.5 39t38.5 16zM620 138q-9 -75 -34 -112q-4 -7 -58.5 -24t-158.5 -17q-135 0 -229 100t-94 240.5t108 239t256 98.5q70 0 106 -12t76 -18q11 -1 15.5 -42.5t5.5 -73t-1.5 -39.5t-9.5 -7 q-20 2 -26 37q-6 46 -35 73q-51 51 -152.5 51t-172 -85.5t-70.5 -199.5q0 -83 30 -158t89.5 -124t134.5 -49q124 0 186 121q4 7 14 12.5t11 6.5t2 1q7 0 7 -19z" />
<glyph unicode="&#x10b;" horiz-adv-x="377" d="M195.5 507.5q-14.5 14.5 -14.5 36t14.5 36t36 14.5t36 -14.5t14.5 -36t-14.5 -36t-36 -14.5t-36 14.5zM356.5 330q-14.5 -11 -26.5 -11t-22 10q-27 29 -43 38t-51 9q-52 0 -81 -45t-29 -112.5t44.5 -124t114.5 -56.5q30 0 48.5 11.5t39.5 38.5q5 5 9 5t8 -4.5t4 -9.5 q0 -30 -52.5 -61.5t-120 -31.5t-116 57.5t-48.5 144.5t60.5 156t146 69t124.5 -48q5 -7 5 -15.5t-14.5 -19.5z" />
<glyph unicode="&#x10c;" horiz-adv-x="640" d="M235 822q0 10 12 10t56.5 -21t61 -30.5t26.5 -3.5q24 14 68 35t55.5 21t11.5 -11q0 -7 -6 -12l-98 -88q-25 -22 -41 -22t-41 22l-98 88q-7 6 -7 12zM620 138q-9 -75 -34 -112q-4 -7 -58.5 -24t-158.5 -17q-135 0 -229 100t-94 240.5t108 239t256 98.5q70 0 106 -12 t76 -18q11 -1 15.5 -42.5t5.5 -73t-1.5 -39.5t-9.5 -7q-20 2 -26 37q-6 46 -35 73q-51 51 -152.5 51t-172 -85.5t-70.5 -199.5q0 -83 30 -158t89.5 -124t134.5 -49q124 0 186 121q4 7 14 12.5t11 6.5t2 1q7 0 7 -19z" />
<glyph unicode="&#x10d;" horiz-adv-x="377" d="M226 550q3 -5 7 0q77 107 95 107q9 0 9 -15.5t-88 -151.5q-11 -18 -20 -18t-20 18q-88 136 -88 151.5t10 15.5q18 0 95 -107zM356.5 330q-14.5 -11 -26.5 -11t-22 10q-27 29 -43 38t-51 9q-52 0 -81 -45t-29 -112.5t44.5 -124t114.5 -56.5q30 0 48.5 11.5t39.5 38.5 q5 5 9 5t8 -4.5t4 -9.5q0 -30 -52.5 -61.5t-120 -31.5t-116 57.5t-48.5 144.5t60.5 156t146 69t124.5 -48q5 -7 5 -15.5t-14.5 -19.5z" />
<glyph unicode="&#x10e;" horiz-adv-x="754" d="M196 822q0 10 12 10t56.5 -21t61 -30.5t26.5 -3.5q24 14 68 35t55.5 21t11.5 -11q0 -7 -6 -12l-98 -88q-25 -22 -41 -22t-41 22l-98 88q-7 6 -7 12zM169 651l171 8q193 0 286 -88t93 -230.5t-102.5 -245t-245.5 -102.5q-3 0 -82 3.5t-126 3.5l-105 -5q-29 0 -29 11.5 t35.5 18t50 22.5t14.5 52v450q0 35 -14.5 50.5t-50 22t-35.5 20.5q0 11 29 11l104 -2h7zM209 121q0 -59 47 -77q42 -16 103 -16q117 0 191 83t74 217t-84.5 217t-194.5 83q-95 0 -114 -14q-22 -15 -22 -47v-446z" />
<glyph unicode="&#x10f;" horiz-adv-x="506" d="M462 564q2 18 -1 34t-3 58q0 19 18 34t34.5 15t16.5 -30q0 -9 -1 -14q-13 -91 -50 -141q-6 -8 -11 -8t-5 17t2 35zM346 -15l5 66v6q-18 -28 -52 -49.5t-79 -21.5q-82 0 -133.5 62t-51.5 147.5t62 152t163 66.5q20 0 46.5 -7.5t32.5 -15t9.5 -7.5t3.5 24v158 q0 38 -11.5 52.5t-39.5 20.5q-8 2 -8 13t7 12q39 9 78 24.5t44.5 15.5t6 -4.5t-0.5 -19.5q-6 -57 -6 -118v-452q0 -65 21 -65q31 0 46 3t15 -12t-14 -15q-52 -7 -90.5 -23.5t-46 -16.5t-7.5 4zM229 379q-36 0 -74 -32q-20 -17 -33 -52t-13 -85t16.5 -88.5t41.5 -56.5 q47 -34 89 -34t69 26t27 63v135q0 46 -34 85t-89 39z" />
<glyph unicode="&#x110;" horiz-adv-x="754" d="M317 28l59 2q73 0 127.5 48t80 118.5t25.5 149.5q0 120 -74 201t-190 81q-94 0 -113 -14q-22 -15 -22 -47v-214h167q5 0 9.5 -3.5t4.5 -7.5l-1 -1v-2q-12 -22 -31 -22h-149v-196q0 -28 8.5 -42.5t32 -32.5t66.5 -18zM169 651l171 8q194 0 279 -84.5t85 -232.5 t-95.5 -248.5t-237.5 -100.5q-3 0 -82 3.5t-126 3.5l-105 -5q-29 0 -29 11.5t35.5 18t50 22.5t14.5 52v218h-69q-6 0 -10 6t-4 12.5t7.5 12t16.5 5.5h59v196q0 35 -14.5 50.5t-50 22t-35.5 20.5q0 11 29 11l104 -2h7z" />
<glyph unicode="&#x111;" horiz-adv-x="506" d="M229 379q-36 0 -74 -32q-20 -17 -33 -52t-13 -85t16.5 -88.5t41.5 -56.5q47 -34 89 -34t69 26t27 63v135q0 46 -34 85t-89 39zM346 -15l5 66v6q-18 -28 -52 -49.5t-79 -21.5q-82 0 -133.5 62t-51.5 147.5t62 152t163 66.5q20 0 46.5 -7.5t32.5 -15t9.5 -7.5t3.5 24v127 h-138q-6 0 -10 6t-4 12.5t7.5 12t16.5 5.5h128q-1 35 -12.5 48.5t-38.5 19.5q-8 2 -8 13t7 12q39 9 78 24.5t44.5 15.5t6 -4.5t-0.5 -19.5q-6 -55 -6 -109h81q5 0 9.5 -3.5t4.5 -7.5l-1 -1v-2q-12 -22 -31 -22h-63v-425q0 -65 21 -65q31 0 46 3t15 -12t-14 -15 q-52 -7 -90.5 -23.5t-46 -16.5t-7.5 4z" />
<glyph unicode="&#x112;" horiz-adv-x="535" d="M161 778h263q5 0 9 -4t4 -13.5t-9.5 -23t-21.5 -13.5h-255q-5 0 -9.5 3.5t-4.5 12t6 23.5t18 15zM413 337l2 -68q0 -17 -9 -17q-16 0 -23 23q-15 45 -46 45h-93q-19 0 -26.5 -5t-7.5 -21v-192q0 -37 15.5 -52t50.5 -15h104q53 0 74 16.5t44 64.5q6 11 16.5 9.5 t10.5 -10.5q0 -40 -17 -103q-4 -17 -14 -17l-327 6l-115 -6q-29 0 -29 11.5t36 18t53.5 23t17.5 51.5v450q0 35 -14.5 50.5t-50 22t-35.5 20.5q0 11 29 11l177 -3l222 3q17 0 18 -9q15 -81 15 -99.5t-14 -18.5q-8 0 -11 10q-15 47 -22 55q-24 27 -67 27h-131q-10 0 -23 -9.5 t-13 -22.5v-212q0 -9 5.5 -15.5t12.5 -6.5h96q44 0 61 39q2 4 8.5 10.5t10 6.5t8 -4.5t4.5 -11.5z" />
<glyph unicode="&#x113;" horiz-adv-x="388" d="M123 555h203q5 0 9 -4t4 -15t-8 -23.5t-23 -12.5h-195q-5 0 -9.5 4t-4.5 12t6 23.5t18 15.5zM229 414q60 0 94.5 -25t34.5 -68t-21.5 -53.5t-55.5 -10.5h-164q-14 0 -19.5 -6.5t-5.5 -30.5q0 -70 43 -122t105.5 -52t96.5 44q7 7 11 7q11 0 4 -26t-49.5 -55.5 t-108.5 -29.5t-115 60t-49 151.5t57.5 154t141.5 62.5zM270 366q-25 17 -60.5 17t-67 -28.5t-31.5 -51.5q0 -15 19 -15h82q47 0 73 5q10 1 10 28.5t-25 44.5z" />
<glyph unicode="&#x114;" horiz-adv-x="535" d="M147 847q10 0 22.5 -22t42 -42t75.5 -20t75.5 20t42 42t22.5 22t10 -24q0 -49 -45.5 -89.5t-105.5 -40.5t-104.5 37.5t-44.5 92.5q0 24 10 24zM413 337l2 -68q0 -17 -9 -17q-16 0 -23 23q-15 45 -46 45h-93q-19 0 -26.5 -5t-7.5 -21v-192q0 -37 15.5 -52t50.5 -15h104 q53 0 74 16.5t44 64.5q6 11 16.5 9.5t10.5 -10.5q0 -40 -17 -103q-4 -17 -14 -17l-327 6l-115 -6q-29 0 -29 11.5t36 18t53.5 23t17.5 51.5v450q0 35 -14.5 50.5t-50 22t-35.5 20.5q0 11 29 11l177 -3l222 3q17 0 18 -9q15 -81 15 -99.5t-14 -18.5q-8 0 -11 10 q-15 47 -22 55q-24 27 -67 27h-131q-10 0 -23 -9.5t-13 -22.5v-212q0 -9 5.5 -15.5t12.5 -6.5h96q44 0 61 39q2 4 8.5 10.5t10 6.5t8 -4.5t4.5 -11.5z" />
<glyph unicode="&#x115;" horiz-adv-x="388" d="M142 587q10 -49 77 -49t77 49q4 21 15 21q15 0 15 -24q0 -41 -29 -73.5t-78 -32.5t-78 32.5t-29 73.5q0 24 15 24q11 0 15 -21zM229 414q60 0 94.5 -25t34.5 -68t-21.5 -53.5t-55.5 -10.5h-164q-14 0 -19.5 -6.5t-5.5 -30.5q0 -70 43 -122t105.5 -52t96.5 44q7 7 11 7 q11 0 4 -26t-49.5 -55.5t-108.5 -29.5t-115 60t-49 151.5t57.5 154t141.5 62.5zM270 366q-25 17 -60.5 17t-67 -28.5t-31.5 -51.5q0 -15 19 -15h82q47 0 73 5q10 1 10 28.5t-25 44.5z" />
<glyph unicode="&#x116;" horiz-adv-x="535" d="M287 811q22 0 38.5 -16t16.5 -39t-16.5 -39t-38.5 -16t-38.5 16t-16.5 39t16.5 39t38.5 16zM413 337l2 -68q0 -17 -9 -17q-16 0 -23 23q-15 45 -46 45h-93q-19 0 -26.5 -5t-7.5 -21v-192q0 -37 15.5 -52t50.5 -15h104q53 0 74 16.5t44 64.5q6 11 16.5 9.5t10.5 -10.5 q0 -40 -17 -103q-4 -17 -14 -17l-327 6l-115 -6q-29 0 -29 11.5t36 18t53.5 23t17.5 51.5v450q0 35 -14.5 50.5t-50 22t-35.5 20.5q0 11 29 11l177 -3l222 3q17 0 18 -9q15 -81 15 -99.5t-14 -18.5q-8 0 -11 10q-15 47 -22 55q-24 27 -67 27h-131q-10 0 -23 -9.5t-13 -22.5 v-212q0 -9 5.5 -15.5t12.5 -6.5h96q44 0 61 39q2 4 8.5 10.5t10 6.5t8 -4.5t4.5 -11.5z" />
<glyph unicode="&#x117;" horiz-adv-x="388" d="M184.5 507.5q-14.5 14.5 -14.5 36t14.5 36t36 14.5t36 -14.5t14.5 -36t-14.5 -36t-36 -14.5t-36 14.5zM229 414q60 0 94.5 -25t34.5 -68t-21.5 -53.5t-55.5 -10.5h-164q-14 0 -19.5 -6.5t-5.5 -30.5q0 -70 43 -122t105.5 -52t96.5 44q7 7 11 7q11 0 4 -26t-49.5 -55.5 t-108.5 -29.5t-115 60t-49 151.5t57.5 154t141.5 62.5zM270 366q-25 17 -60.5 17t-67 -28.5t-31.5 -51.5q0 -15 19 -15h82q47 0 73 5q10 1 10 28.5t-25 44.5z" />
<glyph unicode="&#x118;" horiz-adv-x="535" d="M413 337l2 -68q0 -17 -9 -17q-16 0 -23 23q-15 45 -46 45h-93q-19 0 -26.5 -5t-7.5 -21v-192q0 -37 15.5 -52t50.5 -15h104q53 0 74 16.5t44 64.5q6 11 16.5 9.5t10.5 -10.5q0 -40 -17 -103q-4 -17 -14 -17h-59q-83 -73 -83 -150q0 -26 19.5 -43.5t39 -17.5t34 5.5 t23.5 12.5q27 19 31.5 22t8.5 1.5t4 -7.5q0 -32 -45.5 -68.5t-89 -36.5t-77 33t-33.5 80q0 81 135 170q-215 5 -235 5l-115 -6q-29 0 -29 11.5t36 18t53.5 23t17.5 51.5v450q0 35 -14.5 50.5t-50 22t-35.5 20.5q0 11 29 11l177 -3l222 3q17 0 18 -9q15 -81 15 -99.5 t-14 -18.5q-8 0 -11 10q-15 47 -22 55q-24 27 -67 27h-131q-10 0 -23 -9.5t-13 -22.5v-212q0 -9 5.5 -15.5t12.5 -6.5h96q44 0 61 39q2 4 8.5 10.5t10 6.5t8 -4.5t4.5 -11.5z" />
<glyph unicode="&#x119;" horiz-adv-x="388" d="M311.5 -256.5q-31.5 -30.5 -73 -30.5t-69 27.5t-27.5 80.5q0 85 103 170q-23 -5 -47 -5q-70 0 -119 60t-49 151.5t57.5 154t141.5 62.5q60 0 94.5 -25t34.5 -68t-21.5 -53.5t-55.5 -10.5h-164q-14 0 -19.5 -6.5t-5.5 -30.5q0 -70 43 -122t105.5 -52t96.5 44q7 7 11 7 q11 0 6 -20q-9 -33 -51 -61q-15 -11 -31 -27.5t-36 -56.5t-20 -78t17 -56.5t37.5 -18.5t34 5.5t21.5 10.5t9 5q8 0 8 -7q0 -19 -31.5 -49.5zM270 366q-25 17 -60.5 17t-67 -28.5t-31.5 -51.5q0 -15 19 -15h82q47 0 73 5q10 1 10 28.5t-25 44.5z" />
<glyph unicode="&#x11a;" horiz-adv-x="535" d="M141 823q0 10 12 10t56.5 -21t61 -30.5t26.5 -3.5q24 14 68 35t55.5 21t11.5 -11q0 -7 -6 -12l-98 -88q-25 -22 -41 -22t-41 22l-98 88q-7 6 -7 12zM413 337l2 -68q0 -17 -9 -17q-16 0 -23 23q-15 45 -46 45h-93q-19 0 -26.5 -5t-7.5 -21v-192q0 -37 15.5 -52t50.5 -15 h104q53 0 74 16.5t44 64.5q6 11 16.5 9.5t10.5 -10.5q0 -40 -17 -103q-4 -17 -14 -17l-327 6l-115 -6q-29 0 -29 11.5t36 18t53.5 23t17.5 51.5v450q0 35 -14.5 50.5t-50 22t-35.5 20.5q0 11 29 11l177 -3l222 3q17 0 18 -9q15 -81 15 -99.5t-14 -18.5q-8 0 -11 10 q-15 47 -22 55q-24 27 -67 27h-131q-10 0 -23 -9.5t-13 -22.5v-212q0 -9 5.5 -15.5t12.5 -6.5h96q44 0 61 39q2 4 8.5 10.5t10 6.5t8 -4.5t4.5 -11.5z" />
<glyph unicode="&#x11b;" horiz-adv-x="388" d="M215 550q3 -5 7 0q77 107 95 107q9 0 9 -15.5t-88 -151.5q-11 -18 -20 -18t-20 18q-88 136 -88 151.5t10 15.5q18 0 95 -107zM229 414q60 0 94.5 -25t34.5 -68t-21.5 -53.5t-55.5 -10.5h-164q-14 0 -19.5 -6.5t-5.5 -30.5q0 -70 43 -122t105.5 -52t96.5 44q7 7 11 7 q11 0 4 -26t-49.5 -55.5t-108.5 -29.5t-115 60t-49 151.5t57.5 154t141.5 62.5zM270 366q-25 17 -60.5 17t-67 -28.5t-31.5 -51.5q0 -15 19 -15h82q47 0 73 5q10 1 10 28.5t-25 44.5z" />
<glyph unicode="&#x11c;" horiz-adv-x="729" d="M322.5 722q-44.5 -21 -56.5 -21t-12 10q0 6 7 12l98 88q25 22 41 22t41 -22l98 -88q6 -5 6 -12q0 -11 -11.5 -11t-55.5 21t-61 31t-27 4q-23 -13 -67.5 -34zM583 286l89 4q21 0 21 -16q0 -6 -8 -11.5t-21 -8.5q-28 -8 -33.5 -45.5t-5.5 -76.5v-27q0 -11 9.5 -20.5 t9.5 -12.5q0 -17 -14 -19q-4 -1 -39 -18t-89 -33t-110 -16q-141 0 -244 94t-103 236t108.5 244.5t259.5 102.5q42 0 124.5 -14.5t83.5 -24.5q11 -77 11 -98q0 -34 -14.5 -34t-24.5 28.5t-27 49t-58.5 38t-103.5 17.5q-113 0 -186.5 -89.5t-73.5 -218.5t78 -211.5t184 -82.5 q85 0 118.5 33.5t33.5 80.5l2 58q0 24 -5 30q-11 15 -44 23t-46 8t-20.5 5t-7.5 12t7.5 12t12.5 5z" />
<glyph unicode="&#x11d;" horiz-adv-x="435" d="M203 553q-30 -36 -66 -84q-17 -22 -30 -22q-9 0 -9 11.5t33.5 74t49 89t25.5 26.5t26 -27t49.5 -89t33.5 -73.5t-12 -11.5t-27 22q-18 24 -66 84q-4 5 -7 0zM82 -134q0 -51 34.5 -83.5t93.5 -32.5t103 40t44 101q0 25 -24.5 42t-58.5 23.5t-95 9.5h-23q-12 -8 -50 -46 q-24 -28 -24 -54zM268 349q-27 37 -67 37t-64 -37.5t-24 -82.5t26.5 -85t65.5 -40t64.5 37t25.5 85.5t-27 85.5zM373 385l32 1q12 0 21 -1t9 -18.5t-9 -17.5q-37 0 -42 -2t-8 -3.5t-7 -2.5q-4 -11 -4 -46q0 -75 -48 -132t-120 -57q-32 0 -54 12q-44 -34 -44 -49 q0 -32 96 -41q130 -12 152.5 -22t40.5 -21q30 -19 30 -62q0 -80 -72.5 -146.5t-149 -66.5t-131 27t-54.5 87q0 31 15.5 53.5t52 45.5t51.5 46q-34 7 -62 25.5t-28 49.5q0 19 23 37q6 4 19 12q27 16 40 34q-14 3 -38 26q-49 46 -49 111t54 108.5t124 43.5q25 0 59 -11 q63 -20 101 -20z" />
<glyph unicode="&#x11e;" horiz-adv-x="729" d="M260 846q10 0 22.5 -22t42 -42t75.5 -20t75.5 20t42 42t22.5 22t10 -24q0 -49 -45.5 -89.5t-105.5 -40.5t-104.5 37.5t-44.5 92.5q0 24 10 24zM583 286l89 4q21 0 21 -16q0 -6 -8 -11.5t-21 -8.5q-28 -8 -33.5 -45.5t-5.5 -76.5v-27q0 -11 9.5 -20.5t9.5 -12.5 q0 -17 -14 -19q-4 -1 -39 -18t-89 -33t-110 -16q-141 0 -244 94t-103 236t108.5 244.5t259.5 102.5q42 0 124.5 -14.5t83.5 -24.5q11 -77 11 -98q0 -34 -14.5 -34t-24.5 28.5t-27 49t-58.5 38t-103.5 17.5q-113 0 -186.5 -89.5t-73.5 -218.5t78 -211.5t184 -82.5 q85 0 118.5 33.5t33.5 80.5l2 58q0 24 -5 30q-11 15 -44 23t-46 8t-20.5 5t-7.5 12t7.5 12t12.5 5z" />
<glyph unicode="&#x11f;" horiz-adv-x="435" d="M129 587q10 -49 77 -49t77 49q4 21 15 21q15 0 15 -24q0 -41 -29 -73.5t-78 -32.5t-78 32.5t-29 73.5q0 24 15 24q11 0 15 -21zM82 -134q0 -51 34.5 -83.5t93.5 -32.5t103 40t44 101q0 25 -24.5 42t-58.5 23.5t-95 9.5h-23q-12 -8 -50 -46q-24 -28 -24 -54zM268 349 q-27 37 -67 37t-64 -37.5t-24 -82.5t26.5 -85t65.5 -40t64.5 37t25.5 85.5t-27 85.5zM373 385l32 1q12 0 21 -1t9 -18.5t-9 -17.5q-37 0 -42 -2t-8 -3.5t-7 -2.5q-4 -11 -4 -46q0 -75 -48 -132t-120 -57q-32 0 -54 12q-44 -34 -44 -49q0 -32 96 -41q130 -12 152.5 -22 t40.5 -21q30 -19 30 -62q0 -80 -72.5 -146.5t-149 -66.5t-131 27t-54.5 87q0 31 15.5 53.5t52 45.5t51.5 46q-34 7 -62 25.5t-28 49.5q0 19 23 37q6 4 19 12q27 16 40 34q-14 3 -38 26q-49 46 -49 111t54 108.5t124 43.5q25 0 59 -11q63 -20 101 -20z" />
<glyph unicode="&#x120;" horiz-adv-x="729" d="M400 810q22 0 38.5 -16t16.5 -39t-16.5 -39t-38.5 -16t-38.5 16t-16.5 39t16.5 39t38.5 16zM583 286l89 4q21 0 21 -16q0 -6 -8 -11.5t-21 -8.5q-28 -8 -33.5 -45.5t-5.5 -76.5v-27q0 -11 9.5 -20.5t9.5 -12.5q0 -17 -14 -19q-4 -1 -39 -18t-89 -33t-110 -16 q-141 0 -244 94t-103 236t108.5 244.5t259.5 102.5q42 0 124.5 -14.5t83.5 -24.5q11 -77 11 -98q0 -34 -14.5 -34t-24.5 28.5t-27 49t-58.5 38t-103.5 17.5q-113 0 -186.5 -89.5t-73.5 -218.5t78 -211.5t184 -82.5q85 0 118.5 33.5t33.5 80.5l2 58q0 24 -5 30q-11 15 -44 23 t-46 8t-20.5 5t-7.5 12t7.5 12t12.5 5z" />
<glyph unicode="&#x121;" horiz-adv-x="435" d="M171.5 507.5q-14.5 14.5 -14.5 36t14.5 36t36 14.5t36 -14.5t14.5 -36t-14.5 -36t-36 -14.5t-36 14.5zM82 -134q0 -51 34.5 -83.5t93.5 -32.5t103 40t44 101q0 25 -24.5 42t-58.5 23.5t-95 9.5h-23q-12 -8 -50 -46q-24 -28 -24 -54zM268 349q-27 37 -67 37t-64 -37.5 t-24 -82.5t26.5 -85t65.5 -40t64.5 37t25.5 85.5t-27 85.5zM373 385l32 1q12 0 21 -1t9 -18.5t-9 -17.5q-37 0 -42 -2t-8 -3.5t-7 -2.5q-4 -11 -4 -46q0 -75 -48 -132t-120 -57q-32 0 -54 12q-44 -34 -44 -49q0 -32 96 -41q130 -12 152.5 -22t40.5 -21q30 -19 30 -62 q0 -80 -72.5 -146.5t-149 -66.5t-131 27t-54.5 87q0 31 15.5 53.5t52 45.5t51.5 46q-34 7 -62 25.5t-28 49.5q0 19 23 37q6 4 19 12q27 16 40 34q-14 3 -38 26q-49 46 -49 111t54 108.5t124 43.5q25 0 59 -11q63 -20 101 -20z" />
<glyph unicode="&#x122;" horiz-adv-x="729" d="M359 -275q-13 0 -13 8.5t20.5 16t33.5 30t13 45.5t-30 30q-19 4 -34.5 17t-15.5 30t12.5 29t33.5 12q36 0 62 -28t26 -76.5t-39.5 -81t-68.5 -32.5zM583 286l89 4q21 0 21 -16q0 -6 -8 -11.5t-21 -8.5q-28 -8 -33.5 -45.5t-5.5 -76.5v-27q0 -11 9.5 -20.5t9.5 -12.5 q0 -17 -14 -19q-4 -1 -39 -18t-89 -33t-110 -16q-141 0 -244 94t-103 236t108.5 244.5t259.5 102.5q42 0 124.5 -14.5t83.5 -24.5q11 -77 11 -98q0 -34 -14.5 -34t-24.5 28.5t-27 49t-58.5 38t-103.5 17.5q-113 0 -186.5 -89.5t-73.5 -218.5t78 -211.5t184 -82.5 q85 0 118.5 33.5t33.5 80.5l2 58q0 24 -5 30q-11 15 -44 23t-46 8t-20.5 5t-7.5 12t7.5 12t12.5 5z" />
<glyph unicode="&#x123;" horiz-adv-x="435" d="M191.5 561q8.5 -14 26 -14t30.5 -12.5t13 -27.5t-13.5 -26.5t-33.5 -11.5q-36 0 -59.5 27.5t-23.5 71.5t41.5 81.5t82.5 39.5h2q18 0 18 -10q0 -8 -14 -11q-33 -7 -55.5 -29t-22.5 -43t8.5 -35zM82 -134q0 -51 34.5 -83.5t93.5 -32.5t103 40t44 101q0 25 -24.5 42 t-58.5 23.5t-95 9.5h-23q-12 -8 -50 -46q-24 -28 -24 -54zM268 349q-27 37 -67 37t-64 -37.5t-24 -82.5t26.5 -85t65.5 -40t64.5 37t25.5 85.5t-27 85.5zM373 385l32 1q12 0 21 -1t9 -18.5t-9 -17.5q-37 0 -42 -2t-8 -3.5t-7 -2.5q-4 -11 -4 -46q0 -75 -48 -132t-120 -57 q-32 0 -54 12q-44 -34 -44 -49q0 -32 96 -41q130 -12 152.5 -22t40.5 -21q30 -19 30 -62q0 -80 -72.5 -146.5t-149 -66.5t-131 27t-54.5 87q0 31 15.5 53.5t52 45.5t51.5 46q-34 7 -62 25.5t-28 49.5q0 19 23 37q6 4 19 12q27 16 40 34q-14 3 -38 26q-49 46 -49 111 t54 108.5t124 43.5q25 0 59 -11q63 -20 101 -20z" />
<glyph unicode="&#x124;" horiz-adv-x="810" d="M328.5 722q-44.5 -21 -56.5 -21t-12 10q0 6 7 12l98 88q25 22 41 22t41 -22l98 -88q6 -5 6 -12q0 -11 -11.5 -11t-55.5 21t-61 31t-27 4q-23 -13 -67.5 -34zM648 650l91 3q29 0 29 -11q0 -14 -33.5 -20t-43 -21.5t-9.5 -48.5v-452q0 -39 9.5 -54.5t44 -21.5t34.5 -17.5 t-29 -11.5l-104 5l-107 -5q-29 0 -29 11.5t33 17.5q68 13 68 73v190q0 15 -5 15h-382q-5 0 -5 -11v-185q0 -31 22 -53.5t56 -28.5t34 -17.5t-29 -11.5l-117 5l-110 -5q-29 0 -29 11.5t34.5 18t46.5 22t12 52.5v452q0 37 -9 51t-43 20t-34 20q0 11 29 11l103 -3l106 3 q29 0 29 -11q0 -14 -33 -20q-68 -12 -68 -71v-192q0 -9 14 -9h371q7 0 7 12v190q0 58 -66 70q-33 6 -33 20q0 11 29 11z" />
<glyph unicode="&#x125;" horiz-adv-x="515" d="M292 762.5q-16 7.5 -25.5 13t-18 0.5t-25 -12t-38 -20t-40.5 -13t-19 10q0 6 7 12l31 26q3 0 31 22t35.5 28.5t9.5 8.5q6 4 13.5 4t11 -0.5t7 -2.5t5.5 -4q6 -6 37.5 -31t34.5 -25h1q4 -2 31 -25q6 -5 6 -12q0 -11 -18.5 -11t-39.5 12t-37 19.5zM120 2l-81 -5 q-20 0 -20 9.5t18 15.5t25 10q23 10 23 33v501q0 64 -45 73q-8 2 -8 12.5t7 12.5q25 6 116 40l2 1q2 0 7 -7q0 -2 -2 -14q-7 -44 -7 -122v-174q0 -27 8 -37q85 63 151 63q49 0 81.5 -39t32.5 -97v-210q0 -32 41 -44q23 -8 23 -17.5t-20 -9.5l-78 5l-78 -5q-20 0 -20 9.5 t23 17.5q39 12 39 44v204q0 36 -29.5 63t-63.5 27q-55 0 -83 -22q-16 -13 -21.5 -27.5t-5.5 -44.5v-203q1 -30 38 -41q23 -8 23 -17.5t-20 -9.5z" />
<glyph unicode="&#x126;" horiz-adv-x="810" d="M648 650l91 3q29 0 29 -11q0 -14 -33.5 -20t-43 -21.5t-9.5 -48.5v-60h67q6 0 10.5 -4.5t2.5 -9.5q-12 -22 -31 -22h-49v-356q0 -39 9.5 -54.5t44 -21.5t34.5 -17.5t-29 -11.5l-104 5l-107 -5q-29 0 -29 11.5t33 17.5q68 13 68 73v190q0 15 -5 15h-382q-5 0 -5 -11v-185 q0 -31 22 -53.5t56 -28.5t34 -17.5t-29 -11.5l-117 5l-110 -5q-29 0 -29 11.5t34.5 18t46.5 22t12 52.5v357h-64q-6 0 -10 6t-4 12.5t7.5 12t16.5 5.5h54v59q0 37 -9 51t-43 20t-34 20q0 11 29 11l103 -3l106 3q29 0 29 -11q0 -14 -33 -20q-68 -12 -68 -71v-59h392v60 q0 58 -66 70q-33 6 -33 20q0 11 29 11zM602 456h-392v-97q0 -9 14 -9h371q7 0 7 12v94z" />
<glyph unicode="&#x127;" horiz-adv-x="497" d="M118 2l-78 -5h-3q-20 0 -20 9.5t18 15.5t25 10q23 10 23 33v473h-54q-6 0 -10 5t-4 11t7.5 11.5t16.5 5.5h44q-2 59 -45 68q-8 2 -8 12.5t7 12.5q25 6 116 40l2 1q2 0 7 -7q0 -3 -2 -14q-7 -41 -7 -113h140q6 0 10.5 -4.5t2.5 -9.5q-10 -19 -31 -19h-122v-150 q0 -27 8 -37q85 63 151 63q51 0 83 -31.5t32 -88.5v-226q0 -31 43 -44q23 -8 23 -17.5t-20 -9.5h-3l-78 5l-74 -5h-3q-20 0 -20 9.5t23 17.5q39 12 39 44v204q0 37 -30 63.5t-64 26.5q-55 0 -83 -22q-16 -13 -21.5 -27.5t-5.5 -44.5v-203q1 -30 38 -41q23 -8 23 -17.5 t-20 -9.5h-3z" />
<glyph unicode="&#x128;" horiz-adv-x="340" d="M130 801l116 -11q20 0 38.5 19.5t21.5 19.5q17 0 17 -20.5t-28 -51t-55 -30.5l-121 9q-20 0 -37.5 -20.5t-19.5 -20.5q-7 0 -13 5t-6 12q0 26 30 57.5t57 31.5zM176 0l-128 -5q-29 0 -29 11.5t36.5 18t55.5 23t19 50.5v452q0 35 -14.5 50t-50 21.5t-35.5 20.5q0 11 29 11 l117 -3l109 3q29 0 29 -11q0 -14 -36 -20.5t-52 -22t-16 -49.5v-452q0 -34 19.5 -50.5t56 -23t36.5 -18t-29 -11.5z" />
<glyph unicode="&#x129;" horiz-adv-x="245" d="M172 500l-112 7q-15 0 -35 -18.5t-22 -18.5q-14 0 -14 20q0 10 35.5 47t52.5 37l107 -8q21 0 38.5 17t18.5 17q16 0 16 -17q0 -10 -34 -46.5t-51 -36.5zM125 2l-81 -5q-20 0 -20 9.5t28 18.5t33 18.5t5 18.5v217q0 63 -47 73q-8 2 -8 12.5t7 12.5q49 12 102 47 q16 10 18 10q7 0 7 -5q-9 -92 -9 -135v-232q0 -20 12 -26q13 -6 33.5 -13t20.5 -16.5t-20 -9.5z" />
<glyph unicode="&#x12a;" horiz-adv-x="340" d="M55 777h263q5 0 9 -4t4 -13.5t-9.5 -23t-21.5 -13.5h-255q-5 0 -9.5 3.5t-4.5 12t6 23.5t18 15zM176 0l-128 -5q-29 0 -29 11.5t36.5 18t55.5 23t19 50.5v452q0 35 -14.5 50t-50 21.5t-35.5 20.5q0 11 29 11l117 -3l109 3q29 0 29 -11q0 -14 -36 -20.5t-52 -22t-16 -49.5 v-452q0 -34 19.5 -50.5t56 -23t36.5 -18t-29 -11.5z" />
<glyph unicode="&#x12b;" horiz-adv-x="245" d="M19 555h203q5 0 9 -4t4 -15t-8 -23.5t-23 -12.5h-195q-5 0 -9.5 4t-4.5 12t6 23.5t18 15.5zM125 2l-81 -5q-20 0 -20 9.5t28 18.5t33 18.5t5 18.5v217q0 63 -47 73q-8 2 -8 12.5t7 12.5q49 12 102 47q16 10 18 10q7 0 7 -5q-9 -92 -9 -135v-232q0 -20 12 -26 q13 -6 33.5 -13t20.5 -16.5t-20 -9.5z" />
<glyph unicode="&#x12c;" horiz-adv-x="340" d="M41 846q10 0 22.5 -22t42 -42t75.5 -20t75.5 20t42 42t22.5 22t10 -24q0 -49 -45.5 -89.5t-105.5 -40.5t-104.5 37.5t-44.5 92.5q0 24 10 24zM176 0l-128 -5q-29 0 -29 11.5t36.5 18t55.5 23t19 50.5v452q0 35 -14.5 50t-50 21.5t-35.5 20.5q0 11 29 11l117 -3l109 3 q29 0 29 -11q0 -14 -36 -20.5t-52 -22t-16 -49.5v-452q0 -34 19.5 -50.5t56 -23t36.5 -18t-29 -11.5z" />
<glyph unicode="&#x12d;" horiz-adv-x="245" d="M38 587q10 -49 77 -49t77 49q4 21 15 21q15 0 15 -24q0 -41 -29 -73.5t-78 -32.5t-78 32.5t-29 73.5q0 24 15 24q11 0 15 -21zM125 2l-81 -5q-20 0 -20 9.5t28 18.5t33 18.5t5 18.5v217q0 63 -47 73q-8 2 -8 12.5t7 12.5q49 12 102 47q16 10 18 10q7 0 7 -5 q-9 -92 -9 -135v-232q0 -20 12 -26q13 -6 33.5 -13t20.5 -16.5t-20 -9.5z" />
<glyph unicode="&#x12e;" horiz-adv-x="340" d="M293 -5l-83 4q-87 -74 -87 -154q0 -26 19.5 -43.5t39 -17.5t34 5.5t24.5 12.5q26 19 30.5 22t8.5 1.5t4 -7.5q0 -32 -45.5 -68.5t-89 -36.5t-77 33t-33.5 81t44 93.5t97 79.5h-3l-128 -5q-29 0 -29 11.5t36.5 18t55.5 23t19 50.5v452q0 35 -14.5 50t-50 21.5t-35.5 20.5 q0 11 29 11l117 -3l109 3q29 0 29 -11q0 -14 -36 -20.5t-52 -22t-16 -49.5v-452q0 -34 19.5 -50.5t56 -23t36.5 -18t-29 -11.5z" />
<glyph unicode="&#x12f;" horiz-adv-x="245" d="M206 -3l-56 4q-56 -67 -56 -164q0 -32 17 -50.5t37.5 -18.5t34 5t21.5 10.5t9 5.5q8 0 8 -7q0 -19 -31.5 -49.5t-73 -30.5t-69 27.5t-27.5 75t23 92t42 66t38 39.5l-79 -5q-20 0 -20 9.5t28 18.5t33 18.5t5 18.5v217q0 63 -47 73q-8 2 -8 12.5t7 12.5q49 12 102 47 q16 10 18 10q7 0 7 -5q-9 -92 -9 -135v-232q0 -20 12 -26q13 -6 33.5 -13t20.5 -16.5t-20 -9.5zM82.5 527.5q-14.5 14.5 -14.5 36t14.5 36t36 14.5t36 -14.5t14.5 -36t-14.5 -36t-36 -14.5t-36 14.5z" />
<glyph unicode="&#x130;" horiz-adv-x="340" d="M181 810q22 0 38.5 -16t16.5 -39t-16.5 -39t-38.5 -16t-38.5 16t-16.5 39t16.5 39t38.5 16zM176 0l-128 -5q-29 0 -29 11.5t36.5 18t55.5 23t19 50.5v452q0 35 -14.5 50t-50 21.5t-35.5 20.5q0 11 29 11l117 -3l109 3q29 0 29 -11q0 -14 -36 -20.5t-52 -22t-16 -49.5 v-452q0 -34 19.5 -50.5t56 -23t36.5 -18t-29 -11.5z" />
<glyph unicode="&#x131;" horiz-adv-x="245" d="M125 2l-81 -5q-20 0 -20 9.5t28 18.5t33 18.5t5 18.5v217q0 63 -47 73q-8 2 -8 12.5t7 12.5q49 12 102 47q16 10 18 10q7 0 7 -5q-9 -92 -9 -135v-232q0 -20 12 -26q13 -6 33.5 -13t20.5 -16.5t-20 -9.5z" />
<glyph unicode="&#x132;" horiz-adv-x="669" d="M530 650l94 3q29 0 29 -11q0 -14 -34.5 -20.5t-45 -20.5t-10.5 -50v-409q0 -152 -17 -204q-10 -30 -15.5 -40t-20.5 -32q-46 -66 -123 -66q-46 0 -74.5 12.5t-28.5 31t11.5 36t24.5 17.5q33 0 51 -27.5t46 -27.5q66 0 66 158v551q0 34 -14.5 49t-49.5 21.5t-35 20.5 q0 11 29 11zM176 0l-128 -5q-29 0 -29 11.5t36.5 18t55.5 23t19 50.5v452q0 35 -14.5 50t-50 21.5t-35.5 20.5q0 11 29 11l117 -3l109 3q29 0 29 -11q0 -14 -36 -20.5t-52 -22t-16 -49.5v-452q0 -34 19.5 -50.5t56 -23t36.5 -18t-29 -11.5z" />
<glyph unicode="&#x133;" horiz-adv-x="427" d="M289 563q1 23 15 37t36 14t36 -14t14 -36t-14 -36t-37 -15q-21 1 -35 15t-15 35zM382 275v-184q0 -160 -30 -243q-19 -51 -58.5 -93t-65 -42t-25.5 10.5t11 16.5q41 10 68 67t27 262v210q0 64 -46 73q-8 2 -8 12.5t7 12.5q49 12 102 47q16 10 18 10q7 0 7 -5 q-7 -72 -7 -154zM82 528q-14 14 -14 36t14 36t36 14t36 -14t15 -37q-1 -21 -15 -35t-36 -15q-22 1 -36 15zM125 2l-81 -5q-20 0 -20 9.5t28 18.5t33 18.5t5 18.5v217q0 63 -47 73q-8 2 -8 12.5t7 12.5q49 12 102 47q16 10 18 10q7 0 7 -5q-9 -92 -9 -135v-232q0 -20 12 -26 q13 -6 33.5 -13t20.5 -16.5t-20 -9.5z" />
<glyph unicode="&#x134;" horiz-adv-x="300" d="M95.5 722q-44.5 -21 -56.5 -21t-12 10q0 6 7 12l98 88q25 22 41 22t41 -22l98 -88q6 -5 6 -12q0 -11 -11.5 -11t-55.5 21t-61 31t-27 4q-23 -13 -67.5 -34zM177 650l94 3q29 0 29 -11q0 -14 -34.5 -20.5t-45 -20.5t-10.5 -50v-409q0 -152 -17 -204q-10 -30 -15.5 -40 t-20.5 -32q-46 -66 -123 -66q-46 0 -74.5 12.5t-28.5 31t11.5 36t24.5 17.5q33 0 51 -27.5t46 -27.5q66 0 66 158v551q0 34 -14.5 49t-49.5 21.5t-35 20.5q0 11 29 11z" />
<glyph unicode="&#x135;" horiz-adv-x="213" d="M97 553q-30 -36 -66 -84q-17 -22 -30 -22q-9 0 -9 11.5t33.5 74t49 89t25.5 26.5t26 -27t49.5 -89t33.5 -73.5t-12 -11.5t-27 22q-18 24 -66 84q-4 5 -7 0zM144 275v-184q0 -160 -30 -243q-19 -51 -58.5 -93t-65 -42t-25.5 10.5t11 16.5q41 10 68 67t27 262v210 q0 64 -46 73q-8 2 -8 12.5t7 12.5q49 12 102 47q16 10 18 10q7 0 7 -5q-7 -72 -7 -154z" />
<glyph unicode="&#x136;" horiz-adv-x="681" d="M313 -275q-13 0 -13 8.5t20.5 16t33.5 30t13 45.5t-30 30q-19 4 -34.5 17t-15.5 30t12.5 29t33.5 12q36 0 62 -28t26 -76.5t-39.5 -81t-68.5 -32.5zM172 651l97 2q29 0 29 -11q0 -14 -34 -20t-43.5 -22t-9.5 -49v-187q0 -19 5 -19q11 0 27 18l200 204q15 15 15 31.5 t-19 21.5q-31 8 -31 19.5t29 11.5h54q112 0 155 4h7q22 0 22 -11q0 -14 -33 -20q-94 -17 -152 -66q-96 -81 -192 -187q-6 -7 5 -18l242 -258q35 -39 52 -50.5t54 -19.5t37 -19t-29 -11l-139 5l-81 -1q-29 0 -29 11t27.5 17.5t27.5 19.5q0 8 -15 25l-212 234q-17 17 -23 17 q-4 0 -4 -40t5 -173q3 -75 64 -86q33 -6 33 -17.5t-29 -11.5t-55 3.5t-43 3.5l-126 -7q-29 0 -29 11.5t35.5 18t50 23t14.5 53.5v450q0 34 -14.5 49t-50 21.5t-35.5 20.5q0 11 29 11z" />
<glyph unicode="&#x137;" horiz-adv-x="469" d="M191 -275q-13 0 -13 8.5t20.5 16t33.5 30t13 45.5t-30 30q-19 4 -34.5 17t-15.5 30t12.5 29t33.5 12q36 0 62 -28t26 -76.5t-39.5 -81t-68.5 -32.5zM459 -5l-182 5q-23 0 -23 9q0 11 22 19t22 18q0 5 -7 14l-126 145q-2 3 -6 1.5t-4.5 -14t-0.5 -58.5t1 -69q0 -31 35 -41 q23 -8 23 -17.5t-23 -9.5l-70 5l-78 -5q-23 0 -23 9.5t18 15.5t25 10q23 10 23 33v501q0 35 -10.5 51.5t-35.5 21.5q-8 2 -8 12.5t7 12.5q30 7 118 40h1l1 1q6 0 6 -6.5t-2 -22.5q-7 -56 -7 -114v-331q0 -9 6 -7q14 3 35 21q90 79 114 113q1 1 1 3q0 11 -26 17q-12 4 -12 8 q0 14 22 14h49q21 0 57 6t39 6q8 0 8 -6.5t-6.5 -13t-13.5 -8.5q-29 -6 -61 -25.5t-137 -111.5q-11 -9 -3 -17q36 -43 82.5 -93.5t64.5 -66.5q36 -34 82 -48q23 -8 23 -17.5t-20 -9.5z" />
<glyph unicode="&#x138;" horiz-adv-x="474" d="M461 -5l-121 5h-58q-23 0 -23 9q0 11 22 19t22 18q0 5 -7 14l-126 145q-5 5 -8 -2l-2 -8v-130q0 -31 35 -41q23 -8 23 -17.5t-23 -9.5l-70 5l-78 -5q-23 0 -23 9.5t18 15.5t26 10q22 10 22 33v214q0 63 -47 73q-8 2 -8 12.5t7 12.5q49 12 102 47q16 10 18 10q7 0 7 -5 q-9 -92 -9 -135v-63q0 -19 41 17q91 79 112 110q1 1 1 3q0 12 -24 17q-12 4 -12 8q0 14 22 14h49q21 0 57 6t39 6q8 0 8 -6.5t-6.5 -13t-13.5 -8.5q-29 -6 -61 -25.5t-137 -111.5q-11 -9 -3 -17q36 -43 82.5 -93.5t64.5 -66.5q36 -34 82 -48q23 -8 23 -17.5t-20 -9.5h-3z " />
<glyph unicode="&#x139;" horiz-adv-x="574" d="M154 697q-6 0 -6 7q0 14 82 133q9 13 25 13t38 -7t22 -15t-13 -20q-45 -38 -130 -102q-12 -9 -18 -9zM177 650l126 3q29 0 29 -11q0 -14 -28.5 -19t-40.5 -8t-27 -9q-26 -11 -26 -39v-471q0 -33 15 -47t62 -14h146q6 0 25 8q52 22 83 89q11 30 22.5 30t11.5 -18 q-1 -1 -1 -3v-2q-23 -86 -27 -127q-2 -17 -14 -17l-343 5l-135 -5q-28 0 -28 11.5t22 17.5q41 8 61 24t20 48v464q0 35 -11 45t-47 16.5t-36 20.5q0 11 29 11z" />
<glyph unicode="&#x13a;" horiz-adv-x="241" d="M31.5 730q-10.5 0 -10.5 8q0 5 8.5 14.5t66.5 45.5q85 53 103 53t30 -19t12 -28t-4 -12q-34 -19 -114.5 -40.5t-91 -21.5zM120 2l-81 -5q-20 0 -20 9.5t28 18.5t33 18.5t5 18.5v504q0 63 -46 73q-8 2 -8 12.5t7 12.5q25 6 116 40h1l1 1q6 0 6 -7q0 -3 -2 -18 q-5 -39 -5 -118v-500q0 -20 12 -26q13 -6 33.5 -13t20.5 -16.5t-20 -9.5z" />
<glyph unicode="&#x13b;" horiz-adv-x="574" d="M272 -275q-13 0 -13 8.5t20.5 16t33.5 30t13 45.5t-30 30q-19 4 -34.5 17t-15.5 30t12.5 29t33.5 12q36 0 62 -28t26 -76.5t-39.5 -81t-68.5 -32.5zM177 650l126 3q29 0 29 -11q0 -14 -28.5 -19t-40.5 -8t-27 -9q-26 -11 -26 -39v-471q0 -33 15 -47t62 -14h146q6 0 25 8 q52 22 83 89q11 30 22.5 30t11.5 -18q-1 -1 -1 -3v-2q-23 -86 -27 -127q-2 -17 -14 -17l-343 5l-135 -5q-28 0 -28 11.5t22 17.5q41 8 61 24t20 48v464q0 35 -11 45t-47 16.5t-36 20.5q0 11 29 11z" />
<glyph unicode="&#x13c;" horiz-adv-x="241" d="M78 -275q-13 0 -13 8.5t20.5 16t33.5 30t13 45.5t-30 30q-19 4 -34.5 17t-15.5 30t12.5 29t33.5 12q36 0 62 -28t26 -76.5t-39.5 -81t-68.5 -32.5zM120 2l-81 -5q-20 0 -20 9.5t28 18.5t33 18.5t5 18.5v504q0 63 -46 73q-8 2 -8 12.5t7 12.5q25 6 116 40h1l1 1q6 0 6 -7 q0 -3 -2 -18q-5 -39 -5 -118v-500q0 -20 12 -26q13 -6 33.5 -13t20.5 -16.5t-20 -9.5z" />
<glyph unicode="&#x13d;" horiz-adv-x="574" d="M444 480q-9 -8 -14 -8t-5.5 17t1.5 35t2 22t-2 28t-3 43t19 33t38 15q16 0 16 -30q0 -9 -1 -14q-9 -65 -38 -124q-4 -9 -13 -17zM177 650l126 3q29 0 29 -11q0 -14 -28.5 -19t-40.5 -8t-27 -9q-26 -11 -26 -39v-471q0 -33 15 -47t62 -14h146q6 0 25 8q52 22 83 89 q11 30 22.5 30t11.5 -18q-1 -1 -1 -3v-2q-23 -86 -27 -127q-2 -17 -14 -17l-343 5l-135 -5q-28 0 -28 11.5t22 17.5q41 8 61 24t20 48v464q0 35 -11 45t-47 16.5t-36 20.5q0 11 29 11z" />
<glyph unicode="&#x13e;" horiz-adv-x="246" d="M196 564q2 18 -1 34t-3 58q0 19 18 34t34.5 15t16.5 -30q0 -9 -1 -14q-13 -91 -50 -141q-6 -8 -11 -8t-5 17t2 35zM120 2l-81 -5q-20 0 -20 9.5t28 18.5t33 18.5t5 18.5v504q0 63 -46 73q-8 2 -8 12.5t7 12.5q25 6 116 40h1l1 1q6 0 6 -7q0 -3 -2 -18q-5 -39 -5 -118 v-500q0 -20 12 -26q13 -6 33.5 -13t20.5 -16.5t-20 -9.5z" />
<glyph unicode="&#x13f;" horiz-adv-x="574" d="M402 414q22 0 36 -14t14 -36t-14 -36t-36 -14t-36 14t-14 36t14 36t36 14zM177 650l126 3q29 0 29 -11q0 -14 -28.5 -19t-40.5 -8t-27 -9q-26 -11 -26 -39v-471q0 -33 15 -47t62 -14h146q6 0 25 8q52 22 83 89q11 30 22.5 30t11.5 -18q-1 -1 -1 -3v-2q-23 -86 -27 -127 q-2 -17 -14 -17l-343 5l-135 -5q-28 0 -28 11.5t22 17.5q41 8 61 24t20 48v464q0 35 -11 45t-47 16.5t-36 20.5q0 11 29 11z" />
<glyph unicode="&#x140;" horiz-adv-x="256" d="M246 414q22 0 36 -14t14 -36t-14 -36t-36 -14t-36 14t-14 36t14 36t36 14zM120 2l-81 -5q-20 0 -20 9.5t28 18.5t33 18.5t5 18.5v504q0 63 -46 73q-8 2 -8 12.5t7 12.5q25 6 116 40h1l1 1q6 0 6 -7q0 -3 -2 -18q-5 -39 -5 -118v-500q0 -20 12 -26q13 -6 33.5 -13 t20.5 -16.5t-20 -9.5z" />
<glyph unicode="&#x141;" horiz-adv-x="586" d="M172 650l126 3q29 0 29 -11q0 -14 -28.5 -19t-40.5 -8t-26 -9q-27 -11 -27 -39v-215l170 63q5 3 11.5 1t6.5 -7q0 -31 -18 -37l-170 -62v-214q0 -33 15 -47t62 -14h146q6 0 25 8q52 22 83 89q11 30 22.5 30t11.5 -18v-3l-1 -2q-23 -86 -27 -127q-2 -17 -14 -17l-343 5 l-135 -5q-28 0 -28 11.5t22 17.5q41 8 61 24t20 48v185l-65 -24q-6 -3 -13.5 -1.5t-7.5 7.5q0 28 14 33l72 26v238q0 35 -11 45t-47 16.5t-36 20.5q0 11 29 11z" />
<glyph unicode="&#x142;" horiz-adv-x="244" d="M122 2l-78 -5h-3q-20 0 -20 9.5t28 18.5t33 18.5t5 18.5v255l-54 -29q-6 -3 -13 3.5t-7 14.5t13 16l61 33v211q0 17 -12 42.5t-34 30.5q-9 2 -9 12.5t8 12.5q25 6 116 40h1l1 1q6 0 6 -7q0 -3 -2 -18q-4 -47 -4 -118v-169l57 30q4 2 7 2q11 0 11 -20q0 -10 -18 -20 l-58 -30v-293q0 -20 12 -26q13 -6 33.5 -13t20.5 -16.5t-20 -9.5h-3z" />
<glyph unicode="&#x143;" horiz-adv-x="770" d="M379 697q-6 0 -6 7q0 14 82 133q9 13 25 13t38 -7t22 -15t-13 -20q-45 -38 -130 -102q-12 -9 -18 -9zM25 658l154 -5q11 0 24 -17.5t187.5 -237t192.5 -241t26.5 -21.5t9.5 21q2 64 2 320v87q-1 18 -20.5 35t-45 21.5t-25.5 18.5q0 11 29 11h57l115 3q29 0 29 -11 q0 -14 -35 -20.5t-47.5 -17.5t-14 -47.5t-1.5 -548.5q0 -25 -21 -25q-11 0 -35 16.5t-48.5 50t-353.5 434.5q-13 16 -21.5 16t-8.5 -21q-5 -248 -5 -375q0 -68 64 -80q33 -6 33 -17.5t-29 -11.5l-94 5l-91 -5q-29 0 -29 11.5t28.5 16.5t44 34.5t18.5 49.5q18 150 18 400 q0 49 -24.5 73t-65 37t-40.5 27t23 14z" />
<glyph unicode="&#x144;" horiz-adv-x="527" d="M339.5 564q-43.5 -53 -69 -80.5t-35 -27.5t-9.5 17t81 158q11 18 27 18q49 0 49 -23q0 -9 -43.5 -62zM405 2l-82 -5q-20 0 -20 9.5t23 17.5q1 0 4 1q33 10 38 27q1 5 1 10v210q0 43 -25 68t-73.5 25t-79.5 -21t-31 -76v-206q0 -20 12 -26q13 -6 33.5 -13t20.5 -16.5 t-20 -9.5l-81 5l-81 -5q-20 0 -20 9.5t16.5 15t19 6t10.5 4.5t10 7q10 11 10 23v215q0 64 -41 72q-8 2 -8 13t7 12q52 12 110 55q1 1 3.5 1t5.5 -9l-7 -65q0 -7 1 -8q28 23 75.5 44.5t92.5 21.5t77.5 -40t32.5 -99v-213q0 -20 12 -26q13 -6 33.5 -13t20.5 -16.5t-20 -9.5z " />
<glyph unicode="&#x145;" horiz-adv-x="770" d="M363 -275q-13 0 -13 8.5t20.5 16t33.5 30t13 45.5t-30 30q-19 4 -34.5 17t-15.5 30t12.5 29t33.5 12q36 0 62 -28t26 -76.5t-39.5 -81t-68.5 -32.5zM25 658l154 -5q11 0 24 -17.5t187.5 -237t192.5 -241t26.5 -21.5t9.5 21q2 64 2 320v87q-1 18 -20.5 35t-45 21.5 t-25.5 18.5q0 11 29 11h57l115 3q29 0 29 -11q0 -14 -35 -20.5t-47.5 -17.5t-14 -47.5t-1.5 -548.5q0 -25 -21 -25q-11 0 -35 16.5t-48.5 50t-353.5 434.5q-13 16 -21.5 16t-8.5 -21q-5 -248 -5 -375q0 -68 64 -80q33 -6 33 -17.5t-29 -11.5l-94 5l-91 -5q-29 0 -29 11.5 t28.5 16.5t44 34.5t18.5 49.5q18 150 18 400q0 49 -24.5 73t-65 37t-40.5 27t23 14z" />
<glyph unicode="&#x146;" horiz-adv-x="527" d="M223 -275q-13 0 -13 8.5t20.5 16t33.5 30t13 45.5t-30 30q-19 4 -34.5 17t-15.5 30t12.5 29t33.5 12q36 0 62 -28t26 -76.5t-39.5 -81t-68.5 -32.5zM405 2l-82 -5q-20 0 -20 9.5t23 17.5q1 0 4 1q33 10 38 27q1 5 1 10v210q0 43 -25 68t-73.5 25t-79.5 -21t-31 -76v-206 q0 -20 12 -26q13 -6 33.5 -13t20.5 -16.5t-20 -9.5l-81 5l-81 -5q-20 0 -20 9.5t16.5 15t19 6t10.5 4.5t10 7q10 11 10 23v215q0 64 -41 72q-8 2 -8 13t7 12q52 12 110 55q1 1 3.5 1t5.5 -9l-7 -65q0 -7 1 -8q28 23 75.5 44.5t92.5 21.5t77.5 -40t32.5 -99v-213 q0 -20 12 -26q13 -6 33.5 -13t20.5 -16.5t-20 -9.5z" />
<glyph unicode="&#x147;" horiz-adv-x="770" d="M265 822q0 10 12 10t56.5 -21t61 -30.5t26.5 -3.5q24 14 68 35t55.5 21t11.5 -11q0 -7 -6 -12l-98 -88q-25 -22 -41 -22t-41 22l-98 88q-7 6 -7 12zM25 658l154 -5q11 0 24 -17.5t187.5 -237t192.5 -241t26.5 -21.5t9.5 21q2 64 2 320v87q-1 18 -20.5 35t-45 21.5 t-25.5 18.5q0 11 29 11h57l115 3q29 0 29 -11q0 -14 -35 -20.5t-47.5 -17.5t-14 -47.5t-1.5 -548.5q0 -25 -21 -25q-11 0 -35 16.5t-48.5 50t-353.5 434.5q-13 16 -21.5 16t-8.5 -21q-5 -248 -5 -375q0 -68 64 -80q33 -6 33 -17.5t-29 -11.5l-94 5l-91 -5q-29 0 -29 11.5 t28.5 16.5t44 34.5t18.5 49.5q18 150 18 400q0 49 -24.5 73t-65 37t-40.5 27t23 14z" />
<glyph unicode="&#x148;" horiz-adv-x="527" d="M254 550q3 -5 7 0q77 107 95 107q9 0 9 -15.5t-88 -151.5q-11 -18 -20 -18t-20 18q-88 136 -88 151.5t10 15.5q18 0 95 -107zM405 2l-82 -5q-20 0 -20 9.5t23 17.5q1 0 4 1q33 10 38 27q1 5 1 10v210q0 43 -25 68t-73.5 25t-79.5 -21t-31 -76v-206q0 -20 12 -26 q13 -6 33.5 -13t20.5 -16.5t-20 -9.5l-81 5l-81 -5q-20 0 -20 9.5t16.5 15t19 6t10.5 4.5t10 7q10 11 10 23v215q0 64 -41 72q-8 2 -8 13t7 12q52 12 110 55q1 1 3.5 1t5.5 -9l-7 -65q0 -7 1 -8q28 23 75.5 44.5t92.5 21.5t77.5 -40t32.5 -99v-213q0 -20 12 -26 q13 -6 33.5 -13t20.5 -16.5t-20 -9.5z" />
<glyph unicode="&#x149;" horiz-adv-x="492" d="M396 2l-82 -5q-20 0 -20 9.5t23 17.5q1 0 4 1q33 10 38 27q1 5 1 10v210q0 43 -25 68t-73.5 25t-79.5 -21t-31 -76v-206q0 -20 12 -26q13 -6 33.5 -13t20.5 -16.5t-20 -9.5l-81 5l-81 -5q-20 0 -20 9.5t16.5 15t19 6t10.5 4.5t10 7q10 11 10 23v215q0 64 -41 72 q-8 2 -8 13t7 12q52 12 110 55q1 1 3.5 1t5.5 -9l-7 -65q0 -7 1 -8q28 23 75.5 44.5t92.5 21.5t77.5 -40t32.5 -99v-213q0 -20 12 -26q13 -6 33.5 -13t20.5 -16.5t-20 -9.5zM4 524l-4 90v6q0 18 19 35q26 21 43 21q14 0 14 -32q0 -69 -47 -175q-10 -25 -19 -25q-7 0 -6.5 22 t0.5 58z" />
<glyph unicode="&#x14a;" horiz-adv-x="770" d="M631 650l115 3q29 0 29 -11q0 -14 -35 -20.5t-48 -17.5t-13 -36v-554q0 -47 -21 -140q-12 -54 -43 -91.5t-75.5 -37.5t-81.5 14.5t-37 41.5q0 16 7.5 32t19.5 16q32 0 48 -23q26 -37 64 -37q22 0 40 46.5t18 101.5t-20 82.5t-379 464.5q-13 16 -21.5 16t-8.5 -21 q-5 -248 -5 -375q0 -68 64 -80q33 -6 33 -17.5t-29 -11.5l-94 5l-91 -5q-29 0 -29 11.5t28.5 16.5t44 34.5t18.5 49.5q18 150 18 400q0 49 -24.5 73t-65 37t-40.5 27t23 14l154 -5q11 0 24 -17.5t187.5 -237t192.5 -241t26.5 -21.5t9.5 21q2 64 2 320v87q-1 18 -20.5 35 t-45 21.5t-25.5 18.5q0 11 29 11h57z" />
<glyph unicode="&#x14b;" horiz-adv-x="513" d="M360 50l-3 222q0 43 -25.5 68t-71.5 25t-87 -31q-25 -18 -25 -66v-199q0 -32 42 -45q23 -8 23 -17.5t-23 -9.5l-78 5l-78 -5q-23 0 -23 9.5t18 15.5t25.5 9.5t15 12.5t8.5 22q1 47 1 115t-1 92.5t-4 36.5q-8 34 -37 39q-8 2 -8 13t7 12q52 12 110 55q1 1 3.5 1t5.5 -9 l-7 -65q0 -7 1 -8q18 18 72.5 42t100.5 24t75 -31t30 -88l3 -205q0 -206 -19.5 -264.5t-58 -86t-82 -27.5t-59.5 6q-35 15 -35 27.5t9 30t18.5 17.5t30 -24.5t42.5 -24.5t42 15t27 40q15 51 15 251z" />
<glyph unicode="&#x14c;" horiz-adv-x="763" d="M257 777h263q5 0 9 -4t4 -13.5t-9.5 -23t-21.5 -13.5h-255q-5 0 -9.5 3.5t-4.5 12t6 23.5t18 15zM557 538q-64 87 -176 87t-175.5 -82t-63.5 -203.5t72.5 -218t181.5 -96.5t167 74.5t58 213t-64 225.5zM45 320q0 93 38.5 169.5t118.5 125.5t188 49q134 0 231 -92.5 t97 -236.5q0 -141 -86 -242q-41 -49 -106 -78t-144 -29q-135 0 -236 97t-101 237z" />
<glyph unicode="&#x14d;" horiz-adv-x="495" d="M150 555h203q5 0 9 -4t4 -15t-8 -23.5t-23 -12.5h-195q-5 0 -9.5 4t-4.5 12t6 23.5t18 15.5zM237 383q-120 0 -120 -173q0 -77 40 -135.5t98 -58.5q75 0 103 55q20 39 20 116t-40 136.5t-101 59.5zM99.5 343.5q64.5 70.5 152.5 70.5t148 -59.5t60 -147.5t-59.5 -154.5 t-166.5 -66.5q-85 0 -142 57t-57 143.5t64.5 157z" />
<glyph unicode="&#x14e;" horiz-adv-x="763" d="M243 846q10 0 22.5 -22t42 -42t75.5 -20t75.5 20t42 42t22.5 22t10 -24q0 -49 -45.5 -89.5t-105.5 -40.5t-104.5 37.5t-44.5 92.5q0 24 10 24zM557 538q-64 87 -176 87t-175.5 -82t-63.5 -203.5t72.5 -218t181.5 -96.5t167 74.5t58 213t-64 225.5zM45 320 q0 93 38.5 169.5t118.5 125.5t188 49q134 0 231 -92.5t97 -236.5q0 -141 -86 -242q-41 -49 -106 -78t-144 -29q-135 0 -236 97t-101 237z" />
<glyph unicode="&#x14f;" horiz-adv-x="495" d="M169 587q10 -49 77 -49t77 49q4 21 15 21q15 0 15 -24q0 -41 -29 -73.5t-78 -32.5t-78 32.5t-29 73.5q0 24 15 24q11 0 15 -21zM237 383q-120 0 -120 -173q0 -77 40 -135.5t98 -58.5q75 0 103 55q20 39 20 116t-40 136.5t-101 59.5zM99.5 343.5q64.5 70.5 152.5 70.5 t148 -59.5t60 -147.5t-59.5 -154.5t-166.5 -66.5q-85 0 -142 57t-57 143.5t64.5 157z" />
<glyph unicode="&#x150;" horiz-adv-x="763" d="M424 697q-6 0 -6 7q0 14 82 133q9 13 25 13t38 -7t22 -15t-13 -20q-45 -38 -130 -102q-12 -9 -18 -9zM292 697q-6 0 -6 7q0 14 82 133q9 13 25 13t38 -7t22 -15t-13 -20q-45 -38 -130 -102q-12 -9 -18 -9zM557 538q-64 87 -176 87t-175.5 -82t-63.5 -203.5t72.5 -218 t181.5 -96.5t167 74.5t58 213t-64 225.5zM45 320q0 93 38.5 169.5t118.5 125.5t188 49q134 0 231 -92.5t97 -236.5q0 -141 -86 -242q-41 -49 -106 -78t-144 -29q-135 0 -236 97t-101 237z" />
<glyph unicode="&#x151;" horiz-adv-x="495" d="M388.5 564q-43.5 -53 -69 -80.5t-35 -27.5t-9.5 17t81 158q11 18 27 18q49 0 49 -23q0 -9 -43.5 -62zM264.5 564q-43.5 -53 -69 -80.5t-35 -27.5t-9.5 17t81 158q11 18 27 18q49 0 49 -23q0 -9 -43.5 -62zM237 383q-120 0 -120 -173q0 -77 40 -135.5t98 -58.5 q75 0 103 55q20 39 20 116t-40 136.5t-101 59.5zM99.5 343.5q64.5 70.5 152.5 70.5t148 -59.5t60 -147.5t-59.5 -154.5t-166.5 -66.5q-85 0 -142 57t-57 143.5t64.5 157z" />
<glyph unicode="&#x152;" horiz-adv-x="933" d="M892 -5l-319 6q-38 0 -65.5 -2.5t-34.5 -2.5l-7 -1q-39 -9 -84 -9q-135 0 -236 97t-101 237q0 93 38.5 169.5t118.5 125.5t188 49q43 0 91 -12q12 -3 83 -3l292 4q17 0 18 -9q15 -81 15 -99.5t-14 -18.5q-8 0 -11 10q-15 47 -22 55q-24 27 -67 27h-131q-10 0 -23 -9.5 t-13 -22.5v-212q0 -9 5.5 -15.5t12.5 -6.5h96q44 0 61 39q2 4 8.5 10.5t10 6.5t8 -4.5t4.5 -11.5l-3 -55l2 -68q0 -17 -9 -17q-16 0 -23 23q-15 45 -46 45h-93q-19 0 -26.5 -5t-7.5 -21v-192q0 -37 15.5 -52t50.5 -15h104q53 0 74 16.5t44 64.5q6 11 16.5 9.5t10.5 -10.5 q0 -40 -17 -103q-4 -17 -14 -17zM529 364l-1 113v63q-10 85 -153 85q-106 0 -169.5 -82t-63.5 -203.5t72.5 -218t180.5 -96.5q105 0 123 24q10 12 10 31v1l1 241v42z" />
<glyph unicode="&#x153;" horiz-adv-x="755" d="M237 383q-120 0 -120 -173q0 -77 40 -135.5t98 -58.5q75 0 103 55q20 39 20 116t-40 136.5t-101 59.5zM99.5 343.5q64.5 70.5 158.5 70.5t157 -76q8 -11 14 -3q56 77 157 79q72 0 105.5 -25.5t33.5 -68t-21.5 -53t-55.5 -10.5h-164q-14 0 -19.5 -6.5t-5.5 -30.5 q0 -73 42.5 -122.5t105 -49.5t93.5 40q5 5 9.5 5t8.5 -5t3 -11q-9 -32 -51 -61.5t-94 -29.5q-104 0 -157 79q-6 8 -11 0q-62 -79 -174 -79q-85 0 -142 57t-57 143.5t64.5 157zM482 318q-4 -7 -4 -15q0 -15 19 -15h82q47 0 73 5q8 1 8 26v14q-5 50 -80 50q-63 0 -98 -65z" />
<glyph unicode="&#x154;" horiz-adv-x="689" d="M251 697q-6 0 -6 7q0 14 82 133q9 13 25 13t38 -7t22 -15t-13 -20q-45 -38 -130 -102q-12 -9 -18 -9zM371.5 373q41.5 44 41.5 109t-28.5 105t-106.5 40q-38 0 -50.5 -14t-13.5 -40q-4 -97 -4 -209q0 -23 12 -29t41 -6q67 0 108.5 44zM163 652l115 5q225 0 225 -164 q0 -108 -118 -168q-7 -3 0 -13q45 -68 62.5 -93.5t57 -73t83.5 -87.5q24 -21 49 -27t66 -6q15 0 15 -11q0 -19 -26.5 -27t-54.5 -8q-94 0 -138 54q-76 91 -104 133.5t-45 71.5q-34 53 -125 64q-15 2 -15 -20v-172q0 -74 67 -86q33 -6 33 -17.5t-29 -11.5t-55 3.5t-43 3.5 l-130 -7q-29 0 -29 11.5t36 18t53 23t17 52.5v422q0 48 -12.5 71t-47 29t-34.5 20q0 11 29 11z" />
<glyph unicode="&#x155;" horiz-adv-x="334" d="M271.5 564q-43.5 -53 -69 -80.5t-35 -27.5t-9.5 17t81 158q11 18 27 18q49 0 49 -23q0 -9 -43.5 -62zM130 2l-81 -5q-20 0 -20 9.5t18 15.5t24 8.5t12.5 10.5t6.5 21v215q0 63 -41 72q-8 2 -8 12.5t7 12.5q38 8 56 20q34 22 45 28.5t11 7t2.5 0.5t4.5 -7q0 -27 -1.5 -52 t0 -25t5.5 5q14 17 18 20q48 43 92 43q21 0 34.5 -9t13.5 -24t-12.5 -33t-23.5 -18t-32 9t-31 9q-29 0 -49.5 -19t-20.5 -65v-197q1 -27 54 -43q23 -8 23 -17.5t-20 -9.5z" />
<glyph unicode="&#x156;" horiz-adv-x="689" d="M332 -275q-13 0 -13 8.5t20.5 16t33.5 30t13 45.5t-30 30q-19 4 -34.5 17t-15.5 30t12.5 29t33.5 12q36 0 62 -28t26 -76.5t-39.5 -81t-68.5 -32.5zM371.5 373q41.5 44 41.5 109t-28.5 105t-106.5 40q-38 0 -50.5 -14t-13.5 -40q-4 -97 -4 -209q0 -23 12 -29t41 -6 q67 0 108.5 44zM163 652l115 5q225 0 225 -164q0 -108 -118 -168q-7 -3 0 -13q45 -68 62.5 -93.5t57 -73t83.5 -87.5q24 -21 49 -27t66 -6q15 0 15 -11q0 -19 -26.5 -27t-54.5 -8q-94 0 -138 54q-76 91 -104 133.5t-45 71.5q-34 53 -125 64q-15 2 -15 -20v-172q0 -74 67 -86 q33 -6 33 -17.5t-29 -11.5t-55 3.5t-43 3.5l-130 -7q-29 0 -29 11.5t36 18t53 23t17 52.5v422q0 48 -12.5 71t-47 29t-34.5 20q0 11 29 11z" />
<glyph unicode="&#x157;" horiz-adv-x="334" d="M89 -275q-13 0 -13 8.5t20.5 16t33.5 30t13 45.5t-30 30q-19 4 -34.5 17t-15.5 30t12.5 29t33.5 12q36 0 62 -28t26 -76.5t-39.5 -81t-68.5 -32.5zM130 2l-81 -5q-20 0 -20 9.5t18 15.5t24 8.5t12.5 10.5t6.5 21v215q0 63 -41 72q-8 2 -8 12.5t7 12.5q38 8 56 20 q34 22 45 28.5t11 7t2.5 0.5t4.5 -7q0 -27 -1.5 -52t0 -25t5.5 5q14 17 18 20q48 43 92 43q21 0 34.5 -9t13.5 -24t-12.5 -33t-23.5 -18t-32 9t-31 9q-29 0 -49.5 -19t-20.5 -65v-197q1 -27 54 -43q23 -8 23 -17.5t-20 -9.5z" />
<glyph unicode="&#x158;" horiz-adv-x="689" d="M137 822q0 10 12 10t56.5 -21t61 -30.5t26.5 -3.5q24 14 68 35t55.5 21t11.5 -11q0 -7 -6 -12l-98 -88q-25 -22 -41 -22t-41 22l-98 88q-7 6 -7 12zM371.5 373q41.5 44 41.5 109t-28.5 105t-106.5 40q-38 0 -50.5 -14t-13.5 -40q-4 -97 -4 -209q0 -23 12 -29t41 -6 q67 0 108.5 44zM163 652l115 5q225 0 225 -164q0 -108 -118 -168q-7 -3 0 -13q45 -68 62.5 -93.5t57 -73t83.5 -87.5q24 -21 49 -27t66 -6q15 0 15 -11q0 -19 -26.5 -27t-54.5 -8q-94 0 -138 54q-76 91 -104 133.5t-45 71.5q-34 53 -125 64q-15 2 -15 -20v-172q0 -74 67 -86 q33 -6 33 -17.5t-29 -11.5t-55 3.5t-43 3.5l-130 -7q-29 0 -29 11.5t36 18t53 23t17 52.5v422q0 48 -12.5 71t-47 29t-34.5 20q0 11 29 11z" />
<glyph unicode="&#x159;" horiz-adv-x="334" d="M186 550q3 -5 7 0q77 107 95 107q9 0 9 -15.5t-88 -151.5q-11 -18 -20 -18t-20 18q-88 136 -88 151.5t10 15.5q18 0 95 -107zM130 2l-81 -5q-20 0 -20 9.5t18 15.5t24 8.5t12.5 10.5t6.5 21v215q0 63 -41 72q-8 2 -8 12.5t7 12.5q38 8 56 20q34 22 45 28.5t11 7t2.5 0.5 t4.5 -7q0 -27 -1.5 -52t0 -25t5.5 5q14 17 18 20q48 43 92 43q21 0 34.5 -9t13.5 -24t-12.5 -33t-23.5 -18t-32 9t-31 9q-29 0 -49.5 -19t-20.5 -65v-197q1 -27 54 -43q23 -8 23 -17.5t-20 -9.5z" />
<glyph unicode="&#x15a;" horiz-adv-x="465" d="M208 697q-6 0 -6 7q0 14 82 133q9 13 25 13t38 -7t22 -15t-13 -20q-45 -38 -130 -102q-12 -9 -18 -9zM92 103q28 -86 135 -86q51 0 81 31t30 84q0 84 -152 186q-61 41 -94 82.5t-33 103t57 111t144 49.5q50 0 83 -10t36 -10q14 0 20 -38q6 -41 6 -67.5t-7 -26.5 q-29 0 -35 28q-7 43 -38 67t-76.5 24t-79 -29.5t-33.5 -78.5q0 -46 50 -87q42 -35 83 -61q153 -99 153 -215q0 -69 -52 -122.5t-156 -53.5q-83 0 -134 24q-17 8 -21 17q-18 38 -18 115q0 8 6.5 18.5t15 10.5t29.5 -66z" />
<glyph unicode="&#x15b;" horiz-adv-x="323" d="M257.5 564q-43.5 -53 -69 -80.5t-35 -27.5t-9.5 17t81 158q11 18 27 18q49 0 49 -23q0 -9 -43.5 -62zM219 370q-19 18 -45.5 18t-43.5 -18t-17 -42t17 -44t29.5 -28.5t38 -24.5t40.5 -27t35 -39.5t20 -58.5q0 -120 -144 -120q-37 0 -69 12.5t-37 23.5q-11 23 -13 61 q0 9 15.5 9t16.5 -7q5 -26 34 -49t61.5 -23t50 19t17.5 47t-18 47.5t-60.5 49.5t-68 58.5t-25.5 69.5t33 75.5t93 34.5t83 -23q17 -21 17 -78q0 -4 -7 -4t-20 7.5t-13 13.5q-1 22 -20 40z" />
<glyph unicode="&#x15c;" horiz-adv-x="465" d="M162.5 722q-44.5 -21 -56.5 -21t-12 10q0 6 7 12l98 88q25 22 41 22t41 -22l98 -88q6 -5 6 -12q0 -11 -11.5 -11t-55.5 21t-61 31t-27 4q-23 -13 -67.5 -34zM92 103q28 -86 135 -86q51 0 81 31t30 84q0 84 -152 186q-61 41 -94 82.5t-33 103t57 111t144 49.5q50 0 83 -10 t36 -10q14 0 20 -38q6 -41 6 -67.5t-7 -26.5q-29 0 -35 28q-7 43 -38 67t-76.5 24t-79 -29.5t-33.5 -78.5q0 -46 50 -87q42 -35 83 -61q153 -99 153 -215q0 -69 -52 -122.5t-156 -53.5q-83 0 -134 24q-17 8 -21 17q-18 38 -18 115q0 8 6.5 18.5t15 10.5t29.5 -66z" />
<glyph unicode="&#x15d;" horiz-adv-x="323" d="M173 553q-30 -36 -66 -84q-17 -22 -30 -22q-9 0 -9 11.5t33.5 74t49 89t25.5 26.5t26 -27t49.5 -89t33.5 -73.5t-12 -11.5t-27 22q-18 24 -66 84q-4 5 -7 0zM219 370q-19 18 -45.5 18t-43.5 -18t-17 -42t17 -44t29.5 -28.5t38 -24.5t40.5 -27t35 -39.5t20 -58.5 q0 -120 -144 -120q-37 0 -69 12.5t-37 23.5q-11 23 -13 61q0 9 15.5 9t16.5 -7q5 -26 34 -49t61.5 -23t50 19t17.5 47t-18 47.5t-60.5 49.5t-68 58.5t-25.5 69.5t33 75.5t93 34.5t83 -23q17 -21 17 -78q0 -4 -7 -4t-20 7.5t-13 13.5q-1 22 -20 40z" />
<glyph unicode="&#x15e;" horiz-adv-x="465" d="M234 -15l-20 -1q-83 0 -134 24q-17 8 -21 17q-18 38 -18 115q0 8 6.5 18.5t15 10.5t29.5 -66q14 -43 49 -64.5t86 -21.5t81 31t30 84q0 84 -152 186q-61 41 -94 82.5t-33 103t57 111t144 49.5q50 0 83 -10t36 -10q14 0 20 -38q6 -41 6 -67.5t-7 -26.5q-29 0 -35 28 q-7 43 -38 67t-76.5 24t-79 -29.5t-33.5 -78.5q0 -46 50 -87q42 -35 83 -61q153 -99 153 -215q0 -58 -38.5 -107t-114.5 -64l-28 -43q-7 -9 14.5 -18t41.5 -32t20 -55q0 -47 -45 -81.5t-87 -34.5t-42 32q0 34 16 34q2 0 8 -3q16 -10 44 -10q53 0 53 39q0 21 -11.5 37.5 t-35.5 16.5l-26 -3q-12 0 -19 6t-7 12t6 14z" />
<glyph unicode="&#x15f;" horiz-adv-x="323" d="M130 -123l-26 -6q-6 0 -12 4.5t-6 9t5 11.5l71 90h-13q-37 0 -69 12.5t-37 23.5q-11 23 -13 61q0 9 15.5 9t16.5 -7q5 -26 34 -49t61.5 -23t50 19t17.5 47t-18 47.5t-60.5 49.5t-68 58.5t-25.5 69.5t33 75.5t93 34.5t83 -23q17 -21 17 -78q0 -4 -7 -4t-20 7.5t-13 13.5 q-1 22 -20 40t-45.5 18t-43.5 -18t-17 -42t17 -44t29.5 -28.5t38 -24.5t40.5 -27t35 -39.5t20 -58.5q0 -99 -97 -116l-25 -33q-4 -4 -4 -8q0 -9 18.5 -16t36 -27.5t17.5 -44.5q0 -54 -45.5 -94.5t-79.5 -40.5q-30 0 -30 41q0 9 4.5 14t8.5 5l17 -6q16 -6 36 -5q39 0 39 45 q0 27 -16 42t-43 15z" />
<glyph unicode="&#x160;" horiz-adv-x="465" d="M94 822q0 10 12 10t56.5 -21t61 -30.5t26.5 -3.5q24 14 68 35t55.5 21t11.5 -11q0 -7 -6 -12l-98 -88q-25 -22 -41 -22t-41 22l-98 88q-7 6 -7 12zM92 103q28 -86 135 -86q51 0 81 31t30 84q0 84 -152 186q-61 41 -94 82.5t-33 103t57 111t144 49.5q50 0 83 -10t36 -10 q14 0 20 -38q6 -41 6 -67.5t-7 -26.5q-29 0 -35 28q-7 43 -38 67t-76.5 24t-79 -29.5t-33.5 -78.5q0 -46 50 -87q42 -35 83 -61q153 -99 153 -215q0 -69 -52 -122.5t-156 -53.5q-83 0 -134 24q-17 8 -21 17q-18 38 -18 115q0 8 6.5 18.5t15 10.5t29.5 -66z" />
<glyph unicode="&#x161;" horiz-adv-x="323" d="M172 550q3 -5 7 0q77 107 95 107q9 0 9 -15.5t-88 -151.5q-11 -18 -20 -18t-20 18q-88 136 -88 151.5t10 15.5q18 0 95 -107zM219 370q-19 18 -45.5 18t-43.5 -18t-17 -42t17 -44t29.5 -28.5t38 -24.5t40.5 -27t35 -39.5t20 -58.5q0 -120 -144 -120q-37 0 -69 12.5 t-37 23.5q-11 23 -13 61q0 9 15.5 9t16.5 -7q5 -26 34 -49t61.5 -23t50 19t17.5 47t-18 47.5t-60.5 49.5t-68 58.5t-25.5 69.5t33 75.5t93 34.5t83 -23q17 -21 17 -78q0 -4 -7 -4t-20 7.5t-13 13.5q-1 22 -20 40z" />
<glyph unicode="&#x162;" horiz-adv-x="670" d="M308 -119l-26 -3q-12 0 -19 6t-7 12t6 14l67 90l-115 -5q-29 0 -29 11.5t36 17.5q75 14 75 78v455q0 40 -18 43q-19 4 -74 4h-47q-26 0 -49 -10t-31 -25.5t-20.5 -28.5t-22.5 -13q-7 0 -7 11.5t5 21.5q22 46 31 111q3 23 17 23q8 0 25 -32q11 -20 70 -20h381q38 0 58 14 q7 5 17.5 15t18 15.5t14.5 5.5t7 -23l-1 -9q-16 -66 -16 -99v-12q0 -10 -4.5 -21t-11.5 -11q-11 0 -19 41q-8 46 -99.5 46t-127.5 -4q-16 -2 -16 -43v-455q0 -64 79 -78q33 -6 33 -17.5t-29 -11.5l-98 5l-29 -44q-7 -9 14.5 -18t41.5 -32t20 -55q0 -47 -45 -81.5t-87 -34.5 t-42 32q0 34 16 34q2 0 8 -3q16 -10 44 -10q53 0 53 39q0 21 -11.5 37.5t-35.5 16.5z" />
<glyph unicode="&#x163;" horiz-adv-x="314" d="M142 -123l-26 -6q-6 0 -12 4.5t-6 9t5 11.5l71 91q-89 8 -89 118v232q0 9 -7.5 12t-30.5 3q-3 0 -7.5 7.5t-4.5 12t5 7.5q23 7 47 29t39 41t18 19q14 0 14 -10l-2 -44q0 -14 24 -14h114q10 0 10 -24t-10 -24h-99q-27 0 -33.5 -4t-6.5 -24v-189q0 -51 19 -72.5t47 -21.5 q50 0 75 19q4 3 7 -1.5t3 -11t-13 -18.5t-37.5 -25t-49.5 -17l-23 -30q-4 -4 -4 -8q0 -9 18.5 -16t36 -27.5t17.5 -44.5q0 -54 -45.5 -94.5t-79.5 -40.5q-30 0 -30 41q0 9 4.5 14t8.5 5l17 -6q16 -6 36 -5q39 0 39 45q0 27 -16 42t-43 15z" />
<glyph unicode="&#x164;" horiz-adv-x="670" d="M195 822q0 10 12 10t56.5 -21t61 -30.5t26.5 -3.5q24 14 68 35t55.5 21t11.5 -11q0 -7 -6 -12l-98 -88q-25 -22 -41 -22t-41 22l-98 88q-7 6 -7 12zM671 669l-1 -9q-16 -66 -16 -99v-12q0 -10 -4.5 -21t-11.5 -11q-11 0 -19 41q-8 46 -99.5 46t-127.5 -4q-16 -2 -16 -43 v-455q0 -64 79 -78q33 -6 33 -17.5t-29 -11.5l-117 5l-128 -5q-29 0 -29 11.5t36 17.5q75 14 75 78v455q0 40 -18 43q-19 4 -74 4h-47q-26 0 -49 -10t-31 -25.5t-20.5 -28.5t-22.5 -13q-7 0 -7 11.5t5 21.5q22 46 31 111q3 23 17 23q8 0 25 -32q11 -20 70 -20h381 q38 0 58 14q7 5 17.5 15t18 15.5t14.5 5.5t7 -23z" />
<glyph unicode="&#x165;" horiz-adv-x="314" d="M220 529l-5 73q0 18 18 33t34.5 15t16.5 -30q0 -9 -1 -14q-9 -65 -38 -124q-13 -25 -22 -25q-11 0 -5 53q2 18 2 19zM189 -14q-49 0 -76.5 29.5t-27.5 89.5v232q0 9 -7.5 12t-30.5 3q-3 0 -7.5 7.5t-4.5 12t5 7.5q23 7 47 29t39 41t18 19q14 0 14 -10l-2 -44 q0 -14 24 -14h114q10 0 10 -24t-10 -24h-99q-27 0 -33.5 -4t-6.5 -24v-189q0 -51 19 -72.5t47 -21.5q50 0 75 19q4 3 7 -1.5t3 -11t-16 -21t-44.5 -27.5t-56.5 -13z" />
<glyph unicode="&#x166;" horiz-adv-x="670" d="M342 0l-128 -5q-29 0 -29 11.5t36 18t55.5 25t19.5 55.5v257h-125q-6 0 -10 6t-4 12.5t7.5 12t16.5 5.5h115v159q0 40 -18 43q-19 4 -76 4h-45q-26 0 -49 -10t-31 -25.5t-20.5 -28.5t-22.5 -13q-7 0 -7 11.5t5 21.5q22 46 31 111q3 23 17 23q8 0 25 -32 q10 -18 86.5 -20.5t156.5 -2.5t210 6q61 2 75 21.5t21 19.5q16 0 16 -16.5t-8 -56t-8 -56.5v-5q0 -25 -13 -25h-2q-9 2 -14 16t-5.5 15.5t-3 8t-4.5 9t-5.5 8t-8.5 8.5t-12 6q-16 6 -42 6q-116 0 -152 -4q-16 -2 -16 -43v-159h132q6 0 10.5 -4.5t2.5 -9.5q-12 -22 -31 -22 h-114v-257q0 -37 19.5 -55.5t56 -25t36.5 -18t-29 -11.5z" />
<glyph unicode="&#x167;" horiz-adv-x="317" d="M40 352q-5 1 -9 11.5t2 12.5q49 20 87 74q9 12 20.5 12t11.5 -3l-6 -45q-2 -14 22 -14h118q8 0 8 -24t-8 -24h-103q-28 0 -34 -2t-6 -12v-92h95q6 0 10.5 -4.5t2.5 -9.5q-13 -24 -31 -24h-77v-101q0 -30 21.5 -53t48.5 -23q44 0 75 23q4 3 7 -1.5t3 -9.5t-2 -9 q-8 -14 -44.5 -31t-75.5 -17t-71 28t-32 69v125h-42q-14 0 -14 13q0 7 8 16t16 9h32v91q0 12 -8 13q-9 2 -25 2z" />
<glyph unicode="&#x168;" horiz-adv-x="738" d="M339 801l116 -11q20 0 38.5 19.5t21.5 19.5q17 0 17 -20.5t-28 -51t-55 -30.5l-121 9q-20 0 -37.5 -20.5t-19.5 -20.5q-7 0 -13 5t-6 12q0 26 30 57.5t57 31.5zM618 650l81 3q29 0 29 -11q0 -13 -33 -20q-47 -9 -50 -75q-1 -11 -10 -297q-4 -116 -75.5 -190t-179.5 -74 q-142 0 -209.5 73.5t-67.5 221.5v266q0 60 -46 73q-33 9 -33 22q0 11 29 11l96 -3l80 2q29 0 29 -11q0 -9 -33 -20q-14 -4 -28 -24.5t-14 -47.5v-296q0 -90 64.5 -153.5t156.5 -63.5t140 69.5t48 190.5q0 61 -4 215q-2 98 -41 109q-33 9 -33 20t29 11z" />
<glyph unicode="&#x169;" horiz-adv-x="527" d="M308 500l-112 7q-15 0 -35 -18.5t-22 -18.5q-14 0 -14 20q0 10 35.5 47t52.5 37l107 -8q21 0 38.5 17t18.5 17q16 0 16 -17q0 -10 -34 -46.5t-51 -36.5zM359 -15l5 66v6q-72 -71 -165 -71q-51 0 -82.5 31t-31.5 88v203q0 40 -43 57q-13 4 -13 16.5t15 15.5q35 1 103 17 q7 1 11 -3t3 -11q-6 -46 -6 -77v-195q0 -36 26 -63.5t58 -27.5q58 0 84 20q45 33 45 75v183q0 27 -21 38t-44 11.5t-23 17.5q0 8 8.5 11.5t26.5 4t36 2t31 3.5t18 3q6 0 32 9h2q7 0 11.5 -6t-1.5 -16t-6 -67v-212q0 -69 18 -69q31 0 46 3t15 -12t-14 -15q-52 -7 -90.5 -23.5 t-46 -16.5t-7.5 4z" />
<glyph unicode="&#x16a;" horiz-adv-x="738" d="M264 777h263q5 0 9 -4t4 -13.5t-9.5 -23t-21.5 -13.5h-255q-5 0 -9.5 3.5t-4.5 12t6 23.5t18 15zM618 650l81 3q29 0 29 -11q0 -13 -33 -20q-47 -9 -50 -75q-1 -11 -10 -297q-4 -116 -75.5 -190t-179.5 -74q-142 0 -209.5 73.5t-67.5 221.5v266q0 60 -46 73q-33 9 -33 22 q0 11 29 11l96 -3l80 2q29 0 29 -11q0 -9 -33 -20q-14 -4 -28 -24.5t-14 -47.5v-296q0 -90 64.5 -153.5t156.5 -63.5t140 69.5t48 190.5q0 61 -4 215q-2 98 -41 109q-33 9 -33 20t29 11z" />
<glyph unicode="&#x16b;" horiz-adv-x="527" d="M155 555h203q5 0 9 -4t4 -15t-8 -23.5t-23 -12.5h-195q-5 0 -9.5 4t-4.5 12t6 23.5t18 15.5zM359 -15l5 66v6q-72 -71 -165 -71q-51 0 -82.5 31t-31.5 88v203q0 40 -43 57q-13 4 -13 16.5t15 15.5q35 1 103 17q7 1 11 -3t3 -11q-6 -46 -6 -77v-195q0 -36 26 -63.5 t58 -27.5q58 0 84 20q45 33 45 75v183q0 27 -21 38t-44 11.5t-23 17.5q0 8 8.5 11.5t26.5 4t36 2t31 3.5t18 3q6 0 32 9h2q7 0 11.5 -6t-1.5 -16t-6 -67v-212q0 -69 18 -69q31 0 46 3t15 -12t-14 -15q-52 -7 -90.5 -23.5t-46 -16.5t-7.5 4z" />
<glyph unicode="&#x16c;" horiz-adv-x="738" d="M250 846q10 0 22.5 -22t42 -42t75.5 -20t75.5 20t42 42t22.5 22t10 -24q0 -49 -45.5 -89.5t-105.5 -40.5t-104.5 37.5t-44.5 92.5q0 24 10 24zM618 650l81 3q29 0 29 -11q0 -13 -33 -20q-47 -9 -50 -75q-1 -11 -10 -297q-4 -116 -75.5 -190t-179.5 -74 q-142 0 -209.5 73.5t-67.5 221.5v266q0 60 -46 73q-33 9 -33 22q0 11 29 11l96 -3l80 2q29 0 29 -11q0 -9 -33 -20q-14 -4 -28 -24.5t-14 -47.5v-296q0 -90 64.5 -153.5t156.5 -63.5t140 69.5t48 190.5q0 61 -4 215q-2 98 -41 109q-33 9 -33 20t29 11z" />
<glyph unicode="&#x16d;" horiz-adv-x="527" d="M174 587q10 -49 77 -49t77 49q4 21 15 21q15 0 15 -24q0 -41 -29 -73.5t-78 -32.5t-78 32.5t-29 73.5q0 24 15 24q11 0 15 -21zM359 -15l5 66v6q-72 -71 -165 -71q-51 0 -82.5 31t-31.5 88v203q0 40 -43 57q-13 4 -13 16.5t15 15.5q35 1 103 17q7 1 11 -3t3 -11 q-6 -46 -6 -77v-195q0 -36 26 -63.5t58 -27.5q58 0 84 20q45 33 45 75v183q0 27 -21 38t-44 11.5t-23 17.5q0 8 8.5 11.5t26.5 4t36 2t31 3.5t18 3q6 0 32 9h2q7 0 11.5 -6t-1.5 -16t-6 -67v-212q0 -69 18 -69q31 0 46 3t15 -12t-14 -15q-52 -7 -90.5 -23.5t-46 -16.5 t-7.5 4z" />
<glyph unicode="&#x16e;" horiz-adv-x="738" d="M328.5 839.5q27.5 24.5 65 24.5t61.5 -21t24 -57t-27.5 -61t-64 -25t-61.5 21.5t-25 57.5t27.5 60.5zM352.5 823q-13.5 -18 -13.5 -41.5t16 -41.5t38.5 -18t35 18.5t12.5 42t-15.5 41t-37.5 17.5t-35.5 -18zM618 650l81 3q29 0 29 -11q0 -13 -33 -20q-47 -9 -50 -75 q-1 -11 -10 -297q-4 -116 -75.5 -190t-179.5 -74q-142 0 -209.5 73.5t-67.5 221.5v266q0 60 -46 73q-33 9 -33 22q0 11 29 11l96 -3l80 2q29 0 29 -11q0 -9 -33 -20q-14 -4 -28 -24.5t-14 -47.5v-296q0 -90 64.5 -153.5t156.5 -63.5t140 69.5t48 190.5q0 61 -4 215 q-2 98 -41 109q-33 9 -33 20t29 11z" />
<glyph unicode="&#x16f;" horiz-adv-x="527" d="M255 647q33 0 57 -22.5t24 -58t-26.5 -61t-60 -25.5t-57.5 25t-24 58t27 58.5t60 25.5zM209 568q0 -25 13.5 -43.5t33.5 -18.5q39 0 39 56q0 22 -14.5 40t-34.5 18q-37 0 -37 -52zM359 -15l5 66v6q-72 -71 -165 -71q-51 0 -82.5 31t-31.5 88v203q0 40 -43 57 q-13 4 -13 16.5t15 15.5q35 1 103 17q7 1 11 -3t3 -11q-6 -46 -6 -77v-195q0 -36 26 -63.5t58 -27.5q58 0 84 20q45 33 45 75v183q0 27 -21 38t-44 11.5t-23 17.5q0 8 8.5 11.5t26.5 4t36 2t31 3.5t18 3q6 0 32 9h2q7 0 11.5 -6t-1.5 -16t-6 -67v-212q0 -69 18 -69 q31 0 46 3t15 -12t-14 -15q-52 -7 -90.5 -23.5t-46 -16.5t-7.5 4z" />
<glyph unicode="&#x170;" horiz-adv-x="738" d="M431 697q-6 0 -6 7q0 14 82 133q9 13 25 13t38 -7t22 -15t-13 -20q-45 -38 -130 -102q-12 -9 -18 -9zM299 697q-6 0 -6 7q0 14 82 133q9 13 25 13t38 -7t22 -15t-13 -20q-45 -38 -130 -102q-12 -9 -18 -9zM618 650l81 3q29 0 29 -11q0 -13 -33 -20q-47 -9 -50 -75 q-1 -11 -10 -297q-4 -116 -75.5 -190t-179.5 -74q-142 0 -209.5 73.5t-67.5 221.5v266q0 60 -46 73q-33 9 -33 22q0 11 29 11l96 -3l80 2q29 0 29 -11q0 -9 -33 -20q-14 -4 -28 -24.5t-14 -47.5v-296q0 -90 64.5 -153.5t156.5 -63.5t140 69.5t48 190.5q0 61 -4 215 q-2 98 -41 109q-33 9 -33 20t29 11z" />
<glyph unicode="&#x171;" horiz-adv-x="527" d="M393.5 564q-43.5 -53 -69 -80.5t-35 -27.5t-9.5 17t81 158q11 18 27 18q49 0 49 -23q0 -9 -43.5 -62zM269.5 564q-43.5 -53 -69 -80.5t-35 -27.5t-9.5 17t81 158q11 18 27 18q49 0 49 -23q0 -9 -43.5 -62zM359 -15l5 66v6q-72 -71 -165 -71q-51 0 -82.5 31t-31.5 88v203 q0 40 -43 57q-13 4 -13 16.5t15 15.5q35 1 103 17q7 1 11 -3t3 -11q-6 -46 -6 -77v-195q0 -36 26 -63.5t58 -27.5q58 0 84 20q45 33 45 75v183q0 27 -21 38t-44 11.5t-23 17.5q0 8 8.5 11.5t26.5 4t36 2t31 3.5t18 3q6 0 32 9h2q7 0 11.5 -6t-1.5 -16t-6 -67v-212 q0 -69 18 -69q31 0 46 3t15 -12t-14 -15q-52 -7 -90.5 -23.5t-46 -16.5t-7.5 4z" />
<glyph unicode="&#x172;" horiz-adv-x="738" d="M618 650l81 3q29 0 29 -11q0 -13 -33 -20q-47 -9 -50 -75q-1 -11 -10 -297q-2 -79 -38 -141t-97 -94q-19 -14 -38.5 -31.5t-44.5 -58t-25 -73.5t19.5 -50.5t39 -17.5t34 5.5t23.5 12.5q27 19 31.5 22t8.5 1.5t4 -7.5q0 -32 -45.5 -68.5t-89 -36.5t-77 33t-33.5 80 q0 81 128 166q-27 -6 -55 -6q-142 0 -209.5 73.5t-67.5 221.5v266q0 60 -46 73q-33 9 -33 22q0 11 29 11l96 -3l80 2q29 0 29 -11q0 -9 -33 -20q-14 -4 -28 -24.5t-14 -47.5v-296q0 -90 64.5 -153.5t156.5 -63.5t140 69.5t48 190.5q0 61 -4 215q-2 98 -41 109q-33 9 -33 20 t29 11z" />
<glyph unicode="&#x173;" horiz-adv-x="527" d="M438.5 -256.5q-31.5 -30.5 -73 -30.5t-69 27.5t-27.5 80.5q0 78 91 160q4 13 4 76q-72 -71 -165 -71q-51 0 -82.5 31t-31.5 88v203q0 40 -43 57q-13 4 -13 16.5t15 15.5q35 1 103 17q7 1 11 -3t3 -11q-6 -46 -6 -77v-195q0 -36 26 -63.5t58 -27.5q58 0 84 20q45 33 45 75 v183q0 27 -21 38t-44 11.5t-23 17.5q0 8 8.5 11.5t26.5 4t36 2t31 3.5t18 3q6 0 32 9h2q7 0 11.5 -6t-1.5 -16t-6 -67v-212q0 -69 18 -69q31 0 46 3t15 -12t-14 -15q-49 -6 -96 -25q-64 -64 -64 -148q0 -32 17 -50.5t37.5 -18.5t34 5.5t21.5 10.5t9 5q8 0 8 -7 q0 -19 -31.5 -49.5z" />
<glyph unicode="&#x174;" horiz-adv-x="916" d="M403.5 722q-44.5 -21 -56.5 -21t-12 10q0 6 7 12l98 88q25 22 41 22t41 -22l98 -88q6 -5 6 -12q0 -11 -11.5 -11t-55.5 21t-61 31t-27 4q-23 -13 -67.5 -34zM118 650l93 2q29 0 29 -11t-33 -20q-20 -5 -20 -33q0 -19 8 -43q77 -197 164 -393q9 -19 15 -1l78 193 q6 15 6 23t-8 29l-57 142q-12 30 -39 52t-58 31t-31 20.5t29 11.5l94 -3l77 2q29 0 29 -11q0 -8 -20.5 -19t-20.5 -23q0 -2 11 -35.5t26.5 -66t18.5 -32.5t16 29t23.5 64.5t10.5 39.5q0 13 -18.5 24t-18.5 19q0 11 29 11l52 -2l59 3q29 0 29 -11q0 -13 -31.5 -20t-43.5 -16 t-29 -38t-37 -82t-20 -62t1 -11l103 -265q4 -10 11 6q38 101 122 387q6 18 6 36q0 35 -31.5 43.5t-31.5 19.5t29 11l72 -1l90 3q29 0 29 -11q0 -13 -33 -20q-53 -12 -82 -88l-161 -476q-25 -70 -32 -70q-9 0 -17 19q-31 70 -72 177t-51 132q-4 10 -9 0q-1 -2 -2 -6 q-56 -131 -114 -295q-11 -31 -22 -31q-3 0 -14 28l-216 542q-24 52 -72 66q-33 10 -33 21.5t29 11.5z" />
<glyph unicode="&#x175;" horiz-adv-x="685" d="M339 553q-30 -36 -66 -84q-17 -22 -30 -22q-9 0 -9 11.5t33.5 74t49 89t25.5 26.5t26 -27t49.5 -89t33.5 -73.5t-12 -11.5t-27 22q-18 24 -66 84q-4 5 -7 0zM612 400l58 5q20 0 20 -9.5t-23 -17.5q-28 -8 -53 -66l-137 -328q-3 -7 -8 -7t-9 7l-104 258q-6 15 -13 -1 l-109 -257q-4 -7 -8.5 -7t-6.5 7l-139 345q-15 38 -52 49q-23 8 -23 17.5t20 9.5l73 -5q76 5 89.5 5t13.5 -9.5t-23 -17.5q-21 -6 -21 -40q0 -13 5 -26l76 -196q7 -19 15 1l66 161q6 16 6 36t-16 39.5t-36.5 25t-20.5 17.5q0 9 20 9l75 -5l84 5q20 0 20 -9.5t-23 -17.5 q-34 -11 -34 -36q0 -13 7 -30l75 -193q8 -19 16 -1l76 177q7 15 7 33t-11 32t-29 20t-18 15.5t20 9.5z" />
<glyph unicode="&#x176;" horiz-adv-x="578" d="M242.5 722q-44.5 -21 -56.5 -21t-12 10q0 6 7 12l98 88q25 22 41 22t41 -22l98 -88q6 -5 6 -12q0 -11 -11.5 -11t-55.5 21t-61 31t-27 4q-23 -13 -67.5 -34zM310 0l-128 -5q-29 0 -29 11.5t33 17.5q78 14 78 84v148q0 29 -25 74l-117 192q-55 88 -88.5 98t-33.5 21.5 t29 11.5l117 -3l80 2q29 0 29 -11q0 -13 -32.5 -20.5t-32.5 -24.5q0 -13 13 -36l92 -165q22 -38 28 -38q17 0 117 177q18 30 18 51q0 29 -41 35q-11 2 -22 8t-11 12q0 11 29 11l75 -1l104 3q29 0 29 -10.5t-53 -25.5q-24 -7 -40 -25q-41 -44 -159 -246q-18 -31 -21.5 -45 t-3.5 -45v-148q0 -34 20.5 -55.5t56 -28t35.5 -18t-29 -11.5z" />
<glyph unicode="&#x177;" horiz-adv-x="438" d="M231 553q-30 -36 -66 -84q-17 -22 -30 -22q-9 0 -9 11.5t33.5 74t49 89t25.5 26.5t26 -27t49.5 -89t33.5 -73.5t-12 -11.5t-27 22q-18 24 -66 84q-4 5 -7 0zM364 400l59 5q20 0 20 -9.5t-19 -16t-36 -25.5t-27 -43l-136 -324q-1 -3 -16.5 -40t-38.5 -93t-41 -97.5 t-65 -41.5q-19 0 -35 10t-16 26q0 30 27 30l40 -6q12 0 19 11q46 79 91 198q3 9 3 25t-4 27l-116 293q-17 41 -45 49q-23 8 -23 17.5t20 9.5l73 -5l76 5q20 0 20 -11q0 -14 -29 -22q-20 -6 -20 -32q0 -9 8 -28l79 -196q8 -19 15 1l67 178q8 18 8 42.5t-24.5 35t-24.5 21.5 t20 11z" />
<glyph unicode="&#x178;" horiz-adv-x="578" d="M417 801q21 0 35.5 -14.5t14.5 -35.5t-14.5 -35.5t-35.5 -14.5t-35.5 14.5t-14.5 35.5t14.5 35.5t35.5 14.5zM222 801q21 0 35.5 -14.5t14.5 -35.5t-14.5 -35.5t-35.5 -14.5t-35.5 14.5t-14.5 35.5t14.5 35.5t35.5 14.5zM310 0l-128 -5q-29 0 -29 11.5t33 17.5 q78 14 78 84v148q0 29 -25 74l-117 192q-55 88 -88.5 98t-33.5 21.5t29 11.5l117 -3l80 2q29 0 29 -11q0 -13 -32.5 -20.5t-32.5 -24.5q0 -13 13 -36l92 -165q22 -38 28 -38q17 0 117 177q18 30 18 51q0 29 -41 35q-11 2 -22 8t-11 12q0 11 29 11l75 -1l104 3q29 0 29 -10.5 t-53 -25.5q-24 -7 -40 -25q-41 -44 -159 -246q-18 -31 -21.5 -45t-3.5 -45v-148q0 -34 20.5 -55.5t56 -28t35.5 -18t-29 -11.5z" />
<glyph unicode="&#x179;" horiz-adv-x="603" d="M283 697q-6 0 -6 7q0 14 82 133q9 13 25 13t38 -7t22 -15t-13 -20q-45 -38 -130 -102q-12 -9 -18 -9zM533 -5l-302 3l-119 -1h-77q-7 0 -7 11v3q0 15 58 93q235 321 342 484q4 6 4 8q0 7 -19 8q-72 2 -147.5 2t-102 -2t-52.5 -18.5t-38.5 -49.5t-27.5 -33q-9 0 -9 9.5 t15 53.5t19 86q1 17 15 17q7 0 25 -14q11 -8 68 -8.5t163.5 -0.5t217.5 3q5 0 9.5 -7t1.5 -11l-61 -81q-216 -291 -338 -480q-3 -5 -3 -16t11 -13q48 -5 112 -5t145 6t121 100q8 21 22 21q9 0 9 -11t-14.5 -67t-23 -73t-17.5 -17z" />
<glyph unicode="&#x17a;" horiz-adv-x="377" d="M282.5 564q-43.5 -53 -69 -80.5t-35 -27.5t-9.5 17t81 158q11 18 27 18q49 0 49 -23q0 -9 -43.5 -62zM127 401l38 1q95 0 186 3q4 0 6.5 -4.5t0.5 -7.5q-20 -24 -38 -50l-193 -293q-3 -5 2 -10t10 -5h117q20 0 39.5 19t46.5 58q12 24 22 24q8 0 8 -18.5t-14.5 -65.5 t-19 -52t-8.5 -5t-75 2.5t-136 2.5l-80 -5q-4 0 -9 6.5t-5 12.5t37 56q74 106 186 284q7 10 -9 10h-117q-14 0 -30 -22q-4 -6 -11 -15.5t-9.5 -13t-6.5 -9t-7 -8.5q-10 -10 -15.5 -10t-7 8t1.5 14q17 40 17 90q0 7 5.5 12.5t9.5 5.5t13 -7.5t45 -7.5z" />
<glyph unicode="&#x17b;" horiz-adv-x="603" d="M315 810q22 0 38.5 -16t16.5 -39t-16.5 -39t-38.5 -16t-38.5 16t-16.5 39t16.5 39t38.5 16zM533 -5l-302 3l-119 -1h-77q-7 0 -7 11v3q0 15 58 93q235 321 342 484q4 6 4 8q0 7 -19 8q-72 2 -147.5 2t-102 -2t-52.5 -18.5t-38.5 -49.5t-27.5 -33q-9 0 -9 9.5t15 53.5 t19 86q1 17 15 17q7 0 25 -14q11 -8 68 -8.5t163.5 -0.5t217.5 3q5 0 9.5 -7t1.5 -11l-61 -81q-216 -291 -338 -480q-3 -5 -3 -16t11 -13q48 -5 112 -5t145 6t121 100q8 21 22 21q9 0 9 -11t-14.5 -67t-23 -73t-17.5 -17z" />
<glyph unicode="&#x17c;" horiz-adv-x="377" d="M166.5 507.5q-14.5 14.5 -14.5 36t14.5 36t36 14.5t36 -14.5t14.5 -36t-14.5 -36t-36 -14.5t-36 14.5zM127 401l38 1q95 0 186 3q4 0 6.5 -4.5t0.5 -7.5q-20 -24 -38 -50l-193 -293q-3 -5 2 -10t10 -5h117q20 0 39.5 19t46.5 58q12 24 22 24q8 0 8 -18.5t-14.5 -65.5 t-19 -52t-8.5 -5t-75 2.5t-136 2.5l-80 -5q-4 0 -9 6.5t-5 12.5t37 56q74 106 186 284q7 10 -9 10h-117q-14 0 -30 -22q-4 -6 -11 -15.5t-9.5 -13t-6.5 -9t-7 -8.5q-10 -10 -15.5 -10t-7 8t1.5 14q17 40 17 90q0 7 5.5 12.5t9.5 5.5t13 -7.5t45 -7.5z" />
<glyph unicode="&#x17d;" horiz-adv-x="603" d="M169 822q0 10 12 10t56.5 -21t61 -30.5t26.5 -3.5q24 14 68 35t55.5 21t11.5 -11q0 -7 -6 -12l-98 -88q-25 -22 -41 -22t-41 22l-98 88q-7 6 -7 12zM533 -5l-302 3l-119 -1h-77q-7 0 -7 11v3q0 15 58 93q235 321 342 484q4 6 4 8q0 7 -19 8q-72 2 -147.5 2t-102 -2 t-52.5 -18.5t-38.5 -49.5t-27.5 -33q-9 0 -9 9.5t15 53.5t19 86q1 17 15 17q7 0 25 -14q11 -8 68 -8.5t163.5 -0.5t217.5 3q5 0 9.5 -7t1.5 -11l-61 -81q-216 -291 -338 -480q-3 -5 -3 -16t11 -13q48 -5 112 -5t145 6t121 100q8 21 22 21q9 0 9 -11t-14.5 -67t-23 -73 t-17.5 -17z" />
<glyph unicode="&#x17e;" horiz-adv-x="377" d="M197 550q3 -5 7 0q77 107 95 107q9 0 9 -15.5t-88 -151.5q-11 -18 -20 -18t-20 18q-88 136 -88 151.5t10 15.5q18 0 95 -107zM127 401l38 1q95 0 186 3q4 0 6.5 -4.5t0.5 -7.5q-20 -24 -38 -50l-193 -293q-3 -5 2 -10t10 -5h117q20 0 39.5 19t46.5 58q12 24 22 24 q8 0 8 -18.5t-14.5 -65.5t-19 -52t-8.5 -5t-75 2.5t-136 2.5l-80 -5q-4 0 -9 6.5t-5 12.5t37 56q74 106 186 284q7 10 -9 10h-117q-14 0 -30 -22q-4 -6 -11 -15.5t-9.5 -13t-6.5 -9t-7 -8.5q-10 -10 -15.5 -10t-7 8t1.5 14q17 40 17 90q0 7 5.5 12.5t9.5 5.5t13 -7.5 t45 -7.5z" />
<glyph unicode="&#x17f;" horiz-adv-x="245" d="M125 2l-78 -5h-3q-20 0 -20 9.5t23 17.5q43 13 43 45v281q-31 0 -52 2q-3 1 -8 6.5t-5 10t6 7.5q19 5 59 26q0 82 21.5 144t55.5 95t69.5 49t71.5 16t54.5 -4.5t37 -19t18.5 -35.5q0 -41 -34 -41q-14 0 -40 30q-10 11 -30.5 20t-47.5 9q-49 0 -77.5 -46.5t-28.5 -143.5 v-406q0 -32 43 -45q23 -8 23 -17.5t-20 -9.5h-3z" />
<glyph unicode="&#x180;" horiz-adv-x="515" d="M148 698l-3 -105v-26h138q6 0 10 -6t4 -12.5t-7.5 -12t-16.5 -5.5h-128v-143q0 -32 9 -33q53 59 138 59t136.5 -57.5t51.5 -146t-58 -156.5t-165 -68q-37 0 -86.5 13.5t-53.5 13.5t-17 -7.5t-15 -7.5q-17 0 -17 11v5q0 6 2 14.5t3 19.5q2 24 2 57v426h-81q-5 0 -9.5 3.5 t-4.5 7.5v1q0 1 1 2q12 22 31 22h63v6q0 56 -47 66q-8 2 -8 12.5t7 12.5q35 8 70 22.5t43 17.5h1l1 1q6 0 6 -7zM186 49q41 -32 96.5 -32t89 50.5t33.5 122t-37 127.5t-103 56q-24 0 -54 -9t-45 -26q-21 -22 -21 -85v-121q0 -51 41 -83z" />
<glyph unicode="&#x181;" horiz-adv-x="578" d="M254 371q63 0 111 29q15 9 30 34.5t15 70t-34 82.5t-111 38q-38 0 -47.5 -9t-9.5 -34v-174q0 -37 46 -37zM287 37q60 0 108 44.5t48 107.5q0 88 -74 129q-45 25 -104 25q-29 0 -43 -11.5t-14 -24.5v-199q0 -40 19 -55.5t60 -15.5zM178 0l-130 -5q-29 0 -29 11.5t36.5 18 t55.5 23.5t19 51v450q0 38 -6 51t-28.5 13t-45 -18.5t-22.5 -37t17 -32t17 -27t-16 -26.5t-33 -13t-34 22.5t-17 50.5q0 43 40 72q71 51 218 51t211.5 -33t64.5 -114q0 -62 -34 -96q-30 -28 -67 -43q-4 -2 -4 -5t4 -5q103 -31 129 -94q13 -30 13 -70t-9.5 -69t-28 -48 t-31.5 -28q-78 -54 -195 -54z" />
<glyph unicode="&#x182;" horiz-adv-x="568" d="M463 641l8 -101q0 -10 -4.5 -15.5t-9.5 -5.5t-14 10t-11 22.5t-6 23.5t-21 23.5t-44 12.5h-132q-8 0 -18.5 -13t-10.5 -22v-168q0 -50 12 -50q3 0 5 1q51 17 107 17q92 0 145.5 -48t53.5 -134t-50 -130q-18 -15 -25 -19t-25 -15q-57 -34 -160 -34q-7 0 -51 4t-66 4 t-51 -4.5t-57.5 -4.5t-28.5 11.5t36.5 18t55.5 23t19 50.5v452q0 35 -14.5 50t-50 21.5t-35.5 20.5q0 11 29 11l117 -3h248l39 5q10 0 10 -14zM200 108q0 -34 20 -52.5t57 -18.5q60 0 108 44.5t48 107.5q0 88 -74 129q-45 25 -102 25t-57 -36v-199z" />
<glyph unicode="&#x183;" horiz-adv-x="515" d="M409 694l-4 -85q0 -41 -13 -41q-10 0 -16.5 28t-21.5 46t-30 18h-147q-13 0 -22.5 -11.5t-9.5 -23.5v-237q0 -32 9 -33q53 59 138 59t136.5 -57.5t51.5 -146t-58 -156.5t-165 -68q-37 0 -86.5 13.5t-53.5 13.5t-17 -7.5t-15 -7.5q-17 0 -17 11v5q0 6 2 14.5t3 19.5 q2 24 2 57v461q0 62 -8 83t-28 25t-20 14q0 5 3.5 10.5t8.5 5.5l33 -2q34 -2 50 -2h210l60 2h11l4 1q10 0 10 -9zM186 49q41 -32 96.5 -32t89 50.5t33.5 122t-37 127.5t-103 56q-24 0 -54 -9t-45 -26q-21 -22 -21 -85v-121q0 -51 41 -83z" />
<glyph unicode="&#x184;" horiz-adv-x="568" d="M205 644l-5 -68v-168q0 -50 12 -50q3 0 5 1q51 17 107 17q92 0 145.5 -48t53.5 -134t-50 -130q-18 -15 -25 -19t-25 -15q-57 -34 -160 -34q-7 0 -51 4t-66 4t-51 -4.5t-57.5 -4.5t-28.5 11.5t36.5 18t55.5 23t19 50.5v374q0 68 -70 99q-30 14 -30 26q0 16 21 18 q58 7 121 39q21 11 29 11t11 -4.5t3 -16.5zM200 108q0 -34 20 -52.5t57 -18.5q60 0 108 44.5t48 107.5q0 88 -74 129q-45 25 -102 25t-57 -36v-199z" />
<glyph unicode="&#x185;" horiz-adv-x="515" d="M75 105v337q0 42 -8.5 73t-19.5 44.5t-19.5 23t-8.5 15t3.5 10t10 8.5t10.5 8t21 19.5t25.5 23.5t20.5 19q22 19 28 19t11.5 -6.5t5.5 -8t-3 -14.5q-7 -39 -7 -83v-205q0 -32 9 -33q35 29 76 44t70 15q77 0 128.5 -57.5t51.5 -146.5t-57 -156.5t-164 -67.5 q-37 0 -91 14.5t-58 14.5t-14 -9t-14 -9t-9 3.5t-5 8.5v5q0 6 2 14.5t3 19.5q2 24 2 57zM186 49q41 -32 96.5 -32t89 50.5t33.5 122t-37 127.5t-103 56q-24 0 -54 -9t-45 -26q-21 -22 -21 -85v-121q0 -51 41 -83z" />
<glyph unicode="&#x186;" horiz-adv-x="640" d="M49 497q9 75 34 112q3 6 41.5 19.5t95.5 24t110 10.5q128 0 209 -82.5t81 -227.5q0 -91 -41 -175t-118 -138.5t-170 -54.5q-116 0 -180.5 48t-64.5 104q0 69 37 69q19 0 33.5 -16.5t14.5 -37.5t8 -40.5t26 -40t55.5 -34t95 -13.5t108 52.5t74 121.5t23.5 135t-26.5 133 t-80 114.5t-124.5 47.5t-126.5 -41t-80.5 -89q-5 -8 -14 -12l-11 -6q-1 -1 -2 -1q-7 0 -7 18z" />
<glyph unicode="&#x187;" horiz-adv-x="640" d="M604 617l1 -14q7 -46 8 -81.5t-1.5 -43.5t-9.5 -7q-20 2 -26 37q-6 46 -35 73q-51 51 -152.5 51t-172 -85.5t-70.5 -199.5q0 -83 30 -158t89.5 -124t134.5 -49q124 0 186 121q4 7 14 12.5t11 6.5t2 1q7 0 7 -19q-9 -75 -34 -112q-2 -5 -21 -11t-28 -10q-43 -20 -173 -20 t-224 100t-94 240.5t108 239t256 98.5q70 0 106 -12q24 -12 41 -12t18 4q11 42 40.5 62t71 20t65.5 -29q8 -9 8 -22t-11.5 -25.5t-24 -12.5t-28 21t-41 21t-46.5 -39q-5 -9 -5 -22z" />
<glyph unicode="&#x188;" horiz-adv-x="456" d="M371 353q0 -12 -14.5 -23t-22 -11t-16.5 7t-12 12q-18 38 -92 38q-52 0 -81 -45t-29 -112.5t44.5 -124t114.5 -56.5q30 0 48.5 11.5t39.5 38.5q5 5 9 5t8 -4.5t4 -9.5q0 -30 -52.5 -61.5t-120 -31.5t-116 57.5t-48.5 144.5t60.5 156t150.5 69q22 0 38 -3t17.5 -0.5 t1.5 8.5v47q0 105 54.5 173t119 68t80.5 -20q8 -9 8 -22.5t-11.5 -27.5t-24 -14t-22 13.5t-23.5 27t-35 13.5q-78 0 -78 -170v-153z" />
<glyph unicode="&#x189;" horiz-adv-x="754" d="M317 28l59 2q73 0 127.5 48t80 118.5t25.5 149.5q0 120 -74 201t-190 81q-94 0 -113 -14q-22 -15 -22 -47v-214h167q5 0 9.5 -3.5t4.5 -7.5l-1 -1v-2q-12 -22 -31 -22h-149v-196q0 -28 8.5 -42.5t32 -32.5t66.5 -18zM169 651l171 8q194 0 279 -84.5t85 -232.5 t-95.5 -248.5t-237.5 -100.5q-3 0 -82 3.5t-126 3.5l-105 -5q-29 0 -29 11.5t35.5 18t50 22.5t14.5 52v218h-69q-6 0 -10 6t-4 12.5t7.5 12t16.5 5.5h59v196q0 35 -14.5 50.5t-50 22t-35.5 20.5q0 11 29 11l104 -2h7z" />
<glyph unicode="&#x18a;" horiz-adv-x="723" d="M163 0l-105 -5q-29 0 -29 11.5t35.5 18t50 22.5t14.5 52v451q0 38 -6 50.5t-28 12.5t-48.5 -19t-26.5 -37t17 -31.5t17 -27t-16 -26.5t-33 -13t-34 25t-17 53q0 66 84.5 92.5t274.5 26.5t282.5 -75t92.5 -233t-87 -256.5t-230 -98.5q-3 0 -82 3.5t-126 3.5zM593 323 q0 301 -296 301q-56 0 -71.5 -13.5t-15.5 -59.5v-430q0 -56 31.5 -74.5t141.5 -18.5t160 80t50 215z" />
<glyph unicode="&#x18b;" horiz-adv-x="568" d="M425 4l-161 -8q-104 0 -161.5 49t-57.5 133.5t67.5 140.5t160.5 56q51 0 78 -16q3 -2 10 -2t7 51v168q0 9 -10.5 22t-18.5 13h-132q-42 0 -54 -11.5t-18 -52.5q-1 -8 -10 -18t-14 -10t-9.5 5.5t-4.5 15.5l8 101q0 14 10 14l39 -5h248l117 3q29 0 29 -11 q0 -14 -35.5 -20.5t-50 -21.5t-14.5 -50v-452q0 -34 19 -50.5t55.5 -23t36.5 -18t-29 -11.5t-57.5 4.5t-47.5 4.5zM368 108v152q0 42 -35 62t-82 20t-74 -25q-14 -14 -21 -24q-21 -27 -21 -101t41 -121t112 -47q36 0 58 24.5t22 59.5z" />
<glyph unicode="&#x18c;" horiz-adv-x="506" d="M346 -15l5 66v6q-18 -28 -52 -49.5t-79 -21.5q-82 0 -133.5 62t-51.5 147.5t62 152t163 66.5q20 0 46.5 -7.5t32.5 -15t9.5 -7.5t3.5 24v215q0 13 -10.5 24.5t-24.5 11.5h-119q-14 0 -30 -23q-4 -5 -11 -14.5t-9.5 -13t-6.5 -9t-7 -8.5q-10 -10 -15.5 -10t-7 8t1.5 14 q17 40 17 90q0 7 5.5 12.5t9.5 5.5t13 -7.5t46 -7.5h167l65 8q3 0 9 -6.5t6 -10t-7 -16.5q-22 -37 -22 -109v-452q0 -65 21 -65q31 0 46 3t15 -12t-14 -15q-52 -7 -90.5 -23.5t-46 -16.5t-7.5 4zM229 379q-36 0 -74 -32q-20 -17 -33 -52t-13 -85t16.5 -88.5t41.5 -56.5 q47 -34 89 -34t69 26t27 63v135q0 46 -34 85t-89 39z" />
<glyph unicode="&#x18d;" horiz-adv-x="481" d="M275 4q-8 -3 2 -11t37.5 -28.5t40 -32t24.5 -32.5t12 -45q0 -43 -36 -73q-54 -46 -203 -46q-46 0 -57 -2.5t-27 -13.5q-7 -7 -13.5 -7t-6.5 13q0 23 36.5 54.5t69.5 31.5t74 -6t69 -6q55 0 55 31q0 16 -22.5 35t-68 47t-75 50.5t-51 41.5t-48.5 49q-52 56 -52 141t62 151 t170 68h3q64 0 120 -59t56 -135t-46.5 -134t-124.5 -82zM144 332q-27 -45 -27 -118t50 -132t89 -59t73.5 44t34.5 121t-35.5 136.5t-82.5 59.5q-73 0 -102 -52z" />
<glyph unicode="&#x18e;" horiz-adv-x="535" d="M381 1l-327 -6q-10 0 -14 17q-17 63 -17 103q0 9 10.5 10.5t16.5 -9.5q23 -48 44 -64.5t74 -16.5h104q35 0 50.5 15t15.5 52v192q0 16 -7.5 21t-26.5 5h-93q-31 0 -46 -45q-7 -23 -23 -23q-9 0 -9 17l2 68l-3 55q0 7 4.5 11.5t8 4.5t10 -6.5t8.5 -10.5q17 -39 61 -39h96 q7 0 12.5 6.5t5.5 15.5v212q0 13 -13 22.5t-23 9.5h-131q-43 0 -67 -27q-7 -8 -22 -55q-3 -10 -11 -10q-14 0 -14 18.5t15 99.5q1 9 18 9l222 -3l177 3q29 0 29 -11q0 -14 -35.5 -20.5t-50 -22t-14.5 -50.5v-450q0 -35 17.5 -51.5t53.5 -23t36 -18t-29 -11.5z" />
<glyph unicode="&#x18f;" horiz-adv-x="640" d="M151.5 76.5q50.5 -52.5 133.5 -52.5t146.5 55.5t78.5 153.5q1 5 1 13q0 20 -12 20h-343q-25 0 -40 -17t-15 -43q0 -77 50.5 -129.5zM49 497q9 75 34 112q3 6 41.5 19.5t95.5 24t110 10.5q127 0 208.5 -88t81.5 -229.5t-107.5 -251t-250.5 -109.5q-76 0 -112 12 q-60 20 -95 78t-35 137q0 37 41.5 71t94.5 34h347q18 0 18 33l-1 16q-13 124 -73 193t-164 69q-75 0 -124.5 -39.5t-75.5 -90.5q-5 -8 -14 -12l-11 -6q-1 -1 -2 -1q-7 0 -7 18z" />
<glyph unicode="&#x190;" horiz-adv-x="510" d="M247 372l81 6q12 0 25.5 -7t13.5 -18q0 -21 -41 -21q-22 0 -44.5 3.5t-29.5 3.5q-55 0 -87 -43t-32 -107t44 -116t109 -52q100 0 138 95q18 44 24 44q8 0 14 -4.5t6 -15.5t-11 -88q-4 -23 -34 -37q-62 -29 -157 -29t-163 50.5t-68 131t42 127t97 64.5q4 2 4 5t-4 5 q-37 15 -67 43q-32 32 -32 83q0 77 65.5 123t147.5 46q37 0 56.5 -4t27.5 -6q16 -2 50 -12q9 -2 13 -20q10 -57 10 -78q0 -39 -10 -39q-5 0 -14.5 7.5t-11.5 17.5q-11 43 -35.5 66t-47 28t-55.5 5q-48 0 -79 -39.5t-31 -88t24.5 -89t61.5 -40.5z" />
<glyph unicode="&#x191;" horiz-adv-x="300" d="M349 317l-50 1q-23 0 -65 -2q-24 -2 -24 -25v-164q0 -77 -16 -154t-37 -107q-46 -66 -123 -66q-46 0 -74.5 12.5t-28.5 31t11.5 36t24.5 17.5q33 0 51 -27.5t46 -27.5q66 0 66 158v522q0 48 -12.5 71t-47 29t-34.5 20q0 11 29 11l172 -3l171 2h39l15 1q17 0 18 -9 q5 -29 5 -100q0 -21 -9 -21q-12 0 -15 12q-12 36 -23 49q-24 27 -67 27h-127q-15 0 -22.5 -8t-9 -17t-2.5 -29.5t-1 -89.5t0.5 -92t10.5 -23l116 3q44 0 61 39q2 4 8.5 10.5t10 6.5t8.5 -5t3 -25.5t-2 -42.5t3 -66q0 -17 -9 -17q-16 0 -23 23q-13 39 -47 39z" />
<glyph unicode="&#x192;" horiz-adv-x="307" d="M162 478v-56q0 -22 25 -22h118q4 0 4 -11.5t-4 -24t-9 -12.5h-94q-25 0 -32.5 -4t-7.5 -13v-253q0 -198 -19.5 -256.5t-58 -86t-77.5 -27.5t-71.5 11.5t-32.5 27.5q0 23 11 39.5t24 16.5t33.5 -29t42.5 -29t39.5 13.5t27 46.5t9.5 251v290q-31 0 -52 2q-3 0 -6 6 q-9 14 -1 18q25 7 39.5 15.5t18.5 10.5q0 82 21.5 144t55.5 95q68 65 143 65q38 0 56 -4t36 -19t18 -34t-10 -31t-21 -12t-22 9t-21 20.5t-31 20.5t-47 9q-49 0 -77 -46t-28 -141z" />
<glyph unicode="&#x193;" horiz-adv-x="729" d="M622 617l1 -14q9 -61 9 -80q0 -31 -14.5 -31t-24.5 28.5t-27 49t-58.5 38t-103.5 17.5q-111 0 -185.5 -80t-74.5 -199q0 -82 29.5 -154.5t89 -120.5t136.5 -48t135 37q24 16 24 77l2 58q0 24 -5 30q-11 15 -44 23t-46 8t-20.5 5t-7.5 12t7.5 12t12.5 5l126 -4l89 4 q21 0 21 -16q0 -6 -8 -11.5t-21 -8.5q-28 -8 -33.5 -45.5t-5.5 -76.5v-27q0 -11 9.5 -20.5t9.5 -12.5q0 -13 -14 -18q-21 -7 -75 -29t-87 -30.5t-69 -8.5q-145 0 -249.5 100t-104.5 242.5t109.5 238.5t258.5 96q70 0 162 -23q17 -3 18 3q12 42 43.5 62t64.5 20t54.5 -11.5 t21.5 -30.5t-12.5 -38.5t-25 -19.5t-19 12.5t-17.5 25t-34 12.5t-42 -36q-5 -9 -5 -22z" />
<glyph unicode="&#x194;" horiz-adv-x="672" d="M535 650l114 3q29 0 29 -11q0 -13 -33.5 -20.5t-59.5 -32t-38 -54.5l-168 -440q-6 -15 -5 -23.5t21 -60t28 -84t8 -84t-37 -90.5t-84 -39t-69.5 31.5t-22.5 83t72 213.5q6 12 -1 30l-186 475q-22 59 -70 73q-33 10 -33 21.5t29 11.5l122 -3l102 2q29 0 29 -11 q0 -14 -28.5 -19.5t-48 -17t-19.5 -28t9 -43.5l127 -336q10 -30 17.5 -33.5t12 3.5t10.5 22l137 358q8 16 8 32q0 21 -67 41q-33 9 -33 20t29 11zM310 -28q-36 -83 -36 -125t11.5 -64t30.5 -22q41 0 41 66q0 52 -32 145q-2 6 -7 6t-8 -6z" />
<glyph unicode="&#x195;" horiz-adv-x="693" d="M120 2l-78 -5h-3q-20 0 -20 9.5t18 15.5t25 10q23 10 23 33v501q0 64 -45 73q-8 2 -8 12.5t7 12.5q25 6 116 40l2 1q2 0 7 -7q0 -2 -2 -14q-7 -44 -7 -122v-174q0 -27 8 -37q85 63 147 63q46 0 74.5 -31.5t28.5 -88.5v-180q0 -36 21.5 -60.5t57 -24.5t60.5 15.5t36 45.5 q20 50 20 128q0 33 -14 62.5t-30 46t-30 29t-14 14.5q0 13 21.5 28.5t34.5 15.5t35.5 -17.5t44.5 -58t22 -96t-22.5 -113.5t-74 -100.5t-122.5 -42.5q-43 0 -79.5 38.5t-36.5 89.5v158q0 34 -26.5 62t-55.5 28q-46 0 -79 -26q-16 -13 -21.5 -25.5t-5.5 -42.5v-203 q1 -30 38 -41q23 -8 23 -17.5t-20 -9.5h-3z" />
<glyph unicode="&#x196;" horiz-adv-x="375" d="M176 650l109 3q29 0 29 -11q0 -14 -36 -20.5t-52 -22t-16 -49.5v-371q0 -78 15 -111.5t50 -33.5q21 0 51 25t35 25q14 0 14 -27q0 -8 -14.5 -23.5t-46 -30t-67.5 -14.5q-57 0 -87 35.5t-30 95.5v430q0 35 -14.5 50t-50 21.5t-35.5 20.5q0 11 29 11z" />
<glyph unicode="&#x197;" horiz-adv-x="340" d="M67 353h217q5 0 9 -4t4 -8q0 -24 -31 -24h-209q-5 -1 -9 3t-5 10t7 14t17 9zM176 0l-128 -5q-29 0 -29 11.5t36.5 18t55.5 23t19 50.5v452q0 35 -14.5 50t-50 21.5t-35.5 20.5q0 11 29 11l117 -3l109 3q29 0 29 -11q0 -14 -36 -20.5t-52 -22t-16 -49.5v-452 q0 -34 19.5 -50.5t56 -23t36.5 -18t-29 -11.5z" />
<glyph unicode="&#x198;" horiz-adv-x="681" d="M172 651l97 2q29 0 29 -11q0 -14 -34 -20t-43.5 -22t-9.5 -49v-187q0 -19 5 -19q11 0 27 18l183 204q51 53 85 76.5t67 23.5q76 0 76 -92q0 -31 -21 -47.5t-35 -16.5q-26 0 -26 28l11 49q0 33 -24 33q-14 0 -32 -14t-91.5 -86.5t-137.5 -149.5q-6 -7 5 -18l242 -258 q35 -39 52 -50.5t54 -19.5t37 -19t-29 -11l-139 5l-81 -1q-29 0 -29 11t27.5 17.5t27.5 19.5q0 8 -15 25l-212 234q-15 17 -23 17q-4 0 -4 -40t5 -173q3 -75 64 -86q33 -6 33 -17.5t-29 -11.5t-55 3.5t-43 3.5l-126 -7q-29 0 -29 11.5t35.5 18t50 23t14.5 53.5v450 q0 34 -14.5 49t-50 21.5t-35.5 20.5q0 11 29 11z" />
<glyph unicode="&#x199;" horiz-adv-x="469" d="M120 2l-78 -5q-23 0 -23 9.5t18 15.5t25 10q23 10 23 33v400q0 118 54.5 179.5t121.5 61.5q91 0 91 -39q0 -17 -11.5 -31t-24 -14t-22 13.5t-23.5 27t-35 13.5q-32 0 -56 -52.5t-25 -123.5v-269q0 -9 6 -7q14 3 35 21q90 79 114 113q1 1 1 3q0 11 -26 17q-12 4 -12 8 q0 14 22 14h49q21 0 57 6t39 6q8 0 8 -6.5t-6.5 -13t-13.5 -8.5q-29 -6 -61 -25.5t-137 -111.5q-11 -9 -3 -17q36 -43 82.5 -93.5t64.5 -66.5q36 -34 82 -48q23 -8 23 -17.5t-20 -9.5h-3l-121 5h-58q-23 0 -23 9q0 11 22 19t22 18q0 5 -7 14l-126 145q-2 3 -6 1.5t-4.5 -14 t-0.5 -58.5t1 -69q0 -31 35 -41q23 -8 23 -17.5t-23 -9.5z" />
<glyph unicode="&#x19a;" horiz-adv-x="241" d="M156 322l-1 -260q0 -20 12 -26q13 -6 33.5 -13t20.5 -16.5t-20 -9.5l-81 5l-81 -5q-20 0 -20 9.5t28 18.5t33 18.5t5 18.5v260h-59q-5 0 -9.5 4t-4.5 10t7 15t17 9h49v206q0 63 -46 73q-8 2 -8 12.5t7 12.5q25 6 116 40h1l1 1q6 0 6 -7q0 -3 -2 -18q-4 -47 -4 -118v-202 h60q5 0 9 -4t4 -8q0 -26 -31 -26h-42z" />
<glyph unicode="&#x19b;" horiz-adv-x="489" d="M59 424q-5 -3 -9.5 0.5t-4.5 7.5q0 31 8 35l288 150q25 13 25 -1q0 -33 -18 -42zM91 2l-71 -5q-20 0 -20 10.5t23 16.5q45 12 71 67l118 253q13 29 13 40t-8 34l-68 198q-15 45 -42 45q-13 0 -26 -20t-18.5 -20t-12 5t-6.5 12q0 35 25 51t55 16t50 -18t28 -41l208 -573 q13 -36 56 -49q23 -8 23 -17.5t-20 -9.5l-84 5l-83 -5q-20 0 -20 11q0 14 29 22q27 8 27 32q0 12 -8 28l-66 196q-7 20 -11.5 24t-8 -1t-12.5 -24l-83 -178q-12 -27 -12 -37q0 -26 28.5 -38.5t28.5 -23.5t-20 -11z" />
<glyph unicode="&#x19c;" horiz-adv-x="1045" d="M143 650l100 2q29 0 29 -11q0 -9 -25.5 -17.5t-47.5 -28.5t-22 -46v-267q0 -91 27 -163q15 -38 43.5 -60t69.5 -22t72 22.5t47 60.5q30 73 30 168v259q0 58 -54 73q-33 9 -33 22q0 11 29 11l104 -3l100 2q29 0 29 -11q0 -9 -25.5 -17.5t-47.5 -28.5t-22 -46v-283 q0 -91 34 -160t105 -69q42 0 73 24t48 64q30 74 30 176v249q0 24 -12 39.5t-23.5 21t-37.5 12.5t-26 18t29 11l78 -1l154 4q29 0 29 -11.5t-36.5 -18t-55.5 -23t-19 -50.5v-452q0 -35 14.5 -50t50 -21.5t35.5 -20.5q0 -11 -29 -11l-78 3l-68 -6q-11 0 -11 14q0 2 3 12.5 t3 19.5v23q0 17 -13 17q-4 0 -14.5 -15t-28.5 -33q-45 -45 -110 -45q-43 0 -77.5 12.5t-54 30.5t-32 35.5t-19 30t-9 12.5t-10 -10.5t-17 -25t-24 -29t-29.5 -25.5q-38 -31 -98 -31q-102 0 -152.5 63.5t-50.5 207.5v289q0 58 -54 73q-33 9 -33 22q0 11 29 11z" />
<glyph unicode="&#x19d;" horiz-adv-x="770" d="M616 650l115 3q29 0 29 -11q0 -7 -9.5 -14.5t-33.5 -11.5q-51 -10 -53 -56.5t-2 -551.5q0 -25 -21 -25q-11 0 -35 16.5t-48.5 50t-353.5 434.5q-13 16 -21.5 16t-8.5 -21q0 -112 5.5 -241.5t5.5 -185.5t-12.5 -116t-47.5 -98t-87.5 -38t-81 12.5t-28.5 31t11.5 36 t24.5 17.5q33 0 51 -27.5t46 -27.5q33 0 52 56.5t19 133.5v475q0 49 -24.5 73t-65 37t-40.5 27t23 14l154 -5q11 0 24 -17.5t187.5 -237t192.5 -241t26.5 -21.5t9.5 21q2 64 2 320v87q-1 18 -20.5 35t-45 21.5t-25.5 18.5q0 11 29 11h57z" />
<glyph unicode="&#x19e;" horiz-adv-x="527" d="M405 -280l-79 -5h-3q-20 0 -20 9.5t23 17.5q1 0 4 1q33 10 38 27q1 5 1 10v492q0 43 -25 68t-73.5 25t-79.5 -21t-31 -76v-206q0 -19 11.5 -25.5t15.5 -7.5q39 -10 39 -23q0 -9 -20 -9h-3l-78 5l-78 -5h-3q-20 0 -20 9.5t16.5 15t19 6t10.5 4.5t10 7q10 11 10 23v215 q0 64 -41 72q-8 2 -8 13t7 12q52 12 110 55q1 1 3.5 1t5.5 -9l-7 -65q0 -7 1 -8q28 23 75.5 44.5t94 21.5t79 -31t32.5 -88v-515q0 -20 12 -26q13 -6 33.5 -13t20.5 -16.5t-20 -9.5h-3z" />
<glyph unicode="&#x19f;" horiz-adv-x="763" d="M45 320q0 93 38.5 169.5t118.5 125.5t188 49q134 0 231 -92.5t97 -236.5q0 -141 -86 -242q-41 -49 -106 -78t-144 -29q-135 0 -236 97t-101 237zM531 566.5q-61 58.5 -161.5 58.5t-164 -82t-63.5 -193q0 -28 3 -53q27 30 73.5 65t68.5 35t90 -22t105.5 -22t129.5 52 q-20 103 -81 161.5zM618 366q-28 -29 -71.5 -59.5t-68 -30.5t-101 22t-98 22t-42.5 -8t-37.5 -17.5t-31.5 -19t-17 -10.5q22 -104 88 -172t156 -68q110 0 168 74.5t58 205.5q0 31 -3 61z" />
<glyph unicode="&#x1a0;" horiz-adv-x="778" d="M667 547q-10 0 -13 -4.5t0 -8.5q33 -49 48.5 -93.5t15.5 -109t-22 -127t-63.5 -111.5t-106.5 -78t-144 -29q-135 0 -236 97t-101 238.5t90 242t247 100.5q106 0 200 -46q61 -29 84 -29t39 8t16 18q0 16 -21 23.5t-21 25t21.5 37.5t36.5 20t27.5 -21t12.5 -39 q0 -52 -38 -83t-72 -31zM557 538q-64 87 -176 87t-175.5 -82t-63.5 -203.5t72.5 -218t181.5 -96.5t167 74.5t58 213t-64 225.5z" />
<glyph unicode="&#x1a1;" horiz-adv-x="495" d="M237 383q-120 0 -120 -173q0 -77 40 -135.5t98 -58.5q75 0 103 55q20 39 20 116t-40 136.5t-101 59.5zM460 213q0 -94 -59.5 -160.5t-166.5 -66.5q-85 0 -142 57t-57 143.5t64.5 157t154.5 70.5q32 0 73 -13q76 -27 90.5 -27t21.5 9.5t7 21t-9.5 21t-19 13.5t-9.5 16.5 t17.5 27t36 14.5t31.5 -20t13 -48.5t-27 -60t-57 -31.5q-7 -2 2 -14q36 -47 36 -110z" />
<glyph unicode="&#x1a2;" horiz-adv-x="888" d="M363 632q-70 0 -122 -46q-100 -90 -100 -260q0 -174 97 -262q53 -48 126.5 -48t120 82.5t46.5 192.5q0 186 -47 269q-17 32 -48 52t-73 20zM724 -281l-128 -5q-29 0 -29 11.5t36.5 18t55.5 23t19 50.5v733q0 37 -10 49.5t-42 12.5t-57 -15q-13 -8 -4 -19q55 -72 55 -252 q0 -135 -72 -238t-196.5 -103t-217.5 91t-93 232.5t97.5 248t240.5 106.5q46 0 93 -12.5t48 -12.5l47 6q47 6 76 6l190 3q29 0 29 -11q0 -14 -36 -20.5t-52 -22t-16 -49.5v-733q0 -34 19.5 -50.5t56 -23t36.5 -18t-29 -11.5z" />
<glyph unicode="&#x1a3;" horiz-adv-x="648" d="M547 -282l-81 -5q-20 0 -20 9.5t28 18.5t33 18.5t5 18.5v491q0 29 -11 48.5t-29 20t-28 -9.5q-16 -14 -8 -35q15 -49 15 -89q0 -95 -59 -156.5t-149.5 -61.5t-149 51.5t-58.5 149t68.5 162.5t178.5 65q45 0 106 -19t103 -19q19 0 47.5 25t44.5 25q6 0 6 -7q0 -3 -1 -19 q-6 -56 -6 -117v-505q0 -20 12 -26q13 -6 33.5 -13t20.5 -16.5t-20 -9.5zM346 325.5q-30 56.5 -88.5 56.5t-99.5 -47.5t-41 -133.5t49.5 -131.5t105.5 -45.5q37 0 62 28q42 47 42 132t-30 141.5z" />
<glyph unicode="&#x1a4;" horiz-adv-x="552" d="M183 2l-130 -7q-29 0 -29 11.5t36 18t53 23t17 52.5v448q0 39 -6 52t-28.5 13t-45 -18.5t-22.5 -37t17 -32t17 -27t-16 -26.5t-33 -13t-34 22.5t-17 50.5q0 43 40 72q75 53 230 53q59 0 119.5 -8t84.5 -20q101 -52 101 -145q0 -41 -18.5 -92t-55.5 -88q-51 -50 -155 -50 q-50 0 -50 15q0 11 14 11h2q7 -1 20 -1q55 0 92 28q63 48 63 160q0 76 -55 117t-119.5 41t-64.5 -39v-475q0 -75 67 -87q33 -6 33 -17.5t-29 -11.5t-55 3.5t-43 3.5z" />
<glyph unicode="&#x1a5;" horiz-adv-x="519" d="M120 -280l-80 -5q-21 0 -21 9.5t28 18.5t33 18.5t5 18.5l-1 682q0 107 57 175.5t122 68.5t81 -20q8 -9 8 -22.5t-11.5 -27.5t-24 -14t-22 13.5t-23.5 27t-35 13.5q-33 0 -56 -48.5t-23 -127.5v-143q0 -8 1 -9q19 19 69.5 42.5t92.5 23.5q74 0 119 -57t45 -132 q0 -92 -66.5 -165.5t-158.5 -73.5q-22 0 -54 9.5t-46 22.5q-4 0 -4 -51v-187q0 -15 11.5 -21.5t17 -8.5t16.5 -4q36 -9 36 -22q0 -9 -22 -9zM156 269l-1 -64q0 -48 2.5 -95.5t26.5 -70t90 -22.5q38 0 80 37q21 19 35.5 55.5t14.5 87t-14.5 88.5t-37.5 55q-43 29 -87.5 29 t-82.5 -29q-23 -17 -26 -71z" />
<glyph unicode="&#x1a6;" horiz-adv-x="630" d="M210 261q0 -22 12.5 -28.5t40.5 -6.5q61 0 104 39q45 43 45 121q0 50 -24 90q-30 48 -110 48q-68 0 -68 -54v-209zM210 550q0 -1 21 1.5t47 2.5q109 0 166.5 -43t57.5 -125q0 -30 -15 -63t-29 -47q-48 -45 -73 -58q-6 -3 0 -9q21 -24 87 -124t95 -125.5t54 -31.5t66 -6 q15 0 15 -11q0 -19 -26.5 -27t-63 -8t-65 11.5t-54.5 43.5t-74.5 104t-69.5 101q-38 53 -124 63q-15 2 -15 -20v-81q0 -34 19.5 -50.5t56 -23t36.5 -18t-29 -11.5l-117 5l-128 -5q-29 0 -29 11.5t36.5 18t55.5 23t19 50.5v452q0 35 -14.5 50t-50 21.5t-35.5 20.5q0 11 29 11 l117 -3l109 3q29 0 29 -11q0 -14 -33 -20q-71 -13 -71 -72z" />
<glyph unicode="&#x1a7;" horiz-adv-x="465" d="M248 17q96 0 123 86q21 66 29.5 66t15 -10.5t6.5 -18.5q0 -77 -18 -115q-4 -9 -21 -17q-51 -24 -142.5 -24t-145.5 38.5t-54 118.5q0 84 55 133q45 40 90.5 63t55.5 30q87 56 87 142q0 51 -32.5 86.5t-77 35.5t-75.5 -30.5t-39 -74.5q-6 -28 -35 -28q-7 0 -7 19.5t2 40.5 q4 44 7 49q5 23 17 23q3 0 27 8q72 26 116 26q74 0 128 -33t54 -92q0 -82 -38 -125q-21 -22 -36 -34t-46 -30q-90 -50 -132 -102q-32 -39 -32 -94t33 -96t85 -41z" />
<glyph unicode="&#x1a8;" horiz-adv-x="323" d="M139 386q-24 0 -44 -18.5t-22 -37.5q-1 -7 -9.5 -14t-15.5 -7t-7 4q0 57 17 78q8 8 41 15.5t62 7.5q61 0 94 -22.5t33 -65.5q0 -22 -6 -33.5t-9 -17.5t-12 -14.5t-12 -12t-15 -12.5t-14 -10q-30 -18 -43.5 -27.5t-27.5 -20t-29 -32t-15 -45.5q0 -86 79 -86q27 0 51 17 t28.5 38.5t12.5 21.5q17 0 17 -9q-2 -38 -13 -61q-5 -11 -41 -23.5t-74 -12.5q-75 0 -108 31t-33 72q0 52 64 96q14 10 19 13q25 18 37 24q64 40 64 86q0 78 -69 78z" />
<glyph unicode="&#x1a9;" horiz-adv-x="603" d="M158 0l-112 -6q-21 0 -21 15q0 8 128.5 146t143.5 155q4 5 -1 11q-21 25 -92 104q-176 198 -176 206.5t5 13t11 4.5q111 -3 224.5 -3t172 0.5t69.5 8.5q18 14 25 14q13 0 15 -17q11 -74 15 -99.5t4 -37.5t-10 -12q-7 0 -10.5 4t-7.5 16l-4 12q-24 65 -82 69 q-165 11 -275 11q-19 0 -19 -7q0 -9 94.5 -111t124.5 -132q9 -9 -1 -22l-221 -249q-5 -6 -2.5 -11t10.5 -6q54 -7 226 -7h54q41 1 65 12.5t42.5 46t31.5 34.5q9 0 9 -9v-2l-1 -2q-31 -88 -41 -138q-4 -17 -14 -17l-80 5q-64 1 -164 1t-136 -1z" />
<glyph unicode="&#x1aa;" horiz-adv-x="320" d="M6 625q0 37 33.5 59t76.5 22q83 0 112 -114q29 7 53 20q9 5 14.5 -3t5.5 -17t-67 -27q7 -42 7 -100v-510q0 -120 16.5 -167.5t51.5 -47.5q25 0 37.5 12.5t12.5 27t23.5 33t39.5 18.5q9 0 9 -26q0 -45 -39.5 -69t-99.5 -24t-90.5 50.5t-30.5 133.5v604q0 28 -3 52 q-24 -3 -57 -3t-69 19.5t-36 56.5zM164 582q-17 94 -66 94q-17 0 -29 -11.5t-12 -33t24 -36t49 -14.5t34 1z" />
<glyph unicode="&#x1ab;" horiz-adv-x="314" d="M189 -14q-49 0 -76.5 29.5t-27.5 89.5v232q0 9 -7.5 12t-30.5 3q-3 0 -7.5 7.5t-4.5 12t5 7.5q23 7 47 29t39 41t18 19q14 0 14 -10l-2 -44q0 -14 24 -14h114q10 0 10 -24t-10 -24h-99q-27 0 -33.5 -4t-6.5 -24v-189q0 -51 19 -72.5t47 -21.5q50 0 75 19q4 3 7 -1.5 t3 -11.5q0 -154 -21 -217t-59.5 -90.5t-77.5 -27.5t-71.5 11.5t-32.5 27.5q0 23 11 39.5t24 16.5t33.5 -29t42.5 -29t39.5 13.5t24.5 38.5q15 50 15 193q-22 -8 -45 -8z" />
<glyph unicode="&#x1ac;" horiz-adv-x="578" d="M342 0l-128 -5q-29 0 -29 11.5t36 17.5q75 14 75 78v455q0 40 -18 43q-19 4 -74 4h-62q-23 0 -45.5 -18t-22.5 -36.5t17 -32t17 -27t-16 -26.5t-33 -13t-34 22.5t-17 50.5q0 64 56 91.5t163 27.5l329 -1q38 0 58 14q7 5 17.5 15t18 15.5t14.5 5.5t7 -23l-1 -9 q-16 -66 -16 -99v-12q0 -10 -4.5 -21t-11.5 -11q-11 0 -19 41q-8 46 -99.5 46t-127.5 -4q-16 -2 -16 -43v-455q0 -64 79 -78q33 -6 33 -17.5t-29 -11.5z" />
<glyph unicode="&#x1ad;" horiz-adv-x="307" d="M155 414q0 -14 25 -14h114q8 0 8 -24t-8 -24h-99q-27 0 -33.5 -4t-6.5 -24v-189q0 -51 19 -72.5t47 -21.5q50 0 75 19q4 3 7 -1.5t3 -11t-16 -21t-44.5 -27.5t-56.5 -13q-49 0 -76.5 29.5t-27.5 89.5v245q-31 0 -52 2q-3 1 -8.5 7t-5.5 9.5t7 7.5q15 4 59 26v63 q0 105 56.5 173t121.5 68t81 -20q8 -9 8 -22.5t-11.5 -27.5t-24 -14t-22 13.5t-23.5 27t-35 13.5q-33 0 -56 -48t-25 -128v-86z" />
<glyph unicode="&#x1ae;" horiz-adv-x="670" d="M671 669l-1 -9q-16 -66 -16 -99v-12q0 -10 -4.5 -21t-11.5 -11q-11 0 -19 41q-8 46 -99.5 46t-127.5 -4q-16 -2 -16 -43v-514q0 -118 18 -162t55 -44t59.5 22t22.5 37.5t30 36t46 20.5q8 0 8 -26q0 -61 -55.5 -94t-137.5 -33q-58 0 -92 51t-34 133v573q0 40 -18 43 q-19 4 -74 4h-47q-26 0 -49 -10t-31 -25.5t-20.5 -28.5t-22.5 -13q-7 0 -7 11.5t5 21.5q22 46 31 111q3 23 17 23q8 0 25 -32q11 -20 70 -20h381q38 0 58 14q7 5 17.5 15t18 15.5t14.5 5.5t7 -23z" />
<glyph unicode="&#x1af;" horiz-adv-x="738" d="M543 651l59 -1h95q15 0 24 11.5t9 19.5t-23 19t-23 25t19.5 33t37 19t29.5 -22.5t12 -41.5q0 -77 -106 -104q-18 -5 -23.5 -17.5t-7 -36.5t-10.5 -301q-4 -117 -75.5 -192.5t-179.5 -75.5q-138 0 -207.5 91.5t-69.5 244.5v225q0 60 -46 73q-33 9 -33 22q0 11 29 11l96 -3 l80 2q29 0 29 -11q0 -9 -33 -20q-14 -4 -28 -24.5t-14 -47.5v-255q0 -103 62 -180.5t156.5 -77.5t142.5 71.5t48 192.5q0 57 -4 211q-2 98 -41 109q-33 9 -33 20t29 11z" />
<glyph unicode="&#x1b0;" horiz-adv-x="527" d="M437 351l1 -25v-212q0 -69 18 -69q31 0 46 3t15 -12t-14 -15q-52 -7 -90.5 -23.5t-46 -16.5t-7.5 4l5 66v6q-72 -71 -165 -71q-51 0 -82.5 31t-31.5 88v203q0 40 -43 57q-13 4 -13 16.5t15 15.5q35 1 103 17q7 1 11 -3t3 -11q-6 -46 -6 -77v-195q0 -36 26 -63.5t58 -27.5 q58 0 84 20q45 33 45 75v183q0 27 -21 38t-44 11.5t-23 17.5q0 8 8.5 11.5t50 5.5t69.5 9t38.5 9.5t19 5t17.5 5.5q20 8 20 14q0 15 -14 24t-18.5 15.5t-4.5 19.5q0 33 55 33q40 0 40 -51q0 -40 -28 -62t-86 -43q-10 -4 -10 -27z" />
<glyph unicode="&#x1b1;" horiz-adv-x="759" d="M194 650l100 2q8 0 8 -11q0 -34 -48 -84t-61 -104t-13 -156.5t58.5 -190t152.5 -87.5q65 0 109 39.5t61.5 97t17.5 130.5q0 169 -73 259q-13 16 -29 45t-16 45.5t8 16.5l113 -2l105 3q29 0 29 -11q0 -13 -25 -18.5t-65.5 -9t-65 -8t-24.5 -14.5q0 -16 14 -27 q64 -49 96.5 -111t32.5 -151q0 -126 -87 -221.5t-210.5 -95.5t-212.5 83t-89 214q0 87 32.5 158.5t85.5 112.5q28 21 28 38q0 8 -64.5 16t-77.5 12q-33 10 -33 21.5t29 11.5z" />
<glyph unicode="&#x1b2;" horiz-adv-x="738" d="M149 650l80 2q29 0 29 -11q0 -9 -33 -20q-14 -4 -28 -24.5t-14 -47.5v-296q0 -97 48.5 -157t122.5 -60t130 47t83.5 114.5t27.5 138.5q0 112 -7.5 148t-16.5 61t-22 39q-31 35 -77 35q-14 0 -25.5 -12.5t-17.5 -28.5q-16 -40 -32 -40q-11 0 -23 14t-12 28q0 42 39.5 63 t90.5 21q84 0 139 -83.5t55 -191t-44 -199t-125.5 -148t-182.5 -56.5q-58 0 -104 22t-72 58q-55 73 -55 156v325q0 60 -46 73q-33 9 -33 22q0 11 29 11z" />
<glyph unicode="&#x1b3;" horiz-adv-x="655" d="M583 534l10 53q0 33 -24 33q-14 0 -39 -27q-45 -49 -161 -247q-18 -31 -21.5 -45t-3.5 -45v-148q0 -34 20.5 -55.5t56 -28t35.5 -18t-29 -11.5l-117 5l-128 -5q-29 0 -29 11.5t33 17.5q78 14 78 84v148q0 29 -25 74l-117 192q-55 88 -88.5 98t-33.5 21.5t29 11.5l117 -3 l80 2q29 0 29 -11q0 -13 -32.5 -20.5t-32.5 -24.5q0 -13 13 -36l92 -165q22 -38 28 -38q9 0 29.5 32t67 106.5t61 97.5t45.5 48t62 25q74 0 74 -94q0 -31 -20 -46.5t-39.5 -15.5t-19.5 24z" />
<glyph unicode="&#x1b4;" horiz-adv-x="525" d="M98 400l73 5h3q20 0 20 -9.5t-23 -17.5q-22 -6 -22 -43q0 -14 4 -23l79 -196q5 -10 7.5 -10t7.5 11l135 334q8 21 32 38t49.5 17t51.5 -9t26 -24q0 -24 -13 -45.5t-28 -21.5q-7 0 -26.5 24.5t-29.5 24.5q-17 0 -32 -34l-187 -434q-1 -3 -16.5 -40t-38.5 -93t-41 -97.5 t-65 -41.5q-19 0 -35 10t-16 26q0 30 27 30l40 -6q12 0 19 11q46 79 91 198q3 9 3 25t-4 27l-116 293q-17 41 -45 49q-23 8 -23 17.5t20 9.5h3z" />
<glyph unicode="&#x1b5;" horiz-adv-x="603" d="M142 353h339q5 0 9 -4t4 -10t-10 -14t-21 -8h-331q-6 -1 -10 3t-4 10t8 14t16 9zM533 -5l-302 3l-119 -1h-77q-7 0 -7 11v3q0 15 58 93q235 321 342 484q4 6 4 8q0 7 -19 8q-72 2 -147.5 2t-102 -2t-52.5 -18.5t-38.5 -49.5t-27.5 -33q-9 0 -9 9.5t15 53.5t19 86 q1 17 15 17q7 0 25 -14q11 -8 68 -8.5t163.5 -0.5t217.5 3q5 0 9.5 -7t1.5 -11l-61 -81q-216 -291 -338 -480q-3 -5 -3 -16t11 -13q48 -5 112 -5t145 6t121 100q8 21 22 21q9 0 9 -11t-14.5 -67t-23 -73t-17.5 -17z" />
<glyph unicode="&#x1b6;" horiz-adv-x="377" d="M87 218h226q5 0 9 -4t4 -10t-10 -14t-21 -7h-218q-5 -1 -9 3t-5 10t7 14t17 8zM127 401l38 1q95 0 186 3q4 0 6.5 -4.5t0.5 -7.5q-20 -24 -38 -50l-193 -293q-3 -5 2 -10t10 -5h117q20 0 39.5 19t46.5 58q12 24 22 24q8 0 8 -18.5t-14.5 -65.5t-19 -52t-8.5 -5t-75 2.5 t-136 2.5l-80 -5q-4 0 -9 6.5t-5 12.5t37 56q74 106 186 284q7 10 -9 10h-117q-14 0 -30 -22q-4 -6 -11 -15.5t-9.5 -13t-6.5 -9t-7 -8.5q-10 -10 -15.5 -10t-7 8t1.5 14q17 40 17 90q0 7 5.5 12.5t9.5 5.5t13 -7.5t45 -7.5z" />
<glyph unicode="&#x1b7;" horiz-adv-x="510" d="M237 346l-23 -1q-23 0 -23 16q0 13 17 34l137 175q10 12 10 23.5t-30 11.5h-159q-27 0 -53.5 -18t-39.5 -51t-28 -33q-9 0 -9 9.5t15 53.5t19 86q1 17 15 17q7 0 25 -14q8 -5 51 -5h238l46 3q4 0 6.5 -9t-0.5 -13l-181 -238q-8 -11 1 -11q79 0 134 -47t55 -130 q-1 -106 -79 -162.5t-180 -56.5q-59 0 -121 29q-30 14 -34 37q-11 77 -11 107q0 6 6 10.5t14 4.5q6 0 25.5 -48t57.5 -78.5t80 -30.5q74 0 113 50.5t39 116.5t-37 114t-96 48z" />
<glyph unicode="&#x1b8;" horiz-adv-x="603" d="M70 658l87 -8h168q66 0 73 5q18 14 25 14q13 0 15 -17q11 -74 15 -99.5t4 -37.5t-10 -12q-7 0 -10.5 4t-7.5 16l-4 12q-28 75 -76 75h-162q-23 0 -23 -6q0 -12 24 -40l110 -152q27 -44 28 -51q0 -23 -50 -23l-24 1q-55 0 -87 -43t-32 -107t44 -116t109 -52q100 0 138 95 q18 44 24 44q8 0 14 -4.5t6 -15.5t-11 -88q-4 -23 -34 -37q-62 -29 -157 -29t-163 50.5t-68 130.5t42 127q49 55 117 70q26 6 26 12l-156 230l-18 32q0 8 9.5 14t14.5 6z" />
<glyph unicode="&#x1b9;" horiz-adv-x="404" d="M68 404l148 -2h72q56 0 64.5 7t12.5 7q10 0 10 -11q0 -2 -4 -36.5t-4 -56.5v-5q0 -25 -17 -25q-12 0 -16 29q-7 56 -82 56h-94q-16 0 -9 -9l124 -207q29 -51 29 -58.5t-3.5 -10t-10.5 -2.5t-33 7t-44 7q-42 0 -72 -46.5t-30 -105.5t48.5 -124.5t115.5 -65.5 q34 0 51.5 5.5t37 19t19.5 -2.5q0 -11 -12 -23q-35 -36 -123 -36t-155 62t-67 136t38 128.5t101 68.5q35 8 35 15q0 3 -3 8l-125 210q-24 40 -24 50.5t22 10.5z" />
<glyph unicode="&#x1ba;" horiz-adv-x="426" d="M224 120q3 0 17 2q145 0 145 -107q0 -77 -65.5 -123.5t-151.5 -46.5q-42 0 -68 -12.5t-26 -33.5q0 -44 112 -44q33 0 69.5 9.5t48 17t19 15.5t14.5 12.5t15 4.5t8 -10.5t-20.5 -31t-68 -41t-105.5 -20.5q-143 0 -143 78q0 50 42 76t107.5 26t96.5 18.5t31 71t-28 83 t-74 30.5q-18 0 -48.5 -5.5t-35.5 -5.5t-7 3q-5 8 29 65l124 203q7 9 -9 10l-94 4l-22 -1q-31 -1 -76 -63q-13 -18 -22 -18q-12 0 -0.5 25t11.5 94q0 11 10 11q4 0 12.5 -7t50.5 -7h72q63 0 169 2q4 0 6.5 -4.5t-4 -16t-50 -78t-100.5 -172.5q-7 -13 9 -13z" />
<glyph unicode="&#x1bb;" horiz-adv-x="485" d="M99 270q-6 0 -10 6t-4 12.5t7.5 12t16.5 5.5h327q5 0 9.5 -3.5t4.5 -10.5t-11 -14.5t-21 -7.5h-319zM86 516q-8 -14 -15 -14t-12 9.5t-1.5 19t18.5 30t39 45t61.5 41.5t77.5 17q70 0 112.5 -49.5t42.5 -122.5q0 -35 -22.5 -86t-50.5 -85q-194 -233 -211 -245 q-10 -7 9 -11q2 0 19.5 -2t74 -2t105.5 2.5t65.5 10.5t34.5 37q12 18 27 22q3 1 4 -1.5t1 -8t-3.5 -15.5t-8.5 -22.5t-6.5 -15.5t-3.5 -10q-4 -11 -8.5 -37t-17.5 -26h-5q-96 6 -189 6t-189 -5q-8 0 -8 10t8 20l175 208q114 118 114 240q0 53 -28.5 89.5t-71.5 36.5t-84 -31 t-53 -55z" />
<glyph unicode="&#x1be;" horiz-adv-x="379" d="M54 503h218q5 0 9 -4t4 -10.5t-9.5 -17t-21.5 -10.5h-210q-5 0 -9.5 3.5t-4.5 10.5t7 17.5t17 10.5zM188 567v-125q0 -29 14.5 -60t45.5 -53t64 -67.5t33 -79.5q0 -90 -62.5 -143t-147.5 -53t-124 48q-5 7 -5 15.5t14.5 19.5t26.5 11t22 -10q27 -29 43 -38t57.5 -9 t71.5 40t30 93q0 26 -25 64t-51 54.5t-51.5 57.5t-25.5 86v149q0 62 -46 72q-8 2 -8 12.5t7 12.5q25 6 71 23t46 17.5t1 0.5q6 0 6 -7q0 -3 -1 -18q-6 -53 -6 -113z" />
<glyph unicode="&#x1bf;" horiz-adv-x="499" d="M120 -280l-80 -5q-21 0 -21 9.5t28 18.5t33 18.5t5 18.5v507q0 17 -12 42.5t-34 30.5q-8 2 -8 12.5t7 12.5q42 10 116 40l1 1h1q6 0 6 -9l-7 -75q0 -19 11 -6q23 27 38 40.5t45 25.5t79.5 12t86 -29t36.5 -88q0 -100 -68 -186t-205 -167q-23 -13 -23 -28v-136 q0 -15 11.5 -21.5t17 -8.5t16.5 -4q36 -9 36 -22q0 -9 -22 -9zM155 16q0 -40 9 -40q5 0 12 4q80 53 136.5 129.5t56.5 145.5t-26 91.5t-64.5 22.5t-81 -43.5t-42.5 -99.5v-210z" />
<glyph unicode="&#x1c0;" horiz-adv-x="125" d="M40 673q0 11 12.5 21t18 10t10 -4t4.5 -9v-681q0 -11 -12 -17.5t-18.5 -6.5t-10.5 4.5t-4 9.5v673z" />
<glyph unicode="&#x1c1;" horiz-adv-x="230" d="M40 673q0 11 12.5 21t18 10t10 -4t4.5 -9v-681q0 -11 -12 -17.5t-18.5 -6.5t-10.5 4.5t-4 9.5v673zM145 673q0 11 12.5 21t18 10t10 -4t4.5 -9v-681q0 -11 -12 -17.5t-19 -6.5q-14 0 -14 14v673z" />
<glyph unicode="&#x1c2;" horiz-adv-x="315" d="M44 287h237q5 0 9.5 -3.5t4.5 -7.5l-1 -1v-2q0 -21 -31 -21h-229q-5 0 -9.5 4t-4.5 9.5t7.5 13.5t16.5 8zM44 400h237q5 0 9.5 -3.5t4.5 -6t-1 -4.5q0 -21 -31 -21h-229q-5 0 -9.5 3.5t-4.5 9.5t7.5 14t16.5 8zM135 673q0 11 12.5 21t18 10t10 -4t4.5 -9v-681 q0 -11 -12 -17.5t-19 -6.5q-14 0 -14 14v673z" />
<glyph unicode="&#x1c3;" horiz-adv-x="270" d="M135 106q25 0 42.5 -17.5t17.5 -42.5t-17.5 -42.5t-42.5 -17.5t-42.5 17.5t-17.5 42.5t17.5 42.5t42.5 17.5zM87.5 494q-4.5 51 -4.5 81t13.5 52t38.5 22t38.5 -22t13.5 -52.5t-4 -75.5t-8 -75.5t-12.5 -95.5t-11.5 -84q-5 -39 -18.5 -39t-17 33t-13.5 119t-14.5 137z " />
<glyph unicode="&#x1c4;" horiz-adv-x="1357" d="M923 822q0 10 12 10t56.5 -21t61 -30.5t26.5 -3.5q24 14 68 35t55.5 21t11.5 -11q0 -7 -6 -12l-98 -88q-25 -22 -41 -22t-41 22l-98 88q-7 6 -7 12zM1287 -5l-302 3l-119 -1h-77q-7 0 -7 11v3q0 15 58 93q235 321 342 484q4 6 4 8q0 7 -19 8q-72 2 -147.5 2t-102 -2 t-52.5 -18.5t-38.5 -49.5t-27.5 -33q-9 0 -9 9.5t15 53.5t19 86q1 17 15 17q7 0 25 -14q11 -8 68 -8.5t163.5 -0.5t217.5 3q5 0 9.5 -7t1.5 -11l-61 -81q-216 -291 -338 -480q-3 -5 -3 -16t11 -13q48 -5 112 -5t145 6t121 100q8 21 22 21q9 0 9 -11t-14.5 -67t-23 -73 t-17.5 -17zM169 651l171 8q193 0 286 -88t93 -230.5t-102.5 -245t-245.5 -102.5q-3 0 -82 3.5t-126 3.5l-105 -5q-29 0 -29 11.5t35.5 18t50 22.5t14.5 52v450q0 35 -14.5 50.5t-50 22t-35.5 20.5q0 11 29 11l104 -2h7zM209 121q0 -59 47 -77q42 -16 103 -16q117 0 191 83 t74 217t-84.5 217t-194.5 83q-95 0 -114 -14q-22 -15 -22 -47v-446z" />
<glyph unicode="&#x1c5;" horiz-adv-x="1131" d="M951 550q3 -5 7 0q77 107 95 107q9 0 9 -15.5t-88 -151.5q-11 -18 -20 -18t-20 18q-88 136 -88 151.5t10 15.5q18 0 95 -107zM881 401l38 1q95 0 186 3q4 0 6.5 -4.5t0.5 -7.5q-20 -24 -38 -50l-193 -293q-3 -5 2 -10t10 -5h117q20 0 39.5 19t46.5 58q12 24 22 24 q8 0 8 -18.5t-14.5 -65.5t-19 -52t-8.5 -5t-75 2.5t-136 2.5l-80 -5q-4 0 -9 6.5t-5 12.5t37 56q74 106 186 284q7 10 -9 10h-117q-14 0 -30 -22q-4 -6 -11 -15.5t-9.5 -13t-6.5 -9t-7 -8.5q-10 -10 -15.5 -10t-7 8t1.5 14q17 40 17 90q0 7 5.5 12.5t9.5 5.5t13 -7.5 t45 -7.5zM169 651l171 8q193 0 286 -88t93 -230.5t-102.5 -245t-245.5 -102.5q-3 0 -82 3.5t-126 3.5l-105 -5q-29 0 -29 11.5t35.5 18t50 22.5t14.5 52v450q0 35 -14.5 50.5t-50 22t-35.5 20.5q0 11 29 11l104 -2h7zM209 121q0 -59 47 -77q42 -16 103 -16q117 0 191 83 t74 217t-84.5 217t-194.5 83q-95 0 -114 -14q-22 -15 -22 -47v-446z" />
<glyph unicode="&#x1c6;" horiz-adv-x="883" d="M703 550q3 -5 7 0q77 107 95 107q9 0 9 -15.5t-88 -151.5q-11 -18 -20 -18t-20 18q-88 136 -88 151.5t10 15.5q18 0 95 -107zM633 401l38 1q95 0 186 3q4 0 6.5 -4.5t0.5 -7.5q-20 -24 -38 -50l-193 -293q-3 -5 2 -10t10 -5h117q20 0 39.5 19t46.5 58q12 24 22 24 q8 0 8 -18.5t-14.5 -65.5t-19 -52t-8.5 -5t-75 2.5t-136 2.5l-80 -5q-4 0 -9 6.5t-5 12.5t37 56q74 106 186 284q7 10 -9 10h-117q-14 0 -30 -22q-4 -6 -11 -15.5t-9.5 -13t-6.5 -9t-7 -8.5q-10 -10 -15.5 -10t-7 8t1.5 14q17 40 17 90q0 7 5.5 12.5t9.5 5.5t13 -7.5 t45 -7.5zM346 -15l5 66v6q-18 -28 -52 -49.5t-79 -21.5q-82 0 -133.5 62t-51.5 147.5t62 152t163 66.5q20 0 46.5 -7.5t32.5 -15t9.5 -7.5t3.5 24v158q0 38 -11.5 52.5t-39.5 20.5q-8 2 -8 13t7 12q39 9 78 24.5t44.5 15.5t6 -4.5t-0.5 -19.5q-6 -57 -6 -118v-452 q0 -65 21 -65q31 0 46 3t15 -12t-14 -15q-52 -7 -90.5 -23.5t-46 -16.5t-7.5 4zM229 379q-36 0 -74 -32q-20 -17 -33 -52t-13 -85t16.5 -88.5t41.5 -56.5q47 -34 89 -34t69 26t27 63v135q0 46 -34 85t-89 39z" />
<glyph unicode="&#x1c7;" horiz-adv-x="874" d="M751 650l94 3q29 0 29 -11q0 -14 -34.5 -20.5t-45 -20.5t-10.5 -50v-409q0 -152 -17 -204q-10 -30 -15.5 -40t-20.5 -32q-46 -66 -123 -66q-46 0 -74.5 12.5t-28.5 31t11.5 36t24.5 17.5q33 0 51 -27.5t46 -27.5q66 0 66 158v551q0 34 -14.5 49t-49.5 21.5t-35 20.5 q0 11 29 11zM177 650l126 3q29 0 29 -11q0 -14 -28.5 -19t-40.5 -8t-27 -9q-26 -11 -26 -39v-471q0 -33 15 -47t62 -14h146q6 0 25 8q52 22 83 89q11 30 22.5 30t11.5 -18q-1 -1 -1 -3v-2q-23 -86 -27 -127q-2 -17 -14 -17l-343 5l-135 -5q-28 0 -28 11.5t22 17.5 q41 8 61 24t20 48v464q0 35 -11 45t-47 16.5t-36 20.5q0 11 29 11z" />
<glyph unicode="&#x1c8;" horiz-adv-x="819" d="M625 563q1 23 15 37t36 14t36 -14t14 -36t-14 -36t-37 -15q-21 1 -35 15t-15 35zM718 275v-184q0 -160 -30 -243q-19 -51 -58.5 -93t-65 -42t-25.5 10.5t11 16.5q41 10 68 67t27 262v210q0 64 -46 73q-8 2 -8 12.5t7 12.5q49 12 102 47q16 10 18 10q7 0 7 -5 q-7 -72 -7 -154zM177 650l126 3q29 0 29 -11q0 -14 -28.5 -19t-40.5 -8t-27 -9q-26 -11 -26 -39v-471q0 -33 15 -47t62 -14h146q6 0 25 8q52 22 83 89q11 30 22.5 30t11.5 -18q-1 -1 -1 -3v-2q-23 -86 -27 -127q-2 -17 -14 -17l-343 5l-135 -5q-28 0 -28 11.5t22 17.5 q41 8 61 24t20 48v464q0 35 -11 45t-47 16.5t-36 20.5q0 11 29 11z" />
<glyph unicode="&#x1c9;" horiz-adv-x="486" d="M292 563q1 23 15 37t36 14t36 -14t14 -36t-14 -36t-37 -15q-21 1 -35 15t-15 35zM385 275v-184q0 -160 -30 -243q-19 -51 -58.5 -93t-65 -42t-25.5 10.5t11 16.5q41 10 68 67t27 262v210q0 64 -46 73q-8 2 -8 12.5t7 12.5q49 12 102 47q16 10 18 10q7 0 7 -5 q-7 -72 -7 -154zM120 2l-81 -5q-20 0 -20 9.5t28 18.5t33 18.5t5 18.5v504q0 63 -46 73q-8 2 -8 12.5t7 12.5q25 6 116 40h1l1 1q6 0 6 -7q0 -3 -2 -18q-5 -39 -5 -118v-500q0 -20 12 -26q13 -6 33.5 -13t20.5 -16.5t-20 -9.5z" />
<glyph unicode="&#x1ca;" horiz-adv-x="1070" d="M947 650l94 3q29 0 29 -11q0 -14 -34.5 -20.5t-45 -20.5t-10.5 -50v-409q0 -152 -17 -204q-10 -30 -15.5 -40t-20.5 -32q-46 -66 -123 -66q-46 0 -74.5 12.5t-28.5 31t11.5 36t24.5 17.5q33 0 51 -27.5t46 -27.5q66 0 66 158v551q0 34 -14.5 49t-49.5 21.5t-35 20.5 q0 11 29 11zM25 658l154 -5q11 0 24 -17.5t187.5 -237t192.5 -241t26.5 -21.5t9.5 21q2 64 2 320v87q-1 18 -20.5 35t-45 21.5t-25.5 18.5q0 11 29 11h57l115 3q29 0 29 -11q0 -14 -35 -20.5t-47.5 -17.5t-14 -47.5t-1.5 -548.5q0 -25 -21 -25q-11 0 -35 16.5t-48.5 50 t-353.5 434.5q-13 16 -21.5 16t-8.5 -21q-5 -248 -5 -375q0 -68 64 -80q33 -6 33 -17.5t-29 -11.5l-94 5l-91 -5q-29 0 -29 11.5t28.5 16.5t44 34.5t18.5 49.5q18 150 18 400q0 49 -24.5 73t-65 37t-40.5 27t23 14z" />
<glyph unicode="&#x1cb;" horiz-adv-x="1015" d="M821 563q1 23 15 37t36 14t36 -14t14 -36t-14 -36t-37 -15q-21 1 -35 15t-15 35zM914 275v-184q0 -160 -30 -243q-19 -51 -58.5 -93t-65 -42t-25.5 10.5t11 16.5q41 10 68 67t27 262v210q0 64 -46 73q-8 2 -8 12.5t7 12.5q49 12 102 47q16 10 18 10q7 0 7 -5 q-7 -72 -7 -154zM25 658l154 -5q11 0 24 -17.5t187.5 -237t192.5 -241t26.5 -21.5t9.5 21q2 64 2 320v87q-1 18 -20.5 35t-45 21.5t-25.5 18.5q0 11 29 11h57l115 3q29 0 29 -11q0 -14 -35 -20.5t-47.5 -17.5t-14 -47.5t-1.5 -548.5q0 -25 -21 -25q-11 0 -35 16.5t-48.5 50 t-353.5 434.5q-13 16 -21.5 16t-8.5 -21q-5 -248 -5 -375q0 -68 64 -80q33 -6 33 -17.5t-29 -11.5l-94 5l-91 -5q-29 0 -29 11.5t28.5 16.5t44 34.5t18.5 49.5q18 150 18 400q0 49 -24.5 73t-65 37t-40.5 27t23 14z" />
<glyph unicode="&#x1cc;" horiz-adv-x="688" d="M552 563q1 23 15 37t36 14t36 -14t14 -36t-14 -36t-37 -15q-21 1 -35 15t-15 35zM645 275v-184q0 -160 -30 -243q-19 -51 -58.5 -93t-65 -42t-25.5 10.5t11 16.5q41 10 68 67t27 262v210q0 64 -46 73q-8 2 -8 12.5t7 12.5q49 12 102 47q16 10 18 10q7 0 7 -5 q-7 -72 -7 -154zM405 2l-82 -5q-20 0 -20 9.5t23 17.5q1 0 4 1q33 10 38 27q1 5 1 10v210q0 43 -25 68t-73.5 25t-79.5 -21t-31 -76v-206q0 -20 12 -26q13 -6 33.5 -13t20.5 -16.5t-20 -9.5l-81 5l-81 -5q-20 0 -20 9.5t16.5 15t19 6t10.5 4.5t10 7q10 11 10 23v215 q0 64 -41 72q-8 2 -8 13t7 12q52 12 110 55q1 1 3.5 1t5.5 -9l-7 -65q0 -7 1 -8q28 23 75.5 44.5t92.5 21.5t77.5 -40t32.5 -99v-213q0 -20 12 -26q13 -6 33.5 -13t20.5 -16.5t-20 -9.5z" />
<glyph unicode="&#x1cd;" horiz-adv-x="684" d="M217 822q0 10 12 10t56.5 -21t61 -30.5t26.5 -3.5q24 14 68 35t55.5 21t11.5 -11q0 -7 -6 -12l-98 -88q-25 -22 -41 -22t-41 22l-98 88q-7 6 -7 12zM147 1l-120 -6q-29 0 -29 12.5t33 23.5q60 18 86 77q96 220 187 470q13 33 13 45.5t1 12.5q36 12 42 19.5t8 11.5 q4 9 7 9q5 0 10 -14q74 -233 178 -534q19 -55 42 -74.5t57.5 -25.5t34.5 -23q0 -10 -29 -10l-139 6l-105 -1q-29 0 -29 12q0 14 33 19q61 10 61 45q0 30 -38 157q-3 11 -27 11h-191q-11 0 -17 -18q-40 -116 -40 -138t16.5 -37t45.5 -22.5t29 -18.5t-29 -11zM333 542 l-90 -240q-2 -6 -2 -8q0 -7 21 -7h155q14 0 14 5q0 2 -2 10l-79 239q-6 18 -8.5 18t-8.5 -17z" />
<glyph unicode="&#x1ce;" horiz-adv-x="399" d="M187 550q3 -5 7 0q77 107 95 107q9 0 9 -15.5t-88 -151.5q-11 -18 -20 -18t-20 18q-88 136 -88 151.5t10 15.5q18 0 95 -107zM115 87q0 -26 16 -40.5t39 -14.5t54 27q11 9 12 40l2 49q1 21 -9 21q-7 0 -14 -3q-100 -34 -100 -79zM116 314l1 -14q0 -9 -28.5 -22t-38.5 -13 t-10 9q0 34 34.5 64.5t76.5 53t77.5 22.5t59.5 -26t23 -63l-5 -216v-6q0 -71 36 -71q25 0 40 14q4 4 10 0.5t6 -9.5v-1q-6 -13 -31 -31.5t-49.5 -18.5t-41 13t-23.5 26t-9 13q-4 0 -18 -13t-41.5 -26t-61 -13t-61 25t-27.5 54q0 60 73 90l102 42q19 8 23 14t5 26l2 62v2 q0 26 -16.5 45t-38 19t-40.5 -10.5t-24 -19.5t-5 -21z" />
<glyph unicode="&#x1cf;" horiz-adv-x="340" d="M35 822q0 10 12 10t56.5 -21t61 -30.5t26.5 -3.5q24 14 68 35t55.5 21t11.5 -11q0 -7 -6 -12l-98 -88q-25 -22 -41 -22t-41 22l-98 88q-7 6 -7 12zM176 0l-128 -5q-29 0 -29 11.5t36.5 18t55.5 23t19 50.5v452q0 35 -14.5 50t-50 21.5t-35.5 20.5q0 11 29 11l117 -3 l109 3q29 0 29 -11q0 -14 -36 -20.5t-52 -22t-16 -49.5v-452q0 -34 19.5 -50.5t56 -23t36.5 -18t-29 -11.5z" />
<glyph unicode="&#x1d0;" horiz-adv-x="245" d="M111 550q3 -5 7 0q77 107 95 107q9 0 9 -15.5t-88 -151.5q-11 -18 -20 -18t-20 18q-88 136 -88 151.5t10 15.5q18 0 95 -107zM125 2l-81 -5q-20 0 -20 9.5t28 18.5t33 18.5t5 18.5v217q0 63 -47 73q-8 2 -8 12.5t7 12.5q49 12 102 47q16 10 18 10q7 0 7 -5 q-9 -92 -9 -135v-232q0 -20 12 -26q13 -6 33.5 -13t20.5 -16.5t-20 -9.5z" />
<glyph unicode="&#x1d1;" horiz-adv-x="763" d="M237 822q0 10 12 10t56.5 -21t61 -30.5t26.5 -3.5q24 14 68 35t55.5 21t11.5 -11q0 -7 -6 -12l-98 -88q-25 -22 -41 -22t-41 22l-98 88q-7 6 -7 12zM557 538q-64 87 -176 87t-175.5 -82t-63.5 -203.5t72.5 -218t181.5 -96.5t167 74.5t58 213t-64 225.5zM45 320 q0 93 38.5 169.5t118.5 125.5t188 49q134 0 231 -92.5t97 -236.5q0 -141 -86 -242q-41 -49 -106 -78t-144 -29q-135 0 -236 97t-101 237z" />
<glyph unicode="&#x1d2;" horiz-adv-x="495" d="M242 550q3 -5 7 0q77 107 95 107q9 0 9 -15.5t-88 -151.5q-11 -18 -20 -18t-20 18q-88 136 -88 151.5t10 15.5q18 0 95 -107zM237 383q-120 0 -120 -173q0 -77 40 -135.5t98 -58.5q75 0 103 55q20 39 20 116t-40 136.5t-101 59.5zM99.5 343.5q64.5 70.5 152.5 70.5 t148 -59.5t60 -147.5t-59.5 -154.5t-166.5 -66.5q-85 0 -142 57t-57 143.5t64.5 157z" />
<glyph unicode="&#x1d3;" horiz-adv-x="738" d="M244 822q0 10 12 10t56.5 -21t61 -30.5t26.5 -3.5q24 14 68 35t55.5 21t11.5 -11q0 -7 -6 -12l-98 -88q-25 -22 -41 -22t-41 22l-98 88q-7 6 -7 12zM618 650l81 3q29 0 29 -11q0 -13 -33 -20q-47 -9 -50 -75q-1 -11 -10 -297q-4 -116 -75.5 -190t-179.5 -74 q-142 0 -209.5 73.5t-67.5 221.5v266q0 60 -46 73q-33 9 -33 22q0 11 29 11l96 -3l80 2q29 0 29 -11q0 -9 -33 -20q-14 -4 -28 -24.5t-14 -47.5v-296q0 -90 64.5 -153.5t156.5 -63.5t140 69.5t48 190.5q0 61 -4 215q-2 98 -41 109q-33 9 -33 20t29 11z" />
<glyph unicode="&#x1d4;" horiz-adv-x="527" d="M247 550q3 -5 7 0q77 107 95 107q9 0 9 -15.5t-88 -151.5q-11 -18 -20 -18t-20 18q-88 136 -88 151.5t10 15.5q18 0 95 -107zM359 -15l5 66v6q-72 -71 -165 -71q-51 0 -82.5 31t-31.5 88v203q0 40 -43 57q-13 4 -13 16.5t15 15.5q35 1 103 17q7 1 11 -3t3 -11 q-6 -46 -6 -77v-195q0 -36 26 -63.5t58 -27.5q58 0 84 20q45 33 45 75v183q0 27 -21 38t-44 11.5t-23 17.5q0 8 8.5 11.5t26.5 4t36 2t31 3.5t18 3q6 0 32 9h2q7 0 11.5 -6t-1.5 -16t-6 -67v-212q0 -69 18 -69q31 0 46 3t15 -12t-14 -15q-52 -7 -90.5 -23.5t-46 -16.5 t-7.5 4z" />
<glyph unicode="&#x1d5;" horiz-adv-x="738" d="M264 900h263q5 0 9 -4t4 -13.5t-9.5 -23t-21.5 -13.5h-255q-5 0 -9.5 3.5t-4.5 12t6 23.5t18 15zM487 801q21 0 35.5 -14.5t14.5 -35.5t-14.5 -35.5t-35.5 -14.5t-35.5 14.5t-14.5 35.5t14.5 35.5t35.5 14.5zM292 801q21 0 35.5 -14.5t14.5 -35.5t-14.5 -35.5 t-35.5 -14.5t-35.5 14.5t-14.5 35.5t14.5 35.5t35.5 14.5zM618 650l81 3q29 0 29 -11q0 -13 -33 -20q-47 -9 -50 -75q-1 -11 -10 -297q-4 -116 -75.5 -190t-179.5 -74q-142 0 -209.5 73.5t-67.5 221.5v266q0 60 -46 73q-33 9 -33 22q0 11 29 11l96 -3l80 2q29 0 29 -11 q0 -9 -33 -20q-14 -4 -28 -24.5t-14 -47.5v-296q0 -90 64.5 -153.5t156.5 -63.5t140 69.5t48 190.5q0 61 -4 215q-2 98 -41 109q-33 9 -33 20t29 11z" />
<glyph unicode="&#x1d6;" horiz-adv-x="527" d="M160 708h203q5 0 9 -4t4 -15t-8 -23.5t-23 -12.5h-195q-5 0 -9.5 4t-4.5 12t6 23.5t18 15.5zM344 593q19 0 34.5 -15.5t15.5 -34.5t-15.5 -34.5t-34.5 -15.5t-34.5 15.5t-15.5 34.5t15.5 34.5t34.5 15.5zM167 593q19 0 34.5 -15.5t15.5 -34.5t-15.5 -34.5t-34.5 -15.5 t-34.5 15.5t-15.5 34.5t15.5 34.5t34.5 15.5zM359 -15l5 66v6q-72 -71 -165 -71q-51 0 -82.5 31t-31.5 88v203q0 40 -43 57q-13 4 -13 16.5t15 15.5q35 1 103 17q7 1 11 -3t3 -11q-6 -46 -6 -77v-195q0 -36 26 -63.5t58 -27.5q58 0 84 20q45 33 45 75v183q0 27 -21 38 t-44 11.5t-23 17.5q0 8 8.5 11.5t26.5 4t36 2t31 3.5t18 3q6 0 32 9h2q7 0 11.5 -6t-1.5 -16t-6 -67v-212q0 -69 18 -69q31 0 46 3t15 -12t-14 -15q-52 -7 -90.5 -23.5t-46 -16.5t-7.5 4z" />
<glyph unicode="&#x1d7;" horiz-adv-x="738" d="M326.5 822q-10.5 0 -10.5 8q0 5 8.5 14.5t66.5 45.5q85 53 103 53t30 -19t12 -28t-4 -12q-34 -19 -114.5 -40.5t-91 -21.5zM487 801q21 0 35.5 -14.5t14.5 -35.5t-14.5 -35.5t-35.5 -14.5t-35.5 14.5t-14.5 35.5t14.5 35.5t35.5 14.5zM292 801q21 0 35.5 -14.5 t14.5 -35.5t-14.5 -35.5t-35.5 -14.5t-35.5 14.5t-14.5 35.5t14.5 35.5t35.5 14.5zM618 650l81 3q29 0 29 -11q0 -13 -33 -20q-47 -9 -50 -75q-1 -11 -10 -297q-4 -116 -75.5 -190t-179.5 -74q-142 0 -209.5 73.5t-67.5 221.5v266q0 60 -46 73q-33 9 -33 22q0 11 29 11 l96 -3l80 2q29 0 29 -11q0 -9 -33 -20q-14 -4 -28 -24.5t-14 -47.5v-296q0 -90 64.5 -153.5t156.5 -63.5t140 69.5t48 190.5q0 61 -4 215q-2 98 -41 109q-33 9 -33 20t29 11z" />
<glyph unicode="&#x1d8;" horiz-adv-x="527" d="M355.5 712q-43.5 -53 -69 -80.5t-35 -27.5t-9.5 17t81 158q11 18 27 18q49 0 49 -23q0 -9 -43.5 -62zM344 593q19 0 34.5 -15.5t15.5 -34.5t-15.5 -34.5t-34.5 -15.5t-34.5 15.5t-15.5 34.5t15.5 34.5t34.5 15.5zM167 593q19 0 34.5 -15.5t15.5 -34.5t-15.5 -34.5 t-34.5 -15.5t-34.5 15.5t-15.5 34.5t15.5 34.5t34.5 15.5zM359 -15l5 66v6q-72 -71 -165 -71q-51 0 -82.5 31t-31.5 88v203q0 40 -43 57q-13 4 -13 16.5t15 15.5q35 1 103 17q7 1 11 -3t3 -11q-6 -46 -6 -77v-195q0 -36 26 -63.5t58 -27.5q58 0 84 20q45 33 45 75v183 q0 27 -21 38t-44 11.5t-23 17.5q0 8 8.5 11.5t26.5 4t36 2t31 3.5t18 3q6 0 32 9h2q7 0 11.5 -6t-1.5 -16t-6 -67v-212q0 -69 18 -69q31 0 46 3t15 -12t-14 -15q-52 -7 -90.5 -23.5t-46 -16.5t-7.5 4z" />
<glyph unicode="&#x1d9;" horiz-adv-x="738" d="M245 992q0 10 12 10t56.5 -21t61 -30.5t26.5 -3.5q24 14 68 35t55.5 21t11.5 -11q0 -7 -6 -12l-98 -88q-25 -22 -41 -22t-41 22l-98 88q-7 6 -7 12zM487 801q21 0 35.5 -14.5t14.5 -35.5t-14.5 -35.5t-35.5 -14.5t-35.5 14.5t-14.5 35.5t14.5 35.5t35.5 14.5zM292 801 q21 0 35.5 -14.5t14.5 -35.5t-14.5 -35.5t-35.5 -14.5t-35.5 14.5t-14.5 35.5t14.5 35.5t35.5 14.5zM618 650l81 3q29 0 29 -11q0 -13 -33 -20q-47 -9 -50 -75q-1 -11 -10 -297q-4 -116 -75.5 -190t-179.5 -74q-142 0 -209.5 73.5t-67.5 221.5v266q0 60 -46 73q-33 9 -33 22 q0 11 29 11l96 -3l80 2q29 0 29 -11q0 -9 -33 -20q-14 -4 -28 -24.5t-14 -47.5v-296q0 -90 64.5 -153.5t156.5 -63.5t140 69.5t48 190.5q0 61 -4 215q-2 98 -41 109q-33 9 -33 20t29 11z" />
<glyph unicode="&#x1da;" horiz-adv-x="527" d="M252 739q3 -5 7 0q77 107 95 107q9 0 9 -15.5t-88 -151.5q-11 -18 -20 -18t-20 18q-88 136 -88 151.5t10 15.5q18 0 95 -107zM344 593q19 0 34.5 -15.5t15.5 -34.5t-15.5 -34.5t-34.5 -15.5t-34.5 15.5t-15.5 34.5t15.5 34.5t34.5 15.5zM167 593q19 0 34.5 -15.5 t15.5 -34.5t-15.5 -34.5t-34.5 -15.5t-34.5 15.5t-15.5 34.5t15.5 34.5t34.5 15.5zM359 -15l5 66v6q-72 -71 -165 -71q-51 0 -82.5 31t-31.5 88v203q0 40 -43 57q-13 4 -13 16.5t15 15.5q35 1 103 17q7 1 11 -3t3 -11q-6 -46 -6 -77v-195q0 -36 26 -63.5t58 -27.5 q58 0 84 20q45 33 45 75v183q0 27 -21 38t-44 11.5t-23 17.5q0 8 8.5 11.5t26.5 4t36 2t31 3.5t18 3q6 0 32 9h2q7 0 11.5 -6t-1.5 -16t-6 -67v-212q0 -69 18 -69q31 0 46 3t15 -12t-14 -15q-52 -7 -90.5 -23.5t-46 -16.5t-7.5 4z" />
<glyph unicode="&#x1db;" horiz-adv-x="738" d="M387 861q-6 0 -18 9q-85 64 -130 102q-13 12 -13 20t22 15t38 7t25 -13q82 -119 82 -134q0 -6 -6 -6zM487 801q21 0 35.5 -14.5t14.5 -35.5t-14.5 -35.5t-35.5 -14.5t-35.5 14.5t-14.5 35.5t14.5 35.5t35.5 14.5zM292 801q21 0 35.5 -14.5t14.5 -35.5t-14.5 -35.5 t-35.5 -14.5t-35.5 14.5t-14.5 35.5t14.5 35.5t35.5 14.5zM618 650l81 3q29 0 29 -11q0 -13 -33 -20q-47 -9 -50 -75q-1 -11 -10 -297q-4 -116 -75.5 -190t-179.5 -74q-142 0 -209.5 73.5t-67.5 221.5v266q0 60 -46 73q-33 9 -33 22q0 11 29 11l96 -3l80 2q29 0 29 -11 q0 -9 -33 -20q-14 -4 -28 -24.5t-14 -47.5v-296q0 -90 64.5 -153.5t156.5 -63.5t140 69.5t48 190.5q0 61 -4 215q-2 98 -41 109q-33 9 -33 20t29 11z" />
<glyph unicode="&#x1dc;" horiz-adv-x="527" d="M194 771q81 -141 81 -158t-9.5 -17t-35 27.5t-69 80.5t-43.5 62q0 23 49 23q16 0 27 -18zM344 593q19 0 34.5 -15.5t15.5 -34.5t-15.5 -34.5t-34.5 -15.5t-34.5 15.5t-15.5 34.5t15.5 34.5t34.5 15.5zM167 593q19 0 34.5 -15.5t15.5 -34.5t-15.5 -34.5t-34.5 -15.5 t-34.5 15.5t-15.5 34.5t15.5 34.5t34.5 15.5zM359 -15l5 66v6q-72 -71 -165 -71q-51 0 -82.5 31t-31.5 88v203q0 40 -43 57q-13 4 -13 16.5t15 15.5q35 1 103 17q7 1 11 -3t3 -11q-6 -46 -6 -77v-195q0 -36 26 -63.5t58 -27.5q58 0 84 20q45 33 45 75v183q0 27 -21 38 t-44 11.5t-23 17.5q0 8 8.5 11.5t26.5 4t36 2t31 3.5t18 3q6 0 32 9h2q7 0 11.5 -6t-1.5 -16t-6 -67v-212q0 -69 18 -69q31 0 46 3t15 -12t-14 -15q-52 -7 -90.5 -23.5t-46 -16.5t-7.5 4z" />
<glyph unicode="&#x1dd;" horiz-adv-x="388" d="M63 22.5q-42 36.5 -42 81t26 60t71 15.5h155q12 0 15 6t3 31q0 61 -34.5 103.5t-89.5 42.5q-75 0 -113 -50q-5 -5 -9 -5q-12 0 -12 16q0 24 48.5 57.5t118 33.5t119 -57.5t49.5 -142.5t-56 -156.5t-131.5 -71.5t-117.5 36.5zM286 86q6 12 6 37t-15 25h-90q-47 0 -73 -5 q-12 -2 -12 -52q0 -26 25.5 -50t59.5 -24q61 0 99 69z" />
<glyph unicode="&#x1de;" horiz-adv-x="684" d="M237 900h263q5 0 9 -4t4 -13.5t-9.5 -23t-21.5 -13.5h-255q-5 0 -9.5 3.5t-4.5 12t6 23.5t18 15zM460 801q21 0 35.5 -14.5t14.5 -35.5t-14.5 -35.5t-35.5 -14.5t-35.5 14.5t-14.5 35.5t14.5 35.5t35.5 14.5zM265 801q21 0 35.5 -14.5t14.5 -35.5t-14.5 -35.5 t-35.5 -14.5t-35.5 14.5t-14.5 35.5t14.5 35.5t35.5 14.5zM147 1l-120 -6q-29 0 -29 12.5t33 23.5q60 18 86 77q96 220 187 470q13 33 13 45.5t1 12.5q36 12 42 19.5t8 11.5q4 9 7 9q5 0 10 -14q74 -233 178 -534q19 -55 42 -74.5t57.5 -25.5t34.5 -23q0 -10 -29 -10l-139 6 l-105 -1q-29 0 -29 12q0 14 33 19q61 10 61 45q0 30 -38 157q-3 11 -27 11h-191q-11 0 -17 -18q-40 -116 -40 -138t16.5 -37t45.5 -22.5t29 -18.5t-29 -11zM333 542l-90 -240q-2 -6 -2 -8q0 -7 21 -7h155q14 0 14 5q0 2 -2 10l-79 239q-6 18 -8.5 18t-8.5 -17z" />
<glyph unicode="&#x1df;" horiz-adv-x="399" d="M100 708h203q5 0 9 -4t4 -15t-8 -23.5t-23 -12.5h-195q-5 0 -9.5 4t-4.5 12t6 23.5t18 15.5zM284 593q19 0 34.5 -15.5t15.5 -34.5t-15.5 -34.5t-34.5 -15.5t-34.5 15.5t-15.5 34.5t15.5 34.5t34.5 15.5zM107 593q19 0 34.5 -15.5t15.5 -34.5t-15.5 -34.5t-34.5 -15.5 t-34.5 15.5t-15.5 34.5t15.5 34.5t34.5 15.5zM115 87q0 -26 16 -40.5t39 -14.5t54 27q11 9 12 40l2 49q1 21 -9 21q-7 0 -14 -3q-100 -34 -100 -79zM116 314l1 -14q0 -9 -28.5 -22t-38.5 -13t-10 9q0 34 34.5 64.5t76.5 53t77.5 22.5t59.5 -26t23 -63l-5 -216v-6 q0 -71 36 -71q25 0 40 14q4 4 10 0.5t6 -9.5v-1q-6 -13 -31 -31.5t-49.5 -18.5t-41 13t-23.5 26t-9 13q-4 0 -18 -13t-41.5 -26t-61 -13t-61 25t-27.5 54q0 60 73 90l102 42q19 8 23 14t5 26l2 62v2q0 26 -16.5 45t-38 19t-40.5 -10.5t-24 -19.5t-5 -21z" />
</font>
</defs>
</svg>
